<?xml version="1.0" standalone="no"?>
<!DOCTYPE svg PUBLIC "-//W3C//DTD SVG 20010904//EN"
 "http://www.w3.org/TR/2001/REC-SVG-20010904/DTD/svg10.dtd">
<svg version="1.0" xmlns="http://www.w3.org/2000/svg"
 width="1024.000000pt" height="1024.000000pt" viewBox="0 0 1024.000000 1024.000000"
 preserveAspectRatio="xMidYMid meet">

<g transform="translate(0.000000,1024.000000) scale(0.100000,-0.100000)"
fill="#000000" stroke="none">
<path d="M790 5116 l0 -4555 4330 0 4330 1 0 4554 0 4554 -4330 0 -4330 0 0
-4554z m733 3947 c5 -563 11 -645 67 -923 172 -851 726 -1649 1503 -2164 327
-216 649 -363 1026 -467 994 -272 2044 -132 2903 387 479 290 906 706 1188
1156 83 133 224 413 278 551 60 152 117 346 152 516 59 288 62 330 67 919 l5
542 324 0 324 0 0 -3277 0 -3278 -1585 0 -1585 0 -5 45 c-21 168 -50 262 -121
400 -81 158 -198 288 -347 388 -122 83 -237 131 -392 164 -81 17 -322 16 -410
-1 -291 -58 -527 -215 -692 -461 -75 -111 -136 -274 -162 -430 -11 -67 -21
-105 -29 -104 -7 1 -718 2 -1582 3 l-1570 1 0 3275 0 3275 319 0 319 0 5 -517z
m2327 190 c1 -181 2 -867 3 -1525 l2 -1198 68 0 67 0 0 -51 c0 -61 32 -221 59
-302 95 -275 334 -545 578 -653 30 -14 54 -26 52 -28 -6 -5 -313 49 -414 73
-429 102 -854 295 -1214 550 -700 497 -1200 1236 -1366 2021 -54 258 -58 307
-62 893 l-5 547 1116 0 1116 0 0 -327z m2450 -1153 l0 -1480 -29 0 c-27 0 -29
3 -35 53 -3 28 -11 69 -16 89 l-11 37 -42 -13 c-23 -7 -41 -18 -40 -24 2 -6 9
-40 16 -76 l14 -66 -1039 0 -1038 0 0 29 c0 28 15 120 25 152 4 11 -6 19 -36
28 -22 7 -43 10 -45 8 -7 -7 -34 -156 -34 -188 0 -22 -5 -29 -20 -29 -20 0
-20 9 -22 1480 l-3 1480 1178 0 1177 0 0 -1480z m2320 1036 c0 -569 -14 -744
-81 -1046 -133 -592 -469 -1181 -920 -1615 -490 -471 -1071 -784 -1719 -925
-116 -25 -332 -61 -337 -56 -2 2 26 18 62 34 219 103 427 321 527 554 40 93
88 269 88 324 0 17 3 52 6 78 l7 46 68 0 69 0 0 1525 0 1525 1115 0 1115 0 0
-444z m-2465 -2663 c-32 -276 -122 -478 -293 -655 -136 -141 -292 -236 -487
-295 -82 -24 -104 -27 -255 -26 -150 0 -173 2 -254 27 -294 89 -525 275 -665
537 -69 127 -121 314 -121 430 l0 39 1041 0 1040 0 -6 -57z m-888 -2539 c310
-46 572 -231 712 -504 27 -52 58 -125 71 -162 28 -87 51 -238 36 -238 -6 0
-445 0 -976 0 l-965 -1 4 38 c17 208 113 423 259 575 158 165 336 258 566 293
112 18 171 18 293 -1z m-1213 -1066 c15 -149 71 -314 153 -451 60 -100 219
-265 321 -332 322 -210 728 -233 1065 -61 110 56 171 101 265 191 177 169 278
363 318 611 l17 104 1584 0 1583 0 0 -1135 0 -1135 -4240 0 -4240 0 0 1135 0
1135 1584 0 1583 0 7 -62z m2032 0 c-40 -387 -340 -732 -724 -835 -83 -23
-118 -26 -247 -27 -133 0 -161 3 -247 27 -361 99 -634 388 -704 745 -8 41 -14
91 -14 113 l0 39 971 0 972 0 -7 -62z"/>
<path d="M4630 8925 l0 -45 495 0 495 0 0 45 0 45 -495 0 -495 0 0 -45z"/>
<path d="M4995 7664 c-11 -3 -46 -9 -78 -16 l-58 -11 7 -41 c3 -23 7 -42 8
-43 1 -1 42 5 90 14 l88 16 -6 30 c-3 16 -6 36 -6 43 0 14 -7 15 -45 8z"/>
<path d="M5208 7630 c-6 -38 12 -60 48 -60 14 0 45 -5 70 -11 51 -13 59 -9 68
37 7 29 4 33 -26 43 -18 7 -61 15 -94 18 l-61 6 -5 -33z"/>
<path d="M4608 7549 c-43 -21 -78 -42 -78 -45 0 -9 41 -74 46 -74 2 0 21 11
42 23 20 13 54 30 75 38 20 7 37 16 37 21 0 12 -33 78 -39 78 -3 -1 -41 -19
-83 -41z"/>
<path d="M5535 7550 c-8 -16 -15 -33 -15 -39 0 -5 35 -28 77 -51 l77 -41 27
33 27 33 -26 18 c-29 19 -138 77 -146 77 -3 0 -12 -13 -21 -30z"/>
<path d="M4323 7357 l-68 -67 35 -30 35 -29 65 64 65 65 -32 32 -32 31 -68
-66z"/>
<path d="M5818 7363 l-27 -28 74 -73 74 -74 37 26 37 25 -74 75 c-41 42 -79
76 -85 76 -6 0 -22 -12 -36 -27z"/>
<path d="M4121 7092 c-58 -117 -59 -119 -15 -137 20 -8 38 -14 39 -13 1 2 23
44 47 93 l46 91 -39 21 -39 22 -39 -77z"/>
<path d="M6055 7098 c-16 -10 -34 -19 -38 -21 -5 -1 10 -41 33 -88 l41 -86 40
11 c21 5 39 14 39 19 0 12 -41 106 -65 148 l-20 36 -30 -19z"/>
</g>
</svg>
