<?xml version="1.0" standalone="no"?>
<!DOCTYPE svg PUBLIC "-//W3C//DTD SVG 20010904//EN"
 "http://www.w3.org/TR/2001/REC-SVG-20010904/DTD/svg10.dtd">
<svg version="1.0" xmlns="http://www.w3.org/2000/svg"
 width="500.000000pt" height="500.000000pt" viewBox="0 0 500.000000 500.000000"
 preserveAspectRatio="xMidYMid meet">

<g transform="translate(0.000000,500.000000) scale(0.100000,-0.100000)"
fill="#000000" stroke="none">
<path d="M2390 4125 c-75 -22 -130 -56 -183 -115 -42 -47 -47 -49 -56 -32 -13
25 -94 77 -151 97 -66 24 -219 22 -288 -4 -116 -43 -187 -104 -233 -200 -20
-41 -23 -66 -27 -227 l-4 -181 -83 -5 c-168 -11 -279 -100 -346 -277 -9 -25
-13 -121 -13 -370 0 -319 1 -340 22 -414 41 -144 111 -269 212 -381 40 -45
232 -215 336 -299 l71 -57 6 -292 c4 -161 7 -370 7 -463 0 -120 4 -175 12
-183 9 -9 230 -12 935 -12 860 0 923 1 932 17 6 11 7 200 4 503 l-6 485 119
120 c129 130 186 215 243 360 83 215 91 287 91 870 0 519 -1 529 -49 622 -11
22 -44 62 -74 90 -74 67 -138 87 -255 80 -48 -3 -97 -8 -108 -12 -17 -5 -23
-2 -28 21 -10 38 -60 109 -99 138 -70 54 -124 70 -237 69 -93 0 -112 -3 -163
-27 -32 -15 -76 -43 -97 -62 l-38 -35 -33 45 c-36 50 -81 85 -152 116 -64 28
-193 35 -267 15z m233 -100 c52 -21 107 -73 128 -120 17 -37 19 -75 19 -441
l0 -402 -28 -53 c-34 -65 -94 -113 -169 -135 -114 -33 -251 25 -304 128 l-21
40 28 62 c56 121 41 263 -31 310 l-27 18 4 206 c3 204 3 208 31 265 36 73 108
124 197 141 41 8 133 -2 173 -19z m-640 -40 c20 -8 52 -29 72 -46 60 -53 67
-82 73 -291 l4 -188 -291 0 -291 0 0 175 c0 155 2 180 20 214 25 51 91 106
154 130 64 25 206 28 259 6z m1294 -27 c55 -26 98 -82 119 -157 14 -46 15 -68
5 -140 -6 -47 -13 -113 -16 -146 -42 -442 -48 -477 -83 -530 -100 -146 -344
-137 -422 16 -19 35 -20 60 -20 341 0 167 5 343 10 391 15 144 71 215 197 247
55 13 158 3 210 -22z m479 -212 c58 -27 97 -72 125 -146 15 -41 19 -76 19
-193 0 -307 -74 -479 -223 -519 -92 -24 -211 29 -237 107 -12 36 -10 62 30
445 26 253 27 255 65 296 31 32 36 34 101 34 52 0 82 -6 120 -24z m-1599 -391
c49 -21 62 -41 63 -99 0 -103 -94 -238 -209 -295 -77 -40 -118 -49 -251 -61
-159 -14 -160 -15 -160 -50 0 -33 15 -44 75 -55 136 -24 384 -182 498 -318 77
-91 135 -195 162 -287 11 -36 24 -50 49 -50 47 0 58 39 30 106 -52 128 -116
234 -188 313 -66 71 -295 241 -326 241 -5 0 -11 4 -15 9 -3 5 21 17 52 26 73
21 147 58 195 96 l38 30 62 -63 c72 -72 130 -104 218 -120 110 -19 217 15 310
99 l50 45 45 -40 c79 -69 126 -87 235 -87 108 0 160 18 237 81 l43 36 46 -41
c71 -63 182 -92 275 -72 63 14 147 68 181 117 12 18 26 34 29 34 9 0 0 -347
-12 -425 -45 -307 -161 -527 -364 -690 -28 -22 -55 -47 -62 -55 -9 -11 -12
-133 -13 -497 l0 -483 -848 0 -849 0 -6 439 c-4 340 -8 444 -19 460 -7 12 -65
65 -128 118 -304 253 -402 368 -467 548 -35 97 -38 131 -38 450 l0 320 33 67
c37 77 97 132 164 153 67 21 815 21 865 0z"/>
</g>
</svg>
