<?xml version="1.0" encoding="UTF-8"?>
<!DOCTYPE svg PUBLIC "-//W3C//DTD SVG 1.1//EN" "http://www.w3.org/Graphics/SVG/1.1/DTD/svg11.dtd">
<svg xmlns="http://www.w3.org/2000/svg" version="1.1" width="500px" height="500px" style="shape-rendering:geometricPrecision; text-rendering:geometricPrecision; image-rendering:optimizeQuality; fill-rule:evenodd; clip-rule:evenodd" xmlns:xlink="http://www.w3.org/1999/xlink">
<g><path style="opacity:0.133" fill="#a6a6a6" d="M 236.5,86.5 C 235.713,88.1042 234.38,88.7709 232.5,88.5C 233.514,87.3263 234.847,86.6596 236.5,86.5 Z"/></g>
<g><path style="opacity:0.997" fill="#272827" d="M 284.5,103.5 C 285.973,104.072 287.307,104.905 288.5,106C 287,108.167 285.833,108 285,105.5C 283.372,106.819 283.539,108.152 285.5,109.5C 288.612,106.593 290.612,107.26 291.5,111.5C 290.243,114.096 289.076,116.763 288,119.5C 287.828,125.681 287.328,131.681 286.5,137.5C 286.666,132.156 286.499,126.823 286,121.5C 284.836,121.165 283.503,121.165 282,121.5C 281.667,120.833 281.333,120.167 281,119.5C 279.67,120.582 278.17,121.249 276.5,121.5C 273.244,100.125 260.91,91.9585 239.5,97C 229.858,101.161 224.191,108.328 222.5,118.5C 221.34,130.993 221.173,143.66 222,156.5C 222.671,157.252 223.504,157.586 224.5,157.5C 230.079,161.332 232.413,166.666 231.5,173.5C 231.575,180.763 229.742,187.43 226,193.5C 225.333,194.833 225.333,196.167 226,197.5C 229.736,202.738 234.236,207.071 239.5,210.5C 240.469,211.309 241.302,212.309 242,213.5C 243.699,212.594 245.533,212.261 247.5,212.5C 265.136,211.861 274.469,202.861 275.5,185.5C 276.317,187.969 276.817,190.635 277,193.5C 277.333,192.833 277.667,192.167 278,191.5C 279.312,193.658 280.978,193.991 283,192.5C 283.667,193.167 284.333,193.833 285,194.5C 285.168,175.662 285.668,156.996 286.5,138.5C 286.333,157.836 286.5,177.17 287,196.5C 288.271,199.433 289.938,202.099 292,204.5C 294.824,205.818 297.324,207.485 299.5,209.5C 297.9,210.252 296.4,211.252 295,212.5C 294.683,210.699 294.016,210.366 293,211.5C 291.637,209.216 290.137,209.049 288.5,211C 291.125,212.393 291.125,213.559 288.5,214.5C 288.167,214.5 287.833,214.5 287.5,214.5C 285.186,212.523 282.853,210.523 280.5,208.5C 273.886,216.81 265.219,221.476 254.5,222.5C 250.143,222.414 245.81,222.08 241.5,221.5C 230.764,219.606 222.597,213.939 217,204.5C 209.442,211.362 200.609,215.695 190.5,217.5C 186.714,217.638 186.714,218.305 190.5,219.5C 205.298,226.407 217.631,236.407 227.5,249.5C 227.833,250.5 228.5,251.167 229.5,251.5C 230.906,251.973 231.573,252.973 231.5,254.5C 231.427,256.027 232.094,257.027 233.5,257.5C 238.156,264.864 241.489,272.864 243.5,281.5C 243.439,283.653 242.439,284.986 240.5,285.5C 238.097,285.552 235.764,285.219 233.5,284.5C 229.488,271.152 222.821,259.152 213.5,248.5C 212.415,246.413 210.749,245.08 208.5,244.5C 204.61,241.729 200.943,238.729 197.5,235.5C 197.027,234.094 196.027,233.427 194.5,233.5C 184.076,226.587 172.743,221.754 160.5,219C 156.936,215.855 156.936,212.855 160.5,210C 174.705,209.986 188.372,207.486 201.5,202.5C 203.027,202.573 204.027,201.906 204.5,200.5C 208.5,197.167 212.167,193.5 215.5,189.5C 216.906,189.027 217.573,188.027 217.5,186.5C 219.051,182.145 220.384,177.645 221.5,173C 220.813,169.16 218.813,166.327 215.5,164.5C 218.826,164.033 219.159,162.866 216.5,161C 217.833,160.333 218.833,159.333 219.5,158C 217.824,156.823 216.491,155.323 215.5,153.5C 213.471,154.629 213.137,154.129 214.5,152C 213.68,142.244 213.18,132.41 213,122.5C 212.5,132.828 212.334,143.161 212.5,153.5C 211.209,153.737 210.209,153.404 209.5,152.5C 210.829,147.376 211.495,141.876 211.5,136C 211.691,128.059 211.024,120.225 209.5,112.5C 209.715,110.821 209.048,109.821 207.5,109.5C 204.45,105.462 200.45,102.629 195.5,101C 181.15,97.4624 168.983,100.962 159,111.5C 157.178,115.157 155.678,118.824 154.5,122.5C 154.607,120.097 153.607,118.264 151.5,117C 152.258,115.636 151.758,114.469 150,113.5C 149.667,114.167 149.333,114.833 149,115.5C 148.292,114.619 147.458,113.953 146.5,113.5C 147.965,107.917 150.965,103.25 155.5,99.5C 173.676,86.1862 192.343,85.3529 211.5,97C 213,98.5 214.5,100 216,101.5C 219.395,97.8604 222.895,94.3604 226.5,91C 228.407,89.878 230.407,89.0447 232.5,88.5C 234.38,88.7709 235.713,88.1042 236.5,86.5C 256.635,81.097 272.635,86.7636 284.5,103.5 Z"/></g>
<g><path style="opacity:0.02" fill="#a5a6a5" d="M 207.5,109.5 C 209.048,109.821 209.715,110.821 209.5,112.5C 208.599,111.71 207.932,110.71 207.5,109.5 Z"/></g>
<g><path style="opacity:0.996" fill="#222322" d="M 146.5,113.5 C 147.458,113.953 148.292,114.619 149,115.5C 149.333,114.833 149.667,114.167 150,113.5C 151.758,114.469 152.258,115.636 151.5,117C 153.607,118.264 154.607,120.097 154.5,122.5C 154.5,132.5 154.5,142.5 154.5,152.5C 172.833,152.5 191.167,152.5 209.5,152.5C 210.209,153.404 211.209,153.737 212.5,153.5C 212.334,143.161 212.5,132.828 213,122.5C 213.18,132.41 213.68,142.244 214.5,152C 213.137,154.129 213.471,154.629 215.5,153.5C 216.491,155.323 217.824,156.823 219.5,158C 218.833,159.333 217.833,160.333 216.5,161C 219.159,162.866 218.826,164.033 215.5,164.5C 188.192,163.535 160.859,163.201 133.5,163.5C 130.455,163.658 127.621,162.991 125,161.5C 123.333,163.833 121.667,166.167 120,168.5C 118.991,166.975 118.491,165.308 118.5,163.5C 115.225,163.767 114.392,162.767 116,160.5C 116.414,160.957 116.914,161.291 117.5,161.5C 118.362,160.234 119.029,158.901 119.5,157.5C 121.121,155.883 123.121,154.716 125.5,154C 131.778,152.812 138.112,152.312 144.5,152.5C 144.333,140.162 144.5,127.829 145,115.5C 145.278,114.584 145.778,113.918 146.5,113.5 Z"/></g>
<g><path style="opacity:0.999" fill="#292a29" d="M 397.5,139.5 C 396.883,139.611 396.383,139.944 396,140.5C 395.632,139.09 394.799,138.09 393.5,137.5C 391.179,138.563 390.179,140.063 390.5,142C 389.843,153.265 389.177,164.431 388.5,175.5C 388.667,164.828 388.5,154.161 388,143.5C 383.425,127.461 372.925,120.961 356.5,124C 351.402,127.826 348.736,132.993 348.5,139.5C 347.776,137.782 347.109,135.948 346.5,134C 346.833,133.667 347.167,133.333 347.5,133C 344.027,132.193 341.86,130.027 341,126.5C 340.768,127.737 340.268,128.737 339.5,129.5C 337.867,106.833 325.867,97.9998 303.5,103C 298.978,105.094 294.978,107.928 291.5,111.5C 290.612,107.26 288.612,106.593 285.5,109.5C 283.539,108.152 283.372,106.819 285,105.5C 285.833,108 287,108.167 288.5,106C 287.307,104.905 285.973,104.072 284.5,103.5C 285.932,100.898 287.932,98.7311 290.5,97C 310.944,86.052 329.111,88.8854 345,105.5C 346.029,108.764 347.529,111.764 349.5,114.5C 368.827,108.44 383.993,113.773 395,130.5C 396.903,133.171 397.736,136.171 397.5,139.5 Z"/></g>
<g><path style="opacity:0.973" fill="#202221" d="M 286.5,137.5 C 286.5,137.833 286.5,138.167 286.5,138.5C 285.668,156.996 285.168,175.662 285,194.5C 284.333,193.833 283.667,193.167 283,192.5C 280.978,193.991 279.312,193.658 278,191.5C 277.667,192.167 277.333,192.833 277,193.5C 276.817,190.635 276.317,187.969 275.5,185.5C 275.169,163.993 275.503,142.66 276.5,121.5C 278.17,121.249 279.67,120.582 281,119.5C 281.333,120.167 281.667,120.833 282,121.5C 283.503,121.165 284.836,121.165 286,121.5C 286.499,126.823 286.666,132.156 286.5,137.5 Z"/></g>
<g><path style="opacity:0.999" fill="#232524" d="M 397.5,139.5 C 398.222,139.918 398.722,140.584 399,141.5C 399.667,176.167 399.667,210.833 399,245.5C 397.089,264.326 391.256,281.659 381.5,297.5C 377.876,296.377 375.209,297.71 373.5,301.5C 373.167,301.333 372.833,301.167 372.5,301C 372.729,298.219 372.729,295.386 372.5,292.5C 373.508,290.456 374.508,288.456 375.5,286.5C 377.104,285.713 377.771,284.38 377.5,282.5C 379.104,281.713 379.771,280.38 379.5,278.5C 379.5,278.167 379.5,277.833 379.5,277.5C 381.104,276.713 381.771,275.38 381.5,273.5C 384.619,264.077 386.785,254.411 388,244.5C 388.413,231.794 388.746,219.127 389,206.5C 388.617,207.056 388.117,207.389 387.5,207.5C 386.316,206.312 386.316,205.145 387.5,204C 385.608,203.027 383.608,202.36 381.5,202C 382.171,201.014 382.171,199.847 381.5,198.5C 384.628,190.966 386.962,183.299 388.5,175.5C 389.177,164.431 389.843,153.265 390.5,142C 390.179,140.063 391.179,138.563 393.5,137.5C 394.799,138.09 395.632,139.09 396,140.5C 396.383,139.944 396.883,139.611 397.5,139.5 Z"/></g>
<g><path style="opacity:0.404" fill="#5a5a5a" d="M 222.5,118.5 C 222.333,130.838 222.5,143.171 223,155.5C 223.717,156.044 224.217,156.711 224.5,157.5C 223.504,157.586 222.671,157.252 222,156.5C 221.173,143.66 221.34,130.993 222.5,118.5 Z"/></g>
<g><path style="opacity:0.991" fill="#282928" d="M 348.5,139.5 C 347.248,157.694 345.581,175.861 343.5,194C 343.518,200.161 346.185,204.661 351.5,207.5C 351.821,209.048 352.821,209.715 354.5,209.5C 360.293,211.067 365.959,210.733 371.5,208.5C 373.027,208.573 374.027,207.906 374.5,206.5C 376.862,203.808 379.196,201.141 381.5,198.5C 382.171,199.847 382.171,201.014 381.5,202C 383.608,202.36 385.608,203.027 387.5,204C 386.316,205.145 386.316,206.312 387.5,207.5C 381.792,216.528 373.459,221.195 362.5,221.5C 352.017,221.256 343.35,217.256 336.5,209.5C 322.72,222.574 307.387,224.908 290.5,216.5C 290.167,215.5 289.5,214.833 288.5,214.5C 291.125,213.559 291.125,212.393 288.5,211C 290.137,209.049 291.637,209.216 293,211.5C 294.016,210.366 294.683,210.699 295,212.5C 296.4,211.252 297.9,210.252 299.5,209.5C 313.024,213.17 323.524,209.17 331,197.5C 334.102,174.733 336.935,152.066 339.5,129.5C 340.268,128.737 340.768,127.737 341,126.5C 341.86,130.027 344.027,132.193 347.5,133C 347.167,133.333 346.833,133.667 346.5,134C 347.109,135.948 347.776,137.782 348.5,139.5 Z"/></g>
<g><path style="opacity:0.992" fill="#2c2c2c" d="M 119.5,157.5 C 119.029,158.901 118.362,160.234 117.5,161.5C 116.914,161.291 116.414,160.957 116,160.5C 114.392,162.767 115.225,163.767 118.5,163.5C 118.491,165.308 118.991,166.975 120,168.5C 121.667,166.167 123.333,163.833 125,161.5C 127.621,162.991 130.455,163.658 133.5,163.5C 119.896,167.441 111.896,176.441 109.5,190.5C 109.543,186.107 109.043,185.774 108,189.5C 106,188.167 104,188.167 102,189.5C 100.926,195.239 100.093,200.906 99.5,206.5C 96.1371,188.112 101.137,172.612 114.5,160C 116.078,158.906 117.745,158.072 119.5,157.5 Z"/></g>
<g><path style="opacity:0.129" fill="#b6b6b6" d="M 217.5,186.5 C 217.573,188.027 216.906,189.027 215.5,189.5C 215.427,187.973 216.094,186.973 217.5,186.5 Z"/></g>
<g><path style="opacity:0.996" fill="#272928" d="M 109.5,190.5 C 109.5,208.833 109.5,227.167 109.5,245.5C 109.938,248.893 109.105,251.893 107,254.5C 106.667,253.833 106.333,253.167 106,252.5C 104,253.167 102.667,254.5 102,256.5C 101.722,255.584 101.222,254.918 100.5,254.5C 98.3675,238.677 98.0341,222.677 99.5,206.5C 100.093,200.906 100.926,195.239 102,189.5C 104,188.167 106,188.167 108,189.5C 109.043,185.774 109.543,186.107 109.5,190.5 Z"/></g>
<g><path style="opacity:0.416" fill="#9c9c9c" d="M 204.5,200.5 C 204.027,201.906 203.027,202.573 201.5,202.5C 201.973,201.094 202.973,200.427 204.5,200.5 Z"/></g>
<g><path style="opacity:0.325" fill="#989a98" d="M 374.5,206.5 C 374.027,207.906 373.027,208.573 371.5,208.5C 371.973,207.094 372.973,206.427 374.5,206.5 Z"/></g>
<g><path style="opacity:0.043" fill="#969696" d="M 351.5,207.5 C 352.71,207.932 353.71,208.599 354.5,209.5C 352.821,209.715 351.821,209.048 351.5,207.5 Z"/></g>
<g><path style="opacity:1" fill="#757676" d="M 239.5,210.5 C 242.373,210.802 245.039,211.469 247.5,212.5C 245.533,212.261 243.699,212.594 242,213.5C 241.302,212.309 240.469,211.309 239.5,210.5 Z"/></g>
<g><path style="opacity:0.071" fill="#c5c5c5" d="M 287.5,214.5 C 287.833,214.5 288.167,214.5 288.5,214.5C 289.5,214.833 290.167,215.5 290.5,216.5C 288.973,216.573 287.973,215.906 287.5,214.5 Z"/></g>
<g><path style="opacity:0.031" fill="#b7b8b7" d="M 190.5,217.5 C 190.5,218.167 190.5,218.833 190.5,219.5C 186.714,218.305 186.714,217.638 190.5,217.5 Z"/></g>
<g><path style="opacity:0.148" fill="#a3a3a3" d="M 241.5,221.5 C 245.81,222.08 250.143,222.414 254.5,222.5C 250.07,223.861 245.737,223.527 241.5,221.5 Z"/></g>
<g><path style="opacity:0.416" fill="#9c9c9c" d="M 194.5,233.5 C 196.027,233.427 197.027,234.094 197.5,235.5C 195.973,235.573 194.973,234.906 194.5,233.5 Z"/></g>
<g><path style="opacity:0.314" fill="#afafaf" d="M 208.5,244.5 C 210.749,245.08 212.415,246.413 213.5,248.5C 211.251,247.92 209.585,246.587 208.5,244.5 Z"/></g>
<g><path style="opacity:0.004" fill="#d5d5d5" d="M 227.5,249.5 C 228.833,249.5 229.5,250.167 229.5,251.5C 228.5,251.167 227.833,250.5 227.5,249.5 Z"/></g>
<g><path style="opacity:0.996" fill="#292929" d="M 109.5,245.5 C 111.088,259.369 116.088,272.036 124.5,283.5C 136.613,296.951 149.613,309.285 163.5,320.5C 162.732,321.263 162.232,322.263 162,323.5C 161.667,323.167 161.333,322.833 161,322.5C 159.764,324.538 157.931,325.705 155.5,326C 156.252,326.671 156.586,327.504 156.5,328.5C 142.259,317.264 128.926,304.93 116.5,291.5C 108.422,280.4 103.089,268.067 100.5,254.5C 101.222,254.918 101.722,255.584 102,256.5C 102.667,254.5 104,253.167 106,252.5C 106.333,253.167 106.667,253.833 107,254.5C 109.105,251.893 109.938,248.893 109.5,245.5 Z"/></g>
<g><path style="opacity:0.075" fill="#b1b1b1" d="M 231.5,254.5 C 232.906,254.973 233.573,255.973 233.5,257.5C 232.094,257.027 231.427,256.027 231.5,254.5 Z"/></g>
<g><path style="opacity:0.082" fill="#cbcbcb" d="M 381.5,273.5 C 381.771,275.38 381.104,276.713 379.5,277.5C 379.66,275.847 380.326,274.514 381.5,273.5 Z"/></g>
<g><path style="opacity:0.192" fill="#aaaaaa" d="M 379.5,278.5 C 379.771,280.38 379.104,281.713 377.5,282.5C 377.66,280.847 378.326,279.514 379.5,278.5 Z"/></g>
<g><path style="opacity:0.357" fill="#787a79" d="M 233.5,284.5 C 235.764,285.219 238.097,285.552 240.5,285.5C 239.726,286.147 238.726,286.48 237.5,286.5C 235.645,286.66 234.312,285.993 233.5,284.5 Z"/></g>
<g><path style="opacity:0.149" fill="#afafaf" d="M 377.5,282.5 C 377.771,284.38 377.104,285.713 375.5,286.5C 375.66,284.847 376.326,283.514 377.5,282.5 Z"/></g>
<g><path style="opacity:0.995" fill="#2b2b2b" d="M 372.5,292.5 C 372.729,295.386 372.729,298.219 372.5,301C 372.833,301.167 373.167,301.333 373.5,301.5C 375.209,297.71 377.876,296.377 381.5,297.5C 374.971,309.032 366.304,318.699 355.5,326.5C 355.25,325.078 354.417,324.078 353,323.5C 352.333,326.167 351.667,326.167 351,323.5C 350.667,324.167 350.333,324.833 350,325.5C 348.358,323.898 346.525,322.565 344.5,321.5C 355.206,313.128 364.539,303.461 372.5,292.5 Z"/></g>
<g><path style="opacity:0.991" fill="#212221" d="M 163.5,320.5 C 169.779,323.112 173.446,327.779 174.5,334.5C 174.169,363.005 174.502,391.338 175.5,419.5C 201.663,420.332 227.997,420.832 254.5,421C 253.304,421.654 253.304,422.154 254.5,422.5C 278.982,421.684 303.482,421.351 328,421.5C 330.833,421.667 333.667,421.833 336.5,422C 336.043,422.414 335.709,422.914 335.5,423.5C 340.923,424.347 346.256,425.514 351.5,427C 292.849,427.631 233.849,427.631 174.5,427C 173.975,426.308 173.308,425.808 172.5,425.5C 172.167,426.167 171.833,426.833 171.5,427.5C 170.808,426.975 170.308,426.308 170,425.5C 169.5,426.667 168.667,427.5 167.5,428C 229.166,428.5 290.832,428.667 352.5,428.5C 290.668,429.665 228.668,429.832 166.5,429C 165.874,428.25 165.374,427.416 165,426.5C 164.705,403.828 164.205,381.161 163.5,358.5C 164.644,349.939 164.31,341.606 162.5,333.5C 161.145,332.812 160.145,331.812 159.5,330.5C 159.027,329.094 158.027,328.427 156.5,328.5C 156.586,327.504 156.252,326.671 155.5,326C 157.931,325.705 159.764,324.538 161,322.5C 161.333,322.833 161.667,323.167 162,323.5C 162.232,322.263 162.732,321.263 163.5,320.5 Z"/></g>
<g><path style="opacity:1" fill="#1d1e1d" d="M 344.5,321.5 C 346.525,322.565 348.358,323.898 350,325.5C 350.333,324.833 350.667,324.167 351,323.5C 351.667,326.167 352.333,326.167 353,323.5C 354.417,324.078 355.25,325.078 355.5,326.5C 355.165,360.679 354.165,394.679 352.5,428.5C 290.832,428.667 229.166,428.5 167.5,428C 168.667,427.5 169.5,426.667 170,425.5C 170.308,426.308 170.808,426.975 171.5,427.5C 171.833,426.833 172.167,426.167 172.5,425.5C 173.308,425.808 173.975,426.308 174.5,427C 233.849,427.631 292.849,427.631 351.5,427C 346.256,425.514 340.923,424.347 335.5,423.5C 335.709,422.914 336.043,422.414 336.5,422C 333.667,421.833 330.833,421.667 328,421.5C 303.482,421.351 278.982,421.684 254.5,422.5C 253.304,422.154 253.304,421.654 254.5,421C 227.997,420.832 201.663,420.332 175.5,419.5C 232.002,419.832 288.336,419.499 344.5,418.5C 343.424,386.129 343.424,353.796 344.5,321.5 Z"/></g>
<g><path style="opacity:0.267" fill="#aaaaaa" d="M 156.5,328.5 C 158.027,328.427 159.027,329.094 159.5,330.5C 157.973,330.573 156.973,329.906 156.5,328.5 Z"/></g>
<g><path style="opacity:0.031" fill="#e0e0e0" d="M 174.5,334.5 C 175.498,362.328 175.831,390.328 175.5,418.5C 231.833,418.5 288.167,418.5 344.5,418.5C 288.336,419.499 232.002,419.832 175.5,419.5C 174.502,391.338 174.169,363.005 174.5,334.5 Z"/></g>
</svg>
