<?xml version="1.0" standalone="no"?>
<!DOCTYPE svg PUBLIC "-//W3C//DTD SVG 20010904//EN"
 "http://www.w3.org/TR/2001/REC-SVG-20010904/DTD/svg10.dtd">
<svg version="1.0" xmlns="http://www.w3.org/2000/svg"
 width="500.000000pt" height="500.000000pt" viewBox="0 0 500.000000 500.000000"
 preserveAspectRatio="xMidYMid meet">

<g transform="translate(0.000000,500.000000) scale(0.100000,-0.100000)"
fill="#000000" stroke="none">
<path d="M2213 4676 c-92 -29 -189 -119 -217 -203 -25 -72 -21 -181 8 -245 23
-51 73 -111 118 -143 21 -14 22 -22 21 -132 0 -111 -9 -182 -35 -280 -22 -89
-47 -37 -79 167 -29 187 -91 344 -169 433 -166 189 -485 134 -597 -101 -37
-78 -39 -203 -4 -274 26 -54 94 -121 143 -141 31 -13 37 -22 56 -88 24 -81 52
-227 52 -272 0 -42 -20 -29 -54 34 -130 246 -208 318 -356 327 -82 5 -140 -20
-199 -83 -64 -70 -93 -136 -99 -230 -4 -68 -1 -89 16 -128 24 -54 85 -113 145
-142 37 -18 48 -31 87 -110 25 -49 51 -115 58 -145 7 -30 19 -197 27 -370 18
-393 28 -483 72 -630 48 -165 131 -305 247 -420 l56 -54 0 -541 c0 -407 3
-544 12 -553 17 -17 1649 -17 1666 0 9 9 12 135 12 504 l0 492 140 71 c77 38
175 94 218 123 87 60 219 186 280 268 64 87 182 304 261 482 73 164 45 323
-75 439 -82 78 -219 180 -289 214 -115 57 -229 43 -301 -37 l-37 -41 7 124
c13 233 39 355 121 559 70 177 83 218 101 320 40 225 -58 419 -248 492 -66 25
-169 26 -239 3 -66 -22 -153 -105 -195 -185 -25 -49 -29 -66 -29 -145 0 -67 5
-100 18 -128 21 -43 19 -53 -30 -150 -36 -73 -128 -177 -156 -177 -22 0 -23
58 -2 194 27 176 17 395 -24 556 -43 171 -153 308 -275 345 -60 18 -176 18
-233 1z m244 -98 c96 -44 158 -157 204 -368 16 -71 16 -349 0 -422 -19 -91
-19 -219 1 -250 36 -54 107 -52 183 6 37 29 109 125 145 194 12 23 26 44 30
47 5 3 28 -3 52 -12 30 -13 70 -18 134 -18 76 0 98 4 137 24 64 33 109 77 105
103 -4 27 -34 46 -51 33 -101 -76 -158 -93 -245 -75 -107 23 -156 83 -156 189
0 75 22 127 80 191 104 115 266 110 388 -13 108 -110 113 -319 11 -552 -113
-258 -155 -469 -159 -795 -1 -140 12 -220 57 -357 l20 -62 -38 -82 c-32 -68
-39 -94 -39 -147 -1 -51 3 -67 17 -76 31 -20 51 4 58 70 5 56 27 123 50 151 9
10 21 4 60 -31 82 -74 188 -110 203 -70 10 25 -3 54 -23 54 -26 0 -111 57
-154 104 -21 22 -52 70 -69 106 -27 56 -31 76 -31 140 1 136 72 240 163 240
98 0 368 -190 438 -309 41 -70 37 -157 -12 -275 -45 -109 -128 -277 -156 -315
-11 -16 -20 -32 -20 -35 0 -19 -109 -164 -168 -224 -90 -91 -194 -160 -387
-257 l-160 -80 -3 -493 -2 -492 -765 0 -765 0 0 485 c0 519 -2 499 50 472 66
-33 183 -57 282 -57 72 0 116 6 271 37 15 3 30 9 33 14 3 5 12 9 20 9 8 0 33
9 55 19 l40 20 54 -29 c94 -49 212 -83 332 -94 41 -4 57 -1 75 14 36 30 14 53
-58 63 -109 14 -224 46 -311 87 -47 22 -90 40 -95 40 -6 0 -24 -7 -41 -15 -58
-27 -151 -56 -227 -70 -265 -52 -499 35 -646 241 -147 205 -203 448 -204 882
0 274 -27 428 -100 572 -24 48 -27 60 -15 60 47 0 154 88 174 143 21 55 21 65
4 86 -25 31 -47 19 -71 -37 -35 -80 -82 -112 -165 -112 -68 0 -113 28 -145 90
-42 81 -15 206 62 282 67 67 151 74 238 19 52 -33 83 -70 128 -156 86 -160
108 -190 148 -206 56 -22 112 41 112 126 0 50 -21 176 -41 250 -23 86 -23 85
-1 85 75 0 218 96 247 167 18 42 6 73 -29 73 -18 0 -31 -12 -49 -43 -68 -116
-232 -151 -327 -70 -53 44 -73 95 -68 178 4 85 38 150 105 201 44 34 130 64
180 64 66 -1 168 -58 215 -121 54 -74 103 -223 128 -389 27 -179 66 -254 133
-254 41 0 91 39 100 77 31 126 39 181 44 295 l6 132 42 0 c86 0 221 65 261
125 39 60 -17 102 -67 49 -49 -54 -99 -77 -175 -82 -96 -6 -152 18 -193 84
-94 147 -11 339 160 373 60 12 145 3 196 -21z"/>
<path d="M2350 3054 c-267 -184 -572 -323 -852 -389 -79 -18 -96 -33 -82 -68
12 -32 36 -30 199 16 151 43 335 116 475 190 79 42 264 152 290 173 8 7 35 28
60 46 46 35 63 74 38 89 -22 14 -29 11 -128 -57z"/>
<path d="M2710 2718 c-75 -42 -122 -79 -208 -162 -109 -105 -190 -234 -240
-381 -19 -57 -26 -85 -51 -197 -17 -73 -14 -183 5 -199 34 -28 48 1 66 132 29
220 108 408 229 546 49 57 163 152 237 198 65 39 79 59 61 81 -17 21 -38 17
-99 -18z"/>
</g>
</svg>
