<?xml version="1.0" encoding="UTF-8"?>
<!DOCTYPE svg PUBLIC "-//W3C//DTD SVG 1.1//EN" "http://www.w3.org/Graphics/SVG/1.1/DTD/svg11.dtd">
<svg xmlns="http://www.w3.org/2000/svg" version="1.1" width="500px" height="500px" style="shape-rendering:geometricPrecision; text-rendering:geometricPrecision; image-rendering:optimizeQuality; fill-rule:evenodd; clip-rule:evenodd" xmlns:xlink="http://www.w3.org/1999/xlink">
<g><path style="opacity:0.055" fill="#cacbca" d="M 223.5,30.5 C 222.07,31.5375 220.403,32.2041 218.5,32.5C 219.635,30.7868 221.302,30.1201 223.5,30.5 Z"/></g>
<g><path style="opacity:0.349" fill="#a6a8a7" d="M 242.5,30.5 C 244.553,30.4021 246.22,31.0687 247.5,32.5C 245.447,32.5979 243.78,31.9313 242.5,30.5 Z"/></g>
<g><path style="opacity:0.145" fill="#c0c1c0" d="M 210.5,36.5 C 210.167,37.5 209.5,38.1667 208.5,38.5C 208.5,37.1667 209.167,36.5 210.5,36.5 Z"/></g>
<g><path style="opacity:1" fill="#282929" d="M 239.5,30.5 C 235.154,30.3343 230.821,30.501 226.5,31C 227.5,31.8333 228.5,32.6667 229.5,33.5C 229.306,35.0701 229.306,36.5701 229.5,38C 232.036,38.1862 234.369,38.6862 236.5,39.5C 221.234,38.7687 211.234,45.4354 206.5,59.5C 206.769,57.5714 206.269,55.9047 205,54.5C 203.538,56.7076 201.705,57.3742 199.5,56.5C 198.785,58.7871 198.451,60.9538 198.5,63C 200.932,64.0875 200.598,64.5875 197.5,64.5C 197.5,67.1667 197.5,69.8333 197.5,72.5C 194.828,61.7586 196.662,51.7586 203,42.5C 204.73,40.9236 206.563,39.5903 208.5,38.5C 209.5,38.1667 210.167,37.5 210.5,36.5C 212.579,34.127 215.246,32.7936 218.5,32.5C 220.403,32.2041 222.07,31.5375 223.5,30.5C 228.964,29.2433 234.297,29.2433 239.5,30.5 Z"/></g>
<g><path style="opacity:0.545" fill="#a1a2a1" d="M 260.5,42.5 C 261.906,42.9731 262.573,43.9731 262.5,45.5C 261.094,45.0269 260.427,44.0269 260.5,42.5 Z"/></g>
<g><path style="opacity:1" fill="#1a1c1b" d="M 239.5,30.5 C 240.5,30.5 241.5,30.5 242.5,30.5C 243.78,31.9313 245.447,32.5979 247.5,32.5C 252.743,34.6249 257.077,37.9582 260.5,42.5C 260.427,44.0269 261.094,45.0269 262.5,45.5C 267.009,50.6605 270.009,56.6605 271.5,63.5C 272.506,68.9286 273.506,74.2619 274.5,79.5C 275.434,80.5676 275.768,81.901 275.5,83.5C 274.732,84.2625 274.232,85.2625 274,86.5C 272.458,84.6961 270.791,83.0294 269,81.5C 268.333,82.1667 267.667,82.8333 267,83.5C 266.501,87.1516 266.335,90.8183 266.5,94.5C 265.649,88.6603 264.982,82.6603 264.5,76.5C 264.663,74.1432 264.497,71.8098 264,69.5C 263.617,68.944 263.117,68.6107 262.5,68.5C 261.681,66.2278 261.015,63.8945 260.5,61.5C 260.771,59.6203 260.104,58.287 258.5,57.5C 258.715,55.8212 258.048,54.8212 256.5,54.5C 256.5,54.1667 256.5,53.8333 256.5,53.5C 256.573,51.9731 255.906,50.9731 254.5,50.5C 251.677,48.177 249.01,45.677 246.5,43C 243.15,41.5137 239.816,40.347 236.5,39.5C 234.369,38.6862 232.036,38.1862 229.5,38C 229.306,36.5701 229.306,35.0701 229.5,33.5C 228.5,32.6667 227.5,31.8333 226.5,31C 230.821,30.501 235.154,30.3343 239.5,30.5 Z"/></g>
<g><path style="opacity:0.094" fill="#9a9f9f" d="M 254.5,50.5 C 255.906,50.9731 256.573,51.9731 256.5,53.5C 255.094,53.0269 254.427,52.0269 254.5,50.5 Z"/></g>
<g><path style="opacity:0.608" fill="#909191" d="M 256.5,54.5 C 258.048,54.8212 258.715,55.8212 258.5,57.5C 257.599,56.7095 256.932,55.7095 256.5,54.5 Z"/></g>
<g><path style="opacity:0.278" fill="#898a89" d="M 258.5,57.5 C 260.104,58.287 260.771,59.6203 260.5,61.5C 259.326,60.4863 258.66,59.153 258.5,57.5 Z"/></g>
<g><path style="opacity:0.998" fill="#1a1b1b" d="M 193.5,83.5 C 192.85,85.4352 192.517,87.4352 192.5,89.5C 190.784,89.6287 189.117,89.962 187.5,90.5C 186.833,90.1667 186.167,89.8333 185.5,89.5C 182.17,80.1703 175.837,73.8369 166.5,70.5C 164.71,69.0027 162.544,68.336 160,68.5C 158.293,68.5085 156.793,68.8418 155.5,69.5C 152.924,70.4878 150.257,71.4878 147.5,72.5C 145.5,72.5 143.5,72.5 141.5,72.5C 141.5,73.5 141.5,74.5 141.5,75.5C 140.5,75.5 139.5,75.5 138.5,75.5C 138.762,78.9209 137.428,79.9209 134.5,78.5C 133.086,79.624 131.586,80.624 130,81.5C 129.333,80.1667 129.333,78.8333 130,77.5C 132.238,75.6909 133.405,73.3576 133.5,70.5C 137.828,65.7658 143.161,62.5991 149.5,61C 170.194,56.8871 184.861,64.3871 193.5,83.5 Z"/></g>
<g><path style="opacity:0.467" fill="#6d6d6d" d="M 271.5,63.5 C 273.946,68.4213 274.946,73.7546 274.5,79.5C 273.506,74.2619 272.506,68.9286 271.5,63.5 Z"/></g>
<g><path style="opacity:0.518" fill="#646666" d="M 155.5,69.5 C 156.793,68.8418 158.293,68.5085 160,68.5C 162.544,68.336 164.71,69.0027 166.5,70.5C 162.881,69.7564 159.215,69.423 155.5,69.5 Z"/></g>
<g><path style="opacity:1" fill="#1b1d1c" d="M 206.5,59.5 C 206.5,62.5 206.5,65.5 206.5,68.5C 206.259,70.8984 206.926,72.8984 208.5,74.5C 208.427,76.0269 209.094,77.0269 210.5,77.5C 210.5,79.5 211.5,80.5 213.5,80.5C 215.23,81.0256 216.564,82.0256 217.5,83.5C 216.504,83.4142 215.671,83.7476 215,84.5C 214.667,85.8333 214.333,87.1667 214,88.5C 213.743,86.705 213.077,84.705 212,82.5C 211.5,83.6667 210.667,84.5 209.5,85C 210.458,86.1475 210.125,87.1475 208.5,88C 209.71,89.0391 210.71,90.2058 211.5,91.5C 204.159,87.1574 199.493,80.8241 197.5,72.5C 197.5,69.8333 197.5,67.1667 197.5,64.5C 200.598,64.5875 200.932,64.0875 198.5,63C 198.451,60.9538 198.785,58.7871 199.5,56.5C 201.705,57.3742 203.538,56.7076 205,54.5C 206.269,55.9047 206.769,57.5714 206.5,59.5 Z"/></g>
<g><path style="opacity:1" fill="#171919" d="M 333.5,61.5 C 337.853,61.8461 341.52,63.5128 344.5,66.5C 344.5,67.5 344.5,68.5 344.5,69.5C 345.5,69.5 346.5,69.5 347.5,69.5C 348.157,72.0101 349.491,74.1768 351.5,76C 350.863,77.7126 349.863,77.8793 348.5,76.5C 347.522,76.9767 346.689,77.6433 346,78.5C 346.656,74.2208 344.822,72.8875 340.5,74.5C 334.857,71.6198 328.857,69.9532 322.5,69.5C 321.325,69.719 320.325,69.3857 319.5,68.5C 319.623,66.6225 319.623,64.7891 319.5,63C 318.5,62.6667 317.5,62.3333 316.5,62C 322.157,61.5006 327.824,61.3339 333.5,61.5 Z"/></g>
<g><path style="opacity:0.569" fill="#818281" d="M 262.5,68.5 C 263.117,68.6107 263.617,68.944 264,69.5C 264.497,71.8098 264.663,74.1432 264.5,76.5C 263.629,73.997 262.963,71.3303 262.5,68.5 Z"/></g>
<g><path style="opacity:0.686" fill="#939493" d="M 206.5,68.5 C 207.738,70.2143 208.405,72.2143 208.5,74.5C 206.926,72.8984 206.259,70.8984 206.5,68.5 Z"/></g>
<g><path style="opacity:0.125" fill="#dddedd" d="M 253.5,74.5 C 251.379,74.3253 249.379,74.6586 247.5,75.5C 247.97,74.3065 248.97,73.6399 250.5,73.5C 251.726,73.5195 252.726,73.8529 253.5,74.5 Z"/></g>
<g><path style="opacity:0.118" fill="#d7dcd7" d="M 247.5,75.5 C 247.167,76.5 246.5,77.1667 245.5,77.5C 245.5,76.1667 246.167,75.5 247.5,75.5 Z"/></g>
<g><path style="opacity:0.188" fill="#a5a5a5" d="M 208.5,74.5 C 209.906,74.9731 210.573,75.9731 210.5,77.5C 209.094,77.0269 208.427,76.0269 208.5,74.5 Z"/></g>
<g><path style="opacity:0.129" fill="#c8caca" d="M 253.5,74.5 C 254.993,75.3121 255.66,76.6455 255.5,78.5C 255.48,79.7261 255.147,80.7261 254.5,81.5C 254.552,79.0971 254.219,76.7638 253.5,74.5 Z"/></g>
<g><path style="opacity:0.133" fill="#d1d5d5" d="M 245.5,77.5 C 245.167,78.5 244.5,79.1667 243.5,79.5C 243.5,78.1667 244.167,77.5 245.5,77.5 Z"/></g>
<g><path style="opacity:0.404" fill="#9a9b9b" d="M 210.5,77.5 C 211.833,78.1667 212.833,79.1667 213.5,80.5C 211.5,80.5 210.5,79.5 210.5,77.5 Z"/></g>
<g><path style="opacity:0.518" fill="#8b8c8c" d="M 243.5,79.5 C 243.027,80.9063 242.027,81.573 240.5,81.5C 240.973,80.0937 241.973,79.427 243.5,79.5 Z"/></g>
<g><path style="opacity:1" fill="#2f3130" d="M 133.5,70.5 C 133.405,73.3576 132.238,75.6909 130,77.5C 129.333,78.8333 129.333,80.1667 130,81.5C 131.586,80.624 133.086,79.624 134.5,78.5C 137.428,79.9209 138.762,78.9209 138.5,75.5C 139.5,75.5 140.5,75.5 141.5,75.5C 141.5,74.5 141.5,73.5 141.5,72.5C 143.5,72.5 145.5,72.5 147.5,72.5C 143.543,75.1218 139.876,78.1218 136.5,81.5C 136.167,81.5 135.833,81.5 135.5,81.5C 132.155,81.3256 130.988,82.659 132,85.5C 130.315,83.9825 128.815,82.3159 127.5,80.5C 127.094,81.5575 127.094,82.8908 127.5,84.5C 126.5,84.5 125.5,84.5 124.5,84.5C 125.889,78.7816 128.889,74.1149 133.5,70.5 Z"/></g>
<g><path style="opacity:0.145" fill="#bababa" d="M 135.5,81.5 C 135.833,81.5 136.167,81.5 136.5,81.5C 136.573,83.0269 135.906,84.0269 134.5,84.5C 134.557,83.391 134.89,82.391 135.5,81.5 Z"/></g>
<g><path style="opacity:0.988" fill="#686a69" d="M 240.5,81.5 C 240.013,82.4734 239.513,83.4734 239,84.5C 237.701,84.0338 236.201,84.0338 234.5,84.5C 236.181,82.9925 238.181,81.9925 240.5,81.5 Z"/></g>
<g><path style="opacity:1" fill="#181a1a" d="M 253.5,74.5 C 254.219,76.7638 254.552,79.0971 254.5,81.5C 252.1,84.9031 249.1,87.5698 245.5,89.5C 243.973,89.427 242.973,90.0937 242.5,91.5C 242.167,91.5 241.833,91.5 241.5,91.5C 239.597,91.7959 237.93,92.4625 236.5,93.5C 235.292,94.2341 233.959,94.5674 232.5,94.5C 229.642,93.834 226.642,93.1674 223.5,92.5C 222.359,91.5745 222.359,90.7412 223.5,90C 222.552,89.5172 221.552,89.3505 220.5,89.5C 220.64,87.8762 219.973,86.7096 218.5,86C 218.833,85.6667 219.167,85.3333 219.5,85C 218.584,84.7216 217.918,84.2216 217.5,83.5C 223.121,84.3537 228.788,84.687 234.5,84.5C 236.201,84.0338 237.701,84.0338 239,84.5C 239.513,83.4734 240.013,82.4734 240.5,81.5C 242.027,81.573 243.027,80.9063 243.5,79.5C 244.5,79.1667 245.167,78.5 245.5,77.5C 246.5,77.1667 247.167,76.5 247.5,75.5C 249.379,74.6586 251.379,74.3253 253.5,74.5 Z"/></g>
<g><path style="opacity:1" fill="#1b1d1c" d="M 333.5,61.5 C 327.824,61.3339 322.157,61.5006 316.5,62C 317.5,62.3333 318.5,62.6667 319.5,63C 319.623,64.7891 319.623,66.6225 319.5,68.5C 320.325,69.3857 321.325,69.719 322.5,69.5C 313.866,71.7914 307.199,76.7914 302.5,84.5C 301.326,85.5137 300.66,86.847 300.5,88.5C 300.5,88.8333 300.5,89.1667 300.5,89.5C 298.713,92.4089 298.379,95.4089 299.5,98.5C 300.167,100.833 300.833,103.167 301.5,105.5C 301.502,107.831 300.669,109.831 299,111.5C 297.513,110.747 297.346,109.914 298.5,109C 297.167,109 295.833,109 294.5,109C 294.833,108.667 295.167,108.333 295.5,108C 293.635,107.036 291.968,105.869 290.5,104.5C 287.857,83.613 296.19,69.113 315.5,61C 321.681,60.1808 327.681,60.3475 333.5,61.5 Z"/></g>
<g><path style="opacity:0.243" fill="#b2b3b2" d="M 134.5,84.5 C 134.598,86.5529 133.931,88.2196 132.5,89.5C 132.402,87.4471 133.069,85.7804 134.5,84.5 Z"/></g>
<g><path style="opacity:0.165" fill="#a3a4a3" d="M 302.5,84.5 C 302.771,86.3797 302.104,87.713 300.5,88.5C 300.66,86.847 301.326,85.5137 302.5,84.5 Z"/></g>
<g><path style="opacity:0.998" fill="#212322" d="M 344.5,66.5 C 356.532,73.1771 362.866,83.5105 363.5,97.5C 362.732,96.7375 362.232,95.7375 362,94.5C 360.212,97.5963 357.712,98.2629 354.5,96.5C 354.813,100.042 354.479,103.375 353.5,106.5C 353.93,99.9729 353.096,93.6396 351,87.5C 348.073,82.7359 344.573,78.4025 340.5,74.5C 344.822,72.8875 346.656,74.2208 346,78.5C 346.689,77.6433 347.522,76.9767 348.5,76.5C 349.863,77.8793 350.863,77.7126 351.5,76C 349.491,74.1768 348.157,72.0101 347.5,69.5C 346.5,69.5 345.5,69.5 344.5,69.5C 344.5,68.5 344.5,67.5 344.5,66.5 Z"/></g>
<g><path style="opacity:0.004" fill="#d3d7d4" d="M 185.5,89.5 C 186.167,89.8333 186.833,90.1667 187.5,90.5C 187.5,90.8333 187.5,91.1667 187.5,91.5C 186.167,91.5 185.5,90.8333 185.5,89.5 Z"/></g>
<g><path style="opacity:0.004" fill="#d8d8d8" d="M 245.5,89.5 C 245.027,90.9063 244.027,91.573 242.5,91.5C 242.973,90.0937 243.973,89.427 245.5,89.5 Z"/></g>
<g><path style="opacity:0.004" fill="#d3d4d4" d="M 241.5,91.5 C 240.365,93.2132 238.698,93.8799 236.5,93.5C 237.93,92.4625 239.597,91.7959 241.5,91.5 Z"/></g>
<g><path style="opacity:0.235" fill="#878787" d="M 211.5,91.5 C 213.256,92.5521 213.923,94.2188 213.5,96.5C 212.691,94.9724 212.024,93.3057 211.5,91.5 Z"/></g>
<g><path style="opacity:1" fill="#1c1e1d" d="M 275.5,83.5 C 276.819,94.4019 276.819,105.402 275.5,116.5C 274.732,117.263 274.232,118.263 274,119.5C 273.501,123.152 273.335,126.818 273.5,130.5C 273.768,132.099 273.434,133.432 272.5,134.5C 271.288,136.554 269.621,136.554 267.5,134.5C 266.682,131.893 266.182,129.226 266,126.5C 265.667,127.5 265.333,128.5 265,129.5C 264.505,127.527 264.338,125.527 264.5,123.5C 265.432,113.859 266.098,104.192 266.5,94.5C 266.335,90.8183 266.501,87.1516 267,83.5C 267.667,82.8333 268.333,82.1667 269,81.5C 270.791,83.0294 272.458,84.6961 274,86.5C 274.232,85.2625 274.732,84.2625 275.5,83.5 Z"/></g>
<g><path style="opacity:1" fill="#1b1d1d" d="M 135.5,81.5 C 134.89,82.391 134.557,83.391 134.5,84.5C 133.069,85.7804 132.402,87.4471 132.5,89.5C 130.229,99.9194 133.229,108.253 141.5,114.5C 142.635,115.474 143.635,116.641 144.5,118C 142.956,118.29 141.623,118.956 140.5,120C 142.332,120.748 143.999,121.748 145.5,123C 141.679,122.934 137.679,122.101 133.5,120.5C 133.027,119.094 132.027,118.427 130.5,118.5C 129.026,117.564 128.026,116.23 127.5,114.5C 127.573,112.973 126.906,111.973 125.5,111.5C 123.001,106.953 122.001,101.953 122.5,96.5C 122.667,93.1667 122.833,89.8333 123,86.5C 123.278,85.5842 123.778,84.9175 124.5,84.5C 125.5,84.5 126.5,84.5 127.5,84.5C 127.094,82.8908 127.094,81.5575 127.5,80.5C 128.815,82.3159 130.315,83.9825 132,85.5C 130.988,82.659 132.155,81.3256 135.5,81.5 Z"/></g>
<g><path style="opacity:0.475" fill="#999b9a" d="M 300.5,89.5 C 300.296,92.5176 299.963,95.5176 299.5,98.5C 298.379,95.4089 298.713,92.4089 300.5,89.5 Z"/></g>
<g><path style="opacity:1" fill="#202221" d="M 193.5,83.5 C 198.825,93.7784 202.159,104.778 203.5,116.5C 202.842,115.602 202.176,114.602 201.5,113.5C 198.553,114.781 196.219,116.781 194.5,119.5C 195.376,120.251 196.376,120.751 197.5,121C 195.679,123.456 195.012,126.289 195.5,129.5C 193.889,116.653 191.223,103.986 187.5,91.5C 187.5,91.1667 187.5,90.8333 187.5,90.5C 189.117,89.962 190.784,89.6287 192.5,89.5C 192.517,87.4352 192.85,85.4352 193.5,83.5 Z"/></g>
<g><path style="opacity:1" fill="#1c1d1d" d="M 217.5,83.5 C 217.918,84.2216 218.584,84.7216 219.5,85C 219.167,85.3333 218.833,85.6667 218.5,86C 219.973,86.7096 220.64,87.8762 220.5,89.5C 221.552,89.3505 222.552,89.5172 223.5,90C 222.359,90.7412 222.359,91.5745 223.5,92.5C 226.642,93.1674 229.642,93.834 232.5,94.5C 229.713,95.4767 226.713,95.81 223.5,95.5C 224.102,108.508 222.768,121.175 219.5,133.5C 218.801,131.444 217.801,129.444 216.5,127.5C 216.709,126.914 217.043,126.414 217.5,126C 215.887,125.911 214.72,126.745 214,128.5C 213.383,127.551 213.549,126.718 214.5,126C 213.309,125.302 212.309,124.469 211.5,123.5C 212.962,114.567 213.629,105.567 213.5,96.5C 213.923,94.2188 213.256,92.5521 211.5,91.5C 210.71,90.2058 209.71,89.0391 208.5,88C 210.125,87.1475 210.458,86.1475 209.5,85C 210.667,84.5 211.5,83.6667 212,82.5C 213.077,84.705 213.743,86.705 214,88.5C 214.333,87.1667 214.667,85.8333 215,84.5C 215.671,83.7476 216.504,83.4142 217.5,83.5 Z"/></g>
<g><path style="opacity:0.188" fill="#9a9b9a" d="M 171.5,104.5 C 171.573,106.027 170.906,107.027 169.5,107.5C 169.427,105.973 170.094,104.973 171.5,104.5 Z"/></g>
<g><path style="opacity:0.467" fill="#afafaf" d="M 168.5,109.5 C 168.027,110.906 167.027,111.573 165.5,111.5C 165.973,110.094 166.973,109.427 168.5,109.5 Z"/></g>
<g><path style="opacity:0.424" fill="#aaaaaa" d="M 336.5,109.5 C 336.027,110.906 335.027,111.573 333.5,111.5C 333.973,110.094 334.973,109.427 336.5,109.5 Z"/></g>
<g><path style="opacity:0.267" fill="#b5b6b6" d="M 333.5,111.5 C 332.341,113.25 330.674,114.25 328.5,114.5C 329.659,112.75 331.326,111.75 333.5,111.5 Z"/></g>
<g><path style="opacity:0.071" fill="#b3b6b5" d="M 125.5,111.5 C 126.906,111.973 127.573,112.973 127.5,114.5C 126.094,114.027 125.427,113.027 125.5,111.5 Z"/></g>
<g><path style="opacity:0.996" fill="#616462" d="M 165.5,111.5 C 164.256,114.543 161.923,115.876 158.5,115.5C 160.791,114.235 163.125,112.902 165.5,111.5 Z"/></g>
<g><path style="opacity:0.286" fill="#7d7f7e" d="M 363.5,109.5 C 363.324,112.727 362.657,115.727 361.5,118.5C 361.215,115.171 361.882,112.171 363.5,109.5 Z"/></g>
<g><path style="opacity:0.639" fill="#7b7d7c" d="M 158.5,115.5 C 158.082,116.222 157.416,116.722 156.5,117C 153.854,117.497 151.187,117.664 148.5,117.5C 148.5,117.167 148.5,116.833 148.5,116.5C 151.881,116.54 155.214,116.207 158.5,115.5 Z"/></g>
<g><path style="opacity:1" fill="#181a1a" d="M 170.5,119.5 C 168.973,119.427 167.973,120.094 167.5,121.5C 167.158,122.338 166.492,122.672 165.5,122.5C 164.417,122.461 163.417,122.127 162.5,121.5C 161.212,123.475 159.545,123.475 157.5,121.5C 156.614,122.325 156.281,123.325 156.5,124.5C 155.167,124.5 153.833,124.5 152.5,124.5C 152.5,122.5 152.5,120.5 152.5,118.5C 150.233,118.854 148.899,118.521 148.5,117.5C 151.187,117.664 153.854,117.497 156.5,117C 157.416,116.722 158.082,116.222 158.5,115.5C 161.923,115.876 164.256,114.543 165.5,111.5C 167.027,111.573 168.027,110.906 168.5,109.5C 168.328,108.508 168.662,107.842 169.5,107.5C 170.906,107.027 171.573,106.027 171.5,104.5C 172.884,100.539 175.551,99.5394 179.5,101.5C 181.025,109.67 178.025,115.67 170.5,119.5 Z"/></g>
<g><path style="opacity:0.349" fill="#6b6c6b" d="M 352.5,115.5 C 352.745,118.865 352.078,122.032 350.5,125C 351.754,126.953 351.087,128.12 348.5,128.5C 349.61,123.985 350.944,119.652 352.5,115.5 Z"/></g>
<g><path style="opacity:1" fill="#101211" d="M 363.5,97.5 C 363.5,101.5 363.5,105.5 363.5,109.5C 361.882,112.171 361.215,115.171 361.5,118.5C 361.5,118.833 361.5,119.167 361.5,119.5C 359.837,121.438 359.171,123.772 359.5,126.5C 356.57,125.213 354.237,125.713 352.5,128C 353.956,128.423 354.456,129.256 354,130.5C 352.182,128.355 350.682,128.355 349.5,130.5C 348.702,130.043 348.369,129.376 348.5,128.5C 351.087,128.12 351.754,126.953 350.5,125C 352.078,122.032 352.745,118.865 352.5,115.5C 353.159,112.545 353.492,109.545 353.5,106.5C 354.479,103.375 354.813,100.042 354.5,96.5C 357.712,98.2629 360.212,97.5963 362,94.5C 362.232,95.7375 362.732,96.7375 363.5,97.5 Z"/></g>
<g><path style="opacity:0.224" fill="#9fa09f" d="M 130.5,118.5 C 132.027,118.427 133.027,119.094 133.5,120.5C 131.973,120.573 130.973,119.906 130.5,118.5 Z"/></g>
<g><path style="opacity:0.114" fill="#989a99" d="M 292.5,117.5 C 292.34,119.153 291.674,120.486 290.5,121.5C 290.229,119.62 290.896,118.287 292.5,117.5 Z"/></g>
<g><path style="opacity:1" fill="#1d1f1e" d="M 338.5,119.5 C 336.973,119.427 335.973,120.094 335.5,121.5C 333.62,121.229 332.287,121.896 331.5,123.5C 321.389,126.402 311.389,125.735 301.5,121.5C 300.733,120.828 300.066,119.995 299.5,119C 301.785,116.2 304.452,114.033 307.5,112.5C 314.249,115.232 321.249,115.899 328.5,114.5C 330.674,114.25 332.341,113.25 333.5,111.5C 335.027,111.573 336.027,110.906 336.5,109.5C 339.217,106.855 342.05,106.855 345,109.5C 345.564,114.463 343.397,117.797 338.5,119.5 Z"/></g>
<g><path style="opacity:0.016" fill="#b6b6b6" d="M 170.5,119.5 C 170.027,120.906 169.027,121.573 167.5,121.5C 167.973,120.094 168.973,119.427 170.5,119.5 Z"/></g>
<g><path style="opacity:0.008" fill="#b6b7b6" d="M 338.5,119.5 C 338.027,120.906 337.027,121.573 335.5,121.5C 335.973,120.094 336.973,119.427 338.5,119.5 Z"/></g>
<g><path style="opacity:0.226" fill="#acaead" d="M 101.5,123.5 C 105.981,122.352 110.648,122.185 115.5,123C 116.416,123.278 117.082,123.778 117.5,124.5C 112.213,123.658 106.88,123.324 101.5,123.5 Z"/></g>
<g><path style="opacity:0.449" fill="#737574" d="M 275.5,116.5 C 275.089,121.338 274.422,126.005 273.5,130.5C 273.335,126.818 273.501,123.152 274,119.5C 274.232,118.263 274.732,117.263 275.5,116.5 Z"/></g>
<g><path style="opacity:0.008" fill="#bebfbe" d="M 335.5,121.5 C 334.486,122.674 333.153,123.34 331.5,123.5C 332.287,121.896 333.62,121.229 335.5,121.5 Z"/></g>
<g><path style="opacity:0.549" fill="#7d7e7e" d="M 361.5,119.5 C 361.279,122.067 360.612,124.401 359.5,126.5C 359.171,123.772 359.837,121.438 361.5,119.5 Z"/></g>
<g><path style="opacity:1" fill="#202221" d="M 290.5,104.5 C 291.968,105.869 293.635,107.036 295.5,108C 295.167,108.333 294.833,108.667 294.5,109C 295.833,109 297.167,109 298.5,109C 297.346,109.914 297.513,110.747 299,111.5C 300.669,109.831 301.502,107.831 301.5,105.5C 302.8,108.432 304.8,110.766 307.5,112.5C 304.452,114.033 301.785,116.2 299.5,119C 300.066,119.995 300.733,120.828 301.5,121.5C 299.377,127.616 296.044,132.949 291.5,137.5C 290.094,137.973 289.427,138.973 289.5,140.5C 285.557,146.142 280.223,149.809 273.5,151.5C 265.842,149.677 262.175,144.844 262.5,137C 263.022,132.335 263.689,127.835 264.5,123.5C 264.338,125.527 264.505,127.527 265,129.5C 265.333,128.5 265.667,127.5 266,126.5C 266.182,129.226 266.682,131.893 267.5,134.5C 269.621,136.554 271.288,136.554 272.5,134.5C 272.051,136.977 272.717,138.977 274.5,140.5C 277.511,138.804 280.177,136.804 282.5,134.5C 283.906,134.027 284.573,133.027 284.5,131.5C 286.727,130.599 287.727,128.933 287.5,126.5C 288.047,124.515 289.047,122.849 290.5,121.5C 291.674,120.486 292.34,119.153 292.5,117.5C 292.519,115.94 292.852,114.44 293.5,113C 292.061,110.295 291.061,107.462 290.5,104.5 Z"/></g>
<g><path style="opacity:0.518" fill="#9d9d9d" d="M 287.5,126.5 C 287.727,128.933 286.727,130.599 284.5,131.5C 285.11,129.566 286.11,127.899 287.5,126.5 Z"/></g>
<g><path style="opacity:0.282" fill="#a0a2a2" d="M 284.5,131.5 C 284.573,133.027 283.906,134.027 282.5,134.5C 282.427,132.973 283.094,131.973 284.5,131.5 Z"/></g>
<g><path style="opacity:0.529" fill="#9fa09f" d="M 86.5,134.5 C 86.573,136.027 85.9063,137.027 84.5,137.5C 84.427,135.973 85.0937,134.973 86.5,134.5 Z"/></g>
<g><path style="opacity:1" fill="#1c1e1e" d="M 101.5,123.5 C 106.88,123.324 112.213,123.658 117.5,124.5C 126.611,127.277 133.278,132.943 137.5,141.5C 137.427,143.027 138.094,144.027 139.5,144.5C 142.306,150.236 145.306,155.903 148.5,161.5C 147.141,160.993 146.141,159.993 145.5,158.5C 143.633,161.229 142.633,160.896 142.5,157.5C 141.127,157.343 139.793,157.51 138.5,158C 139.167,158.333 139.833,158.667 140.5,159C 138.881,159.236 137.881,160.069 137.5,161.5C 134.582,156.667 131.916,151.667 129.5,146.5C 129.573,144.973 128.906,143.973 127.5,143.5C 126.167,142.167 124.833,140.833 123.5,139.5C 123.5,137.5 122.5,136.5 120.5,136.5C 120.027,135.094 119.027,134.427 117.5,134.5C 109.82,131.167 102.82,132.167 96.5,137.5C 95.1667,137.5 94.5,138.167 94.5,139.5C 90.0674,145.69 88.0674,152.69 88.5,160.5C 86.8273,153.948 85.1606,147.614 83.5,141.5C 83.5,140.833 83.5,140.167 83.5,139.5C 83.3284,138.508 83.6618,137.842 84.5,137.5C 85.9063,137.027 86.573,136.027 86.5,134.5C 89.8194,128.661 94.8194,124.995 101.5,123.5 Z"/></g>
<g><path style="opacity:0.051" fill="#cecfce" d="M 117.5,134.5 C 119.027,134.427 120.027,135.094 120.5,136.5C 118.973,136.573 117.973,135.906 117.5,134.5 Z"/></g>
<g><path style="opacity:0.192" fill="#969696" d="M 144.5,132.5 C 145.931,133.78 146.598,135.447 146.5,137.5C 145.069,136.22 144.402,134.553 144.5,132.5 Z"/></g>
<g><path style="opacity:0.992" fill="#494b4a" d="M 154.5,132.5 C 156.419,136.857 157.419,141.523 157.5,146.5C 156.714,142.908 155.381,139.408 153.5,136C 153.989,134.862 154.322,133.695 154.5,132.5 Z"/></g>
<g><path style="opacity:1" fill="#1b1d1c" d="M 203.5,116.5 C 204.323,122.951 205.657,129.285 207.5,135.5C 208.077,136.773 208.743,136.773 209.5,135.5C 210.309,133.929 210.643,132.262 210.5,130.5C 210.448,128.097 210.781,125.764 211.5,123.5C 212.309,124.469 213.309,125.302 214.5,126C 213.549,126.718 213.383,127.551 214,128.5C 214.72,126.745 215.887,125.911 217.5,126C 217.043,126.414 216.709,126.914 216.5,127.5C 217.801,129.444 218.801,131.444 219.5,133.5C 218.373,143.66 213.04,147.326 203.5,144.5C 203.19,142.856 202.19,141.856 200.5,141.5C 197.334,138.225 195.668,134.225 195.5,129.5C 195.012,126.289 195.679,123.456 197.5,121C 196.376,120.751 195.376,120.251 194.5,119.5C 196.219,116.781 198.553,114.781 201.5,113.5C 202.176,114.602 202.842,115.602 203.5,116.5 Z"/></g>
<g><path style="opacity:0.478" fill="#898c8b" d="M 210.5,130.5 C 210.643,132.262 210.309,133.929 209.5,135.5C 208.743,136.773 208.077,136.773 207.5,135.5C 208.687,133.928 209.687,132.261 210.5,130.5 Z"/></g>
<g><path style="opacity:0.239" fill="#b1b5b5" d="M 120.5,136.5 C 122.5,136.5 123.5,137.5 123.5,139.5C 122.167,138.833 121.167,137.833 120.5,136.5 Z"/></g>
<g><path style="opacity:0.027" fill="#cddede" d="M 96.5,137.5 C 96.1667,138.5 95.5,139.167 94.5,139.5C 94.5,138.167 95.1667,137.5 96.5,137.5 Z"/></g>
<g><path style="opacity:0.024" fill="#bcbdbd" d="M 291.5,137.5 C 291.573,139.027 290.906,140.027 289.5,140.5C 289.427,138.973 290.094,137.973 291.5,137.5 Z"/></g>
<g><path style="opacity:0.204" fill="#a2a4a3" d="M 146.5,139.5 C 147.738,141.214 148.405,143.214 148.5,145.5C 146.926,143.898 146.259,141.898 146.5,139.5 Z"/></g>
<g><path style="opacity:0.231" fill="#a0a0a0" d="M 83.5,139.5 C 83.5,140.167 83.5,140.833 83.5,141.5C 82.8333,142.167 82.1667,142.833 81.5,143.5C 81.2291,141.62 81.8958,140.287 83.5,139.5 Z"/></g>
<g><path style="opacity:0.835" fill="#848585" d="M 200.5,141.5 C 202.19,141.856 203.19,142.856 203.5,144.5C 201.81,144.144 200.81,143.144 200.5,141.5 Z"/></g>
<g><path style="opacity:0.204" fill="#b8b8b8" d="M 137.5,141.5 C 138.906,141.973 139.573,142.973 139.5,144.5C 138.094,144.027 137.427,143.027 137.5,141.5 Z"/></g>
<g><path style="opacity:0.067" fill="#b7b6b7" d="M 127.5,143.5 C 128.906,143.973 129.573,144.973 129.5,146.5C 128.094,146.027 127.427,145.027 127.5,143.5 Z"/></g>
<g><path style="opacity:1" fill="#1f2120" d="M 359.5,126.5 C 357.75,133.087 355.417,139.42 352.5,145.5C 351.094,145.973 350.427,146.973 350.5,148.5C 349.322,152.879 347.988,157.212 346.5,161.5C 344.757,164.495 343.757,167.829 343.5,171.5C 342.365,180.617 341.365,189.617 340.5,198.5C 340.666,194.154 340.499,189.821 340,185.5C 339.751,186.624 339.251,187.624 338.5,188.5C 337.575,187.359 336.741,187.359 336,188.5C 335.846,191.525 334.346,193.191 331.5,193.5C 331.276,187.261 331.943,181.261 333.5,175.5C 334.302,174.048 334.802,172.382 335,170.5C 336.243,171.336 337.41,171.003 338.5,169.5C 337.726,168.289 336.893,168.289 336,169.5C 335.51,168.207 335.343,166.873 335.5,165.5C 335.517,163.435 335.85,161.435 336.5,159.5C 338.213,158.365 338.88,156.698 338.5,154.5C 341.263,145.535 344.596,136.868 348.5,128.5C 348.369,129.376 348.702,130.043 349.5,130.5C 350.682,128.355 352.182,128.355 354,130.5C 354.456,129.256 353.956,128.423 352.5,128C 354.237,125.713 356.57,125.213 359.5,126.5 Z"/></g>
<g><path style="opacity:0.024" fill="#adaeae" d="M 352.5,145.5 C 352.573,147.027 351.906,148.027 350.5,148.5C 350.427,146.973 351.094,145.973 352.5,145.5 Z"/></g>
<g><path style="opacity:0.999" fill="#1b1d1d" d="M 83.5,141.5 C 85.1606,147.614 86.8273,153.948 88.5,160.5C 89.1667,162.167 89.8333,163.833 90.5,165.5C 90.2852,167.179 90.9519,168.179 92.5,168.5C 94.5248,170.196 96.5248,171.863 98.5,173.5C 96.6214,173.393 96.2881,173.893 97.5,175C 96.6872,176.314 95.6872,177.481 94.5,178.5C 95.0253,179.192 95.6919,179.692 96.5,180C 95.244,180.417 94.5774,181.25 94.5,182.5C 79.0516,173.3 74.7183,160.3 81.5,143.5C 82.1667,142.833 82.8333,142.167 83.5,141.5 Z"/></g>
<g><path style="opacity:1" fill="#1a1b1b" d="M 141.5,114.5 C 143.833,115.167 146.167,115.833 148.5,116.5C 148.5,116.833 148.5,117.167 148.5,117.5C 148.899,118.521 150.233,118.854 152.5,118.5C 152.5,120.5 152.5,122.5 152.5,124.5C 153.833,124.5 155.167,124.5 156.5,124.5C 156.281,123.325 156.614,122.325 157.5,121.5C 159.545,123.475 161.212,123.475 162.5,121.5C 163.417,122.127 164.417,122.461 165.5,122.5C 161.787,124.435 157.787,125.768 153.5,126.5C 153.833,128.5 154.167,130.5 154.5,132.5C 154.322,133.695 153.989,134.862 153.5,136C 155.381,139.408 156.714,142.908 157.5,146.5C 159.717,153.328 159.883,160.328 158,167.5C 156.078,170.662 153.245,172.662 149.5,173.5C 148.14,172.82 146.807,172.153 145.5,171.5C 145.027,170.094 144.027,169.427 142.5,169.5C 140.05,167.371 138.383,164.704 137.5,161.5C 137.881,160.069 138.881,159.236 140.5,159C 139.833,158.667 139.167,158.333 138.5,158C 139.793,157.51 141.127,157.343 142.5,157.5C 142.633,160.896 143.633,161.229 145.5,158.5C 146.141,159.993 147.141,160.993 148.5,161.5C 148.56,162.043 148.893,162.376 149.5,162.5C 150.8,159.691 150.8,157.024 149.5,154.5C 148.523,151.713 148.19,148.713 148.5,145.5C 148.405,143.214 147.738,141.214 146.5,139.5C 146.5,138.833 146.5,138.167 146.5,137.5C 146.598,135.447 145.931,133.78 144.5,132.5C 143.68,130.188 142.847,127.854 142,125.5C 138.523,124.841 135.689,123.175 133.5,120.5C 137.679,122.101 141.679,122.934 145.5,123C 143.999,121.748 142.332,120.748 140.5,120C 141.623,118.956 142.956,118.29 144.5,118C 143.635,116.641 142.635,115.474 141.5,114.5 Z"/></g>
<g><path style="opacity:0.427" fill="#626463" d="M 149.5,154.5 C 150.8,157.024 150.8,159.691 149.5,162.5C 148.893,162.376 148.56,162.043 148.5,161.5C 149.468,159.393 149.802,157.059 149.5,154.5 Z"/></g>
<g><path style="opacity:0.486" fill="#a0a2a1" d="M 338.5,154.5 C 338.88,156.698 338.213,158.365 336.5,159.5C 336.796,157.597 337.463,155.93 338.5,154.5 Z"/></g>
<g><path style="opacity:0.118" fill="#aaaaaa" d="M 122.5,158.5 C 122.34,160.153 121.674,161.486 120.5,162.5C 120.229,160.62 120.896,159.287 122.5,158.5 Z"/></g>
<g><path style="opacity:0.612" fill="#9f9f9f" d="M 119.5,164.5 C 119.727,166.933 118.727,168.599 116.5,169.5C 117.11,167.566 118.11,165.899 119.5,164.5 Z"/></g>
<g><path style="opacity:0.016" fill="#b8b8b8" d="M 346.5,161.5 C 346.243,165.171 345.243,168.505 343.5,171.5C 343.757,167.829 344.757,164.495 346.5,161.5 Z"/></g>
<g><path style="opacity:0.051" fill="#c7c8c8" d="M 90.5,165.5 C 91.4013,166.29 92.0679,167.29 92.5,168.5C 90.9519,168.179 90.2852,167.179 90.5,165.5 Z"/></g>
<g><path style="opacity:1" fill="#494a4a" d="M 335.5,165.5 C 335.343,166.873 335.51,168.207 336,169.5C 336.893,168.289 337.726,168.289 338.5,169.5C 337.41,171.003 336.243,171.336 335,170.5C 334.802,172.382 334.302,174.048 333.5,175.5C 333.322,171.878 333.989,168.544 335.5,165.5 Z"/></g>
<g><path style="opacity:0.188" fill="#8e8e8e" d="M 116.5,169.5 C 115.738,171.262 114.404,172.262 112.5,172.5C 113.262,170.738 114.596,169.738 116.5,169.5 Z"/></g>
<g><path style="opacity:0.231" fill="#a0a3a0" d="M 142.5,169.5 C 144.027,169.427 145.027,170.094 145.5,171.5C 143.973,171.573 142.973,170.906 142.5,169.5 Z"/></g>
<g><path style="opacity:1" fill="#171918" d="M 109.5,182.5 C 107.908,181.398 107.075,182.065 107,184.5C 106,185.167 105,185.833 104,186.5C 103.751,185.376 103.251,184.376 102.5,183.5C 101.583,184.127 100.583,184.461 99.5,184.5C 99.0269,183.094 98.0269,182.427 96.5,182.5C 95.8333,182.5 95.1667,182.5 94.5,182.5C 94.5774,181.25 95.244,180.417 96.5,180C 95.6919,179.692 95.0253,179.192 94.5,178.5C 95.6872,177.481 96.6872,176.314 97.5,175C 96.2881,173.893 96.6214,173.393 98.5,173.5C 103.207,174.5 107.874,174.167 112.5,172.5C 114.404,172.262 115.738,171.262 116.5,169.5C 118.727,168.599 119.727,166.933 119.5,164.5C 119.833,163.833 120.167,163.167 120.5,162.5C 121.674,161.486 122.34,160.153 122.5,158.5C 125.452,156.977 127.952,157.644 130,160.5C 128.854,173.121 122.021,180.454 109.5,182.5 Z"/></g>
<g><path style="opacity:0.314" fill="#9a9c9c" d="M 96.5,182.5 C 98.0269,182.427 99.0269,183.094 99.5,184.5C 97.9731,184.573 96.9731,183.906 96.5,182.5 Z"/></g>
<g><path style="opacity:0.986" fill="#686a68" d="M 248.5,188.5 C 250.584,192.894 249.25,195.894 244.5,197.5C 245.582,195.661 246.415,193.661 247,191.5C 247.333,192.167 247.667,192.833 248,193.5C 248.494,191.866 248.66,190.199 248.5,188.5 Z"/></g>
<g><path style="opacity:0.988" fill="#282929" d="M 109.5,182.5 C 114.8,190.768 118.134,199.768 119.5,209.5C 118.505,206.335 116.505,205.335 113.5,206.5C 111.757,211.333 111.09,216.333 111.5,221.5C 110.642,215.983 109.809,210.317 109,204.5C 106.499,197.505 103.333,190.838 99.5,184.5C 100.583,184.461 101.583,184.127 102.5,183.5C 103.251,184.376 103.751,185.376 104,186.5C 105,185.833 106,185.167 107,184.5C 107.075,182.065 107.908,181.398 109.5,182.5 Z"/></g>
<g><path style="opacity:0.055" fill="#d5d5d5" d="M 226.5,198.5 C 226.167,199.5 225.5,200.167 224.5,200.5C 224.5,199.167 225.167,198.5 226.5,198.5 Z"/></g>
<g><path style="opacity:1" fill="#1e1f1f" d="M 248.5,188.5 C 248.66,190.199 248.494,191.866 248,193.5C 247.667,192.833 247.333,192.167 247,191.5C 246.415,193.661 245.582,195.661 244.5,197.5C 225.011,212.683 203.678,224.349 180.5,232.5C 178.302,232.12 176.635,232.787 175.5,234.5C 164.706,239.147 153.372,241.647 141.5,242C 138.92,239.456 138.92,236.956 141.5,234.5C 147.087,232.798 152.754,231.464 158.5,230.5C 160.153,230.34 161.486,229.674 162.5,228.5C 175.382,224.312 188.049,219.312 200.5,213.5C 202.38,213.771 203.713,213.104 204.5,211.5C 211.158,207.835 217.824,204.168 224.5,200.5C 225.5,200.167 226.167,199.5 226.5,198.5C 231.821,195.502 236.821,192.002 241.5,188C 244.039,187.204 246.372,187.371 248.5,188.5 Z"/></g>
<g><path style="opacity:1" fill="#1d1f1f" d="M 340.5,198.5 C 340.52,202.587 340.353,206.587 340,210.5C 349.523,199.521 360.69,197.521 373.5,204.5C 375.121,207.562 374.621,210.228 372,212.5C 370.651,209.93 369.484,209.93 368.5,212.5C 368.167,212.5 367.833,212.5 367.5,212.5C 366.22,211.069 364.553,210.402 362.5,210.5C 355.772,209.449 350.605,211.782 347,217.5C 343.119,225.119 341.952,233.119 343.5,241.5C 342.142,242.626 340.808,242.626 339.5,241.5C 340.025,240.808 340.692,240.308 341.5,240C 339.527,239.505 337.527,239.338 335.5,239.5C 335.371,241.216 335.038,242.883 334.5,244.5C 329.067,227.898 328.067,210.898 331.5,193.5C 334.346,193.191 335.846,191.525 336,188.5C 336.741,187.359 337.575,187.359 338.5,188.5C 339.251,187.624 339.751,186.624 340,185.5C 340.499,189.821 340.666,194.154 340.5,198.5 Z"/></g>
<g><path style="opacity:0.984" fill="#212322" d="M 373.5,204.5 C 375.372,205.511 377.372,206.345 379.5,207C 384.833,211 390.167,215 395.5,219C 400.066,222.064 403.733,225.898 406.5,230.5C 403.326,230.281 401.493,228.615 401,225.5C 400.072,223.665 398.906,223.332 397.5,224.5C 396.757,223.092 395.923,221.759 395,220.5C 394.667,221.167 394.333,221.833 394,222.5C 389.124,217.192 386.957,218.192 387.5,225.5C 384.982,224.076 382.649,222.409 380.5,220.5C 379.738,218.738 378.404,217.738 376.5,217.5C 375.508,217.672 374.842,217.338 374.5,216.5C 374.027,215.094 373.027,214.427 371.5,214.5C 369.973,214.573 368.973,213.906 368.5,212.5C 369.484,209.93 370.651,209.93 372,212.5C 374.621,210.228 375.121,207.562 373.5,204.5 Z"/></g>
<g><path style="opacity:0.078" fill="#b2b3b3" d="M 362.5,210.5 C 364.553,210.402 366.22,211.069 367.5,212.5C 365.447,212.598 363.78,211.931 362.5,210.5 Z"/></g>
<g><path style="opacity:0.216" fill="#a8a9a8" d="M 204.5,211.5 C 203.713,213.104 202.38,213.771 200.5,213.5C 201.514,212.326 202.847,211.66 204.5,211.5 Z"/></g>
<g><path style="opacity:0.102" fill="#bfbfbf" d="M 371.5,214.5 C 373.027,214.427 374.027,215.094 374.5,216.5C 372.973,216.573 371.973,215.906 371.5,214.5 Z"/></g>
<g><path style="opacity:0.58" fill="#a9aaa9" d="M 376.5,217.5 C 378.404,217.738 379.738,218.738 380.5,220.5C 378.596,220.262 377.262,219.262 376.5,217.5 Z"/></g>
<g><path style="opacity:1" fill="#1a1c1b" d="M 406.5,230.5 C 408.822,231.802 410.155,233.802 410.5,236.5C 410.229,238.38 410.896,239.713 412.5,240.5C 415.459,250.702 414.793,260.702 410.5,270.5C 408.824,271.183 408.157,272.517 408.5,274.5C 407.35,277.298 406.017,279.965 404.5,282.5C 403.312,283.684 402.145,283.684 401,282.5C 400.71,284.044 400.044,285.377 399,286.5C 399.984,284.402 399.651,282.402 398,280.5C 396.608,282.842 395.775,282.842 395.5,280.5C 396.11,279.609 396.443,278.609 396.5,277.5C 399.134,271.646 401.467,265.646 403.5,259.5C 405.569,255.956 405.902,252.29 404.5,248.5C 403.673,245.868 402.84,243.202 402,240.5C 399.928,238.272 398.095,235.939 396.5,233.5C 396.167,232.5 395.5,231.833 394.5,231.5C 394.167,230.5 393.5,229.833 392.5,229.5C 390.539,228.54 388.873,227.207 387.5,225.5C 386.957,218.192 389.124,217.192 394,222.5C 394.333,221.833 394.667,221.167 395,220.5C 395.923,221.759 396.757,223.092 397.5,224.5C 398.906,223.332 400.072,223.665 401,225.5C 401.493,228.615 403.326,230.281 406.5,230.5 Z"/></g>
<g><path style="opacity:0.514" fill="#9c9d9c" d="M 162.5,228.5 C 161.486,229.674 160.153,230.34 158.5,230.5C 159.287,228.896 160.62,228.229 162.5,228.5 Z"/></g>
<g><path style="opacity:0.012" fill="#c4c4c4" d="M 392.5,229.5 C 393.5,229.833 394.167,230.5 394.5,231.5C 393.167,231.5 392.5,230.833 392.5,229.5 Z"/></g>
<g><path style="opacity:0.404" fill="#878a88" d="M 180.5,232.5 C 179.07,233.537 177.403,234.204 175.5,234.5C 176.635,232.787 178.302,232.12 180.5,232.5 Z"/></g>
<g><path style="opacity:0.008" fill="#c7c8c8" d="M 394.5,231.5 C 395.5,231.833 396.167,232.5 396.5,233.5C 395.167,233.5 394.5,232.833 394.5,231.5 Z"/></g>
<g><path style="opacity:1" fill="#242625" d="M 256.5,248.5 C 255.386,247.115 254.386,245.615 253.5,244C 254.253,242.513 255.086,242.346 256,243.5C 257.734,242.751 259.567,242.251 261.5,242C 260.833,241.667 260.167,241.333 259.5,241C 263.281,240.633 263.948,239.3 261.5,237C 259.866,236.506 258.199,236.34 256.5,236.5C 261.6,232.44 266.933,228.607 272.5,225C 274.754,223.85 277.087,223.516 279.5,224C 282.241,227.242 281.908,230.242 278.5,233C 274.241,234.934 270.241,237.268 266.5,240C 263.588,243.419 260.254,246.252 256.5,248.5 Z"/></g>
<g><path style="opacity:0.129" fill="#b7b8b7" d="M 410.5,236.5 C 411.674,237.514 412.34,238.847 412.5,240.5C 410.896,239.713 410.229,238.38 410.5,236.5 Z"/></g>
<g><path style="opacity:0.969" fill="#464a49" d="M 256.5,236.5 C 256.279,237.735 255.612,238.735 254.5,239.5C 255.025,240.192 255.692,240.692 256.5,241C 253.849,241.153 251.516,241.987 249.5,243.5C 251.09,240.516 253.423,238.183 256.5,236.5 Z"/></g>
<g><path style="opacity:0.62" fill="#7f7f7f" d="M 249.5,243.5 C 248.5,245.167 247.167,246.5 245.5,247.5C 245.833,245.167 247.167,243.833 249.5,243.5 Z"/></g>
<g><path style="opacity:0.004" fill="#b7b9b8" d="M 346.5,250.5 C 347.833,250.5 348.5,251.167 348.5,252.5C 347.5,252.167 346.833,251.5 346.5,250.5 Z"/></g>
<g><path style="opacity:0.999" fill="#232524" d="M 119.5,209.5 C 120.21,211.746 120.71,214.08 121,216.5C 121.929,237.504 122.929,258.504 124,279.5C 125.27,288.564 126.77,297.564 128.5,306.5C 128.539,307.756 128.039,308.756 127,309.5C 125.26,308.284 124.26,306.618 124,304.5C 123.577,305.956 122.744,306.456 121.5,306C 122.747,304.506 122.747,303.006 121.5,301.5C 120.604,302.506 119.938,302.506 119.5,301.5C 120.5,300.833 121.5,300.167 122.5,299.5C 120.711,298.753 119.044,299.086 117.5,300.5C 115.165,290.101 113.665,279.434 113,268.5C 112.456,252.832 111.956,237.166 111.5,221.5C 111.09,216.333 111.757,211.333 113.5,206.5C 116.505,205.335 118.505,206.335 119.5,209.5 Z"/></g>
<g><path style="opacity:0.314" fill="#acaead" d="M 404.5,248.5 C 405.902,252.29 405.569,255.956 403.5,259.5C 404.114,255.865 404.448,252.198 404.5,248.5 Z"/></g>
<g><path style="opacity:0.349" fill="#9c9c9c" d="M 240.5,252.5 C 240.573,254.027 239.906,255.027 238.5,255.5C 238.427,253.973 239.094,252.973 240.5,252.5 Z"/></g>
<g><path style="opacity:0.604" fill="#878787" d="M 238.5,255.5 C 238.573,257.027 237.906,258.027 236.5,258.5C 236.427,256.973 237.094,255.973 238.5,255.5 Z"/></g>
<g><path style="opacity:1" fill="#181a19" d="M 256.5,236.5 C 258.199,236.34 259.866,236.506 261.5,237C 263.948,239.3 263.281,240.633 259.5,241C 260.167,241.333 260.833,241.667 261.5,242C 259.567,242.251 257.734,242.751 256,243.5C 255.086,242.346 254.253,242.513 253.5,244C 254.386,245.615 255.386,247.115 256.5,248.5C 253.391,252.397 250.057,256.064 246.5,259.5C 245.094,259.973 244.427,260.973 244.5,262.5C 243.094,262.973 242.427,263.973 242.5,265.5C 242.5,266.167 242.167,266.5 241.5,266.5C 241.44,265.957 241.107,265.624 240.5,265.5C 237.978,266.581 235.811,268.248 234,270.5C 232.066,268.581 232.233,267.081 234.5,266C 233.829,265.014 233.829,263.847 234.5,262.5C 234.66,260.847 235.326,259.514 236.5,258.5C 237.906,258.027 238.573,257.027 238.5,255.5C 239.906,255.027 240.573,254.027 240.5,252.5C 241.522,250.145 243.188,248.478 245.5,247.5C 247.167,246.5 248.5,245.167 249.5,243.5C 251.516,241.987 253.849,241.153 256.5,241C 255.692,240.692 255.025,240.192 254.5,239.5C 255.612,238.735 256.279,237.735 256.5,236.5 Z"/></g>
<g><path style="opacity:0.078" fill="#a4a4a4" d="M 246.5,259.5 C 246.573,261.027 245.906,262.027 244.5,262.5C 244.427,260.973 245.094,259.973 246.5,259.5 Z"/></g>
<g><path style="opacity:0.998" fill="#232524" d="M 350.5,255.5 C 356.253,261.79 363.086,266.456 371,269.5C 371.812,276.001 368.979,278.168 362.5,276C 355.728,272.694 349.395,268.861 343.5,264.5C 343.737,265.791 343.404,266.791 342.5,267.5C 342.077,264.712 343.077,262.712 345.5,261.5C 346.971,262.381 347.804,263.714 348,265.5C 349.054,263.246 350.554,262.913 352.5,264.5C 353.583,263.635 353.749,262.635 353,261.5C 352,260.167 351,260.167 350,261.5C 349.075,260.953 348.242,260.287 347.5,259.5C 349.288,258.717 350.288,257.384 350.5,255.5 Z"/></g>
<g><path style="opacity:0.082" fill="#aeafaf" d="M 244.5,262.5 C 244.573,264.027 243.906,265.027 242.5,265.5C 242.427,263.973 243.094,262.973 244.5,262.5 Z"/></g>
<g><path style="opacity:0.998" fill="#1a1c1b" d="M 343.5,241.5 C 345.095,244.285 346.095,247.285 346.5,250.5C 346.833,251.5 347.5,252.167 348.5,252.5C 349.551,253.222 350.218,254.222 350.5,255.5C 350.288,257.384 349.288,258.717 347.5,259.5C 348.242,260.287 349.075,260.953 350,261.5C 351,260.167 352,260.167 353,261.5C 353.749,262.635 353.583,263.635 352.5,264.5C 350.554,262.913 349.054,263.246 348,265.5C 347.804,263.714 346.971,262.381 345.5,261.5C 343.077,262.712 342.077,264.712 342.5,267.5C 341.695,269.915 340.695,272.249 339.5,274.5C 338.679,277.641 338.179,280.975 338,284.5C 336.211,286.229 334.044,286.896 331.5,286.5C 331.167,285.833 330.833,285.167 330.5,284.5C 330.372,280.119 330.705,275.785 331.5,271.5C 333.06,265.873 335.06,260.373 337.5,255C 336.194,251.583 335.194,248.083 334.5,244.5C 335.038,242.883 335.371,241.216 335.5,239.5C 337.527,239.338 339.527,239.505 341.5,240C 340.692,240.308 340.025,240.808 339.5,241.5C 340.808,242.626 342.142,242.626 343.5,241.5 Z"/></g>
<g><path style="opacity:0.235" fill="#9a9b9b" d="M 410.5,270.5 C 410.011,271.995 409.345,273.329 408.5,274.5C 408.157,272.517 408.824,271.183 410.5,270.5 Z"/></g>
<g><path style="opacity:0.157" fill="#b6b6b6" d="M 331.5,271.5 C 330.705,275.785 330.372,280.119 330.5,284.5C 329.839,282.866 329.506,281.033 329.5,279C 329.3,276.134 329.967,273.634 331.5,271.5 Z"/></g>
<g><path style="opacity:1" fill="#1c1f1e" d="M 234.5,262.5 C 233.829,263.847 233.829,265.014 234.5,266C 232.233,267.081 232.066,268.581 234,270.5C 235.811,268.248 237.978,266.581 240.5,265.5C 241.107,265.624 241.44,265.957 241.5,266.5C 238.086,273.76 235.086,281.093 232.5,288.5C 230.72,289.99 230.054,291.99 230.5,294.5C 229.325,294.281 228.325,294.614 227.5,295.5C 228.428,296.768 228.595,298.101 228,299.5C 226.605,298.185 225.605,298.519 225,300.5C 223.249,298.788 222.582,296.788 223,294.5C 223.984,296.795 224.817,296.461 225.5,293.5C 224.054,291.382 223.387,289.049 223.5,286.5C 225.572,277.694 229.239,269.694 234.5,262.5 Z"/></g>
<g><path style="opacity:0.114" fill="#c8c8c7" d="M 396.5,277.5 C 396.443,278.609 396.11,279.609 395.5,280.5C 395.167,280.5 394.833,280.5 394.5,280.5C 394.427,278.973 395.094,277.973 396.5,277.5 Z"/></g>
<g><path style="opacity:0.09" fill="#babbba" d="M 339.5,274.5 C 339.665,278.182 339.499,281.848 339,285.5C 336.643,287.646 334.143,287.979 331.5,286.5C 334.044,286.896 336.211,286.229 338,284.5C 338.179,280.975 338.679,277.641 339.5,274.5 Z"/></g>
<g><path style="opacity:0.999" fill="#202121" d="M 223.5,286.5 C 223.387,289.049 224.054,291.382 225.5,293.5C 224.817,296.461 223.984,296.795 223,294.5C 222.582,296.788 223.249,298.788 225,300.5C 225.605,298.519 226.605,298.185 228,299.5C 228.595,298.101 228.428,296.768 227.5,295.5C 228.325,294.614 229.325,294.281 230.5,294.5C 230.054,291.99 230.72,289.99 232.5,288.5C 229.854,298.987 228.021,309.653 227,320.5C 225.556,322.155 223.722,322.822 221.5,322.5C 221.217,321.711 220.717,321.044 220,320.5C 219.501,316.179 219.334,311.846 219.5,307.5C 219.83,300.19 221.163,293.19 223.5,286.5 Z"/></g>
<g><path style="opacity:1" fill="#1d1f1e" d="M 394.5,280.5 C 394.833,280.5 395.167,280.5 395.5,280.5C 395.775,282.842 396.608,282.842 398,280.5C 399.651,282.402 399.984,284.402 399,286.5C 400.044,285.377 400.71,284.044 401,282.5C 402.145,283.684 403.312,283.684 404.5,282.5C 400.058,293.582 394.391,303.915 387.5,313.5C 386.25,313.423 385.417,312.756 385,311.5C 383.693,312.772 382.193,313.772 380.5,314.5C 381.894,315.687 381.727,316.354 380,316.5C 378.69,315.87 377.856,314.87 377.5,313.5C 377.5,312.833 377.5,312.167 377.5,311.5C 377.932,310.29 378.599,309.29 379.5,308.5C 380.906,308.027 381.573,307.027 381.5,305.5C 386.121,297.256 390.454,288.923 394.5,280.5 Z"/></g>
<g><path style="opacity:0.212" fill="#abacab" d="M 381.5,305.5 C 381.573,307.027 380.906,308.027 379.5,308.5C 379.427,306.973 380.094,305.973 381.5,305.5 Z"/></g>
<g><path style="opacity:1" fill="#1c1e1d" d="M 128.5,306.5 C 131.481,313.083 134.481,319.75 137.5,326.5C 137.427,328.027 138.094,329.027 139.5,329.5C 142.421,333.019 145.087,336.686 147.5,340.5C 147.833,341.5 148.5,342.167 149.5,342.5C 151.865,344.86 154.532,346.86 157.5,348.5C 157.5,348.833 157.5,349.167 157.5,349.5C 155.775,350.278 154.109,350.611 152.5,350.5C 151.396,349.369 151.729,348.535 153.5,348C 151.809,346.595 149.976,345.428 148,344.5C 147.552,346.409 148.385,347.576 150.5,348C 147.833,348.667 147.833,349.333 150.5,350C 148.942,350.21 147.609,350.71 146.5,351.5C 139.362,346.033 133.695,339.366 129.5,331.5C 129.715,329.821 129.048,328.821 127.5,328.5C 123.033,319.567 119.699,310.233 117.5,300.5C 119.044,299.086 120.711,298.753 122.5,299.5C 121.5,300.167 120.5,300.833 119.5,301.5C 119.938,302.506 120.604,302.506 121.5,301.5C 122.747,303.006 122.747,304.506 121.5,306C 122.744,306.456 123.577,305.956 124,304.5C 124.26,306.618 125.26,308.284 127,309.5C 128.039,308.756 128.539,307.756 128.5,306.5 Z"/></g>
<g><path style="opacity:0.457" fill="#6f6f6f" d="M 219.5,307.5 C 219.334,311.846 219.501,316.179 220,320.5C 220.717,321.044 221.217,321.711 221.5,322.5C 220.504,322.586 219.671,322.252 219,321.5C 218.185,316.648 218.352,311.981 219.5,307.5 Z"/></g>
<g><path style="opacity:0.427" fill="#a8a9a9" d="M 377.5,311.5 C 377.5,312.167 377.5,312.833 377.5,313.5C 376.833,313.833 376.167,314.167 375.5,314.5C 375.427,312.973 376.094,311.973 377.5,311.5 Z"/></g>
<g><path style="opacity:0.443" fill="#9a9b9a" d="M 367.5,323.5 C 367.167,325.833 365.833,327.167 363.5,327.5C 364.5,325.833 365.833,324.5 367.5,323.5 Z"/></g>
<g><path style="opacity:1" fill="#1f2120" d="M 387.5,313.5 C 384.296,319.708 379.963,325.042 374.5,329.5C 373.5,329.833 372.833,330.5 372.5,331.5C 370.548,334.118 368.215,336.452 365.5,338.5C 365.414,337.504 365.748,336.671 366.5,336C 364.557,333.89 362.224,332.39 359.5,331.5C 360.5,329.833 361.833,328.5 363.5,327.5C 365.833,327.167 367.167,325.833 367.5,323.5C 370.195,320.474 372.862,317.474 375.5,314.5C 376.167,314.167 376.833,313.833 377.5,313.5C 377.856,314.87 378.69,315.87 380,316.5C 381.727,316.354 381.894,315.687 380.5,314.5C 382.193,313.772 383.693,312.772 385,311.5C 385.417,312.756 386.25,313.423 387.5,313.5 Z"/></g>
<g><path style="opacity:0.553" fill="#a1a2a2" d="M 127.5,328.5 C 129.048,328.821 129.715,329.821 129.5,331.5C 128.599,330.71 127.932,329.71 127.5,328.5 Z"/></g>
<g><path style="opacity:0.196" fill="#b4b4b4" d="M 137.5,326.5 C 138.906,326.973 139.573,327.973 139.5,329.5C 138.094,329.027 137.427,328.027 137.5,326.5 Z"/></g>
<g><path style="opacity:0.004" fill="#c8caca" d="M 374.5,329.5 C 374.5,330.833 373.833,331.5 372.5,331.5C 372.833,330.5 373.5,329.833 374.5,329.5 Z"/></g>
<g><path style="opacity:0.565" fill="#8f8f8f" d="M 359.5,331.5 C 358.738,333.262 357.404,334.262 355.5,334.5C 356.262,332.738 357.596,331.738 359.5,331.5 Z"/></g>
<g><path style="opacity:0.404" fill="#9fa19f" d="M 355.5,334.5 C 355.027,335.906 354.027,336.573 352.5,336.5C 352.973,335.094 353.973,334.427 355.5,334.5 Z"/></g>
<g><path style="opacity:0.357" fill="#9d9f9d" d="M 349.5,338.5 C 349.027,339.906 348.027,340.573 346.5,340.5C 346.973,339.094 347.973,338.427 349.5,338.5 Z"/></g>
<g><path style="opacity:0.008" fill="#bfc0bf" d="M 147.5,340.5 C 148.833,340.5 149.5,341.167 149.5,342.5C 148.5,342.167 147.833,341.5 147.5,340.5 Z"/></g>
<g><path style="opacity:0.49" fill="#959595" d="M 333.5,347.5 C 333.5,347.833 333.5,348.167 333.5,348.5C 332.609,349.11 331.609,349.443 330.5,349.5C 330.973,348.094 331.973,347.427 333.5,347.5 Z"/></g>
<g><path style="opacity:0.999" fill="#111414" d="M 157.5,349.5 C 158.209,350.404 159.209,350.737 160.5,350.5C 161.71,350.932 162.71,351.599 163.5,352.5C 163.321,354.364 163.821,356.364 165,358.5C 166.897,356.984 169.064,356.317 171.5,356.5C 171.704,360.281 170.037,362.614 166.5,363.5C 166.167,363.5 165.833,363.5 165.5,363.5C 164.713,361.896 163.38,361.229 161.5,361.5C 161.167,361.5 160.833,361.5 160.5,361.5C 159.833,360.167 159.167,360.167 158.5,361.5C 157.668,392.997 157.168,424.664 157,456.5C 156.667,426.833 156.333,397.167 156,367.5C 155,366.167 154,364.833 153,363.5C 152.667,364.167 152.333,364.833 152,365.5C 151.809,363.292 151.309,361.292 150.5,359.5C 150.975,356.918 150.308,354.918 148.5,353.5C 147.833,352.833 147.167,352.167 146.5,351.5C 147.609,350.71 148.942,350.21 150.5,350C 147.833,349.333 147.833,348.667 150.5,348C 148.385,347.576 147.552,346.409 148,344.5C 149.976,345.428 151.809,346.595 153.5,348C 151.729,348.535 151.396,349.369 152.5,350.5C 154.109,350.611 155.775,350.278 157.5,349.5 Z"/></g>
<g><path style="opacity:0.624" fill="#909392" d="M 157.5,348.5 C 158.71,348.932 159.71,349.599 160.5,350.5C 159.209,350.737 158.209,350.404 157.5,349.5C 157.5,349.167 157.5,348.833 157.5,348.5 Z"/></g>
<g><path style="opacity:0.463" fill="#989898" d="M 329.5,349.5 C 329.027,350.906 328.027,351.573 326.5,351.5C 326.973,350.094 327.973,349.427 329.5,349.5 Z"/></g>
<g><path style="opacity:0.502" fill="#7b7c7b" d="M 228.5,350.5 C 226.967,352.245 224.967,353.245 222.5,353.5C 224.033,351.755 226.033,350.755 228.5,350.5 Z"/></g>
<g><path style="opacity:0.008" fill="#a0a0a0" d="M 240.5,351.5 C 242.027,351.427 243.027,352.094 243.5,353.5C 241.973,353.573 240.973,352.906 240.5,351.5 Z"/></g>
<g><path style="opacity:0.51" fill="#989a99" d="M 325.5,351.5 C 325.027,352.906 324.027,353.573 322.5,353.5C 322.973,352.094 323.973,351.427 325.5,351.5 Z"/></g>
<g><path style="opacity:1" fill="#1d1f1f" d="M 359.5,331.5 C 362.224,332.39 364.557,333.89 366.5,336C 365.748,336.671 365.414,337.504 365.5,338.5C 358.75,344.386 351.416,349.552 343.5,354C 338.265,356.785 332.932,359.285 327.5,361.5C 328.227,357.947 330.227,354.78 333.5,352C 333.167,351.667 332.833,351.333 332.5,351C 334.002,350.417 335.335,349.584 336.5,348.5C 335.767,347.913 334.767,347.913 333.5,348.5C 333.5,348.167 333.5,347.833 333.5,347.5C 337.993,345.421 342.326,343.088 346.5,340.5C 348.027,340.573 349.027,339.906 349.5,338.5C 350.29,337.599 351.29,336.932 352.5,336.5C 354.027,336.573 355.027,335.906 355.5,334.5C 357.404,334.262 358.738,333.262 359.5,331.5 Z"/></g>
<g><path style="opacity:0.094" fill="#bec0c0" d="M 244.5,353.5 C 246.027,353.427 247.027,354.094 247.5,355.5C 245.973,355.573 244.973,354.906 244.5,353.5 Z"/></g>
<g><path style="opacity:0.392" fill="#8a8b8b" d="M 214.5,355.5 C 213.22,356.931 211.553,357.598 209.5,357.5C 210.78,356.069 212.447,355.402 214.5,355.5 Z"/></g>
<g><path style="opacity:0.999" fill="#1a1c1b" d="M 240.5,351.5 C 240.973,352.906 241.973,353.573 243.5,353.5C 243.833,353.5 244.167,353.5 244.5,353.5C 244.973,354.906 245.973,355.573 247.5,355.5C 250.108,355.4 252.442,356.067 254.5,357.5C 255.514,358.674 256.847,359.34 258.5,359.5C 265.739,359.785 272.739,360.785 279.5,362.5C 279.833,363.5 280.5,364.167 281.5,364.5C 282.403,369.267 280.403,371.6 275.5,371.5C 266.182,370.77 257.182,368.77 248.5,365.5C 247.856,363.522 246.522,362.189 244.5,361.5C 242.997,362.052 241.331,362.052 239.5,361.5C 238.365,359.787 236.698,359.12 234.5,359.5C 234.44,358.957 234.107,358.624 233.5,358.5C 229.4,360.756 225.066,362.423 220.5,363.5C 219.5,363.5 218.5,363.5 217.5,363.5C 217.67,362.178 217.337,361.011 216.5,360C 218.808,358.604 218.475,357.937 215.5,358C 215.043,358.414 214.709,358.914 214.5,359.5C 215.95,360.85 216.617,362.516 216.5,364.5C 214.073,364.477 211.74,363.977 209.5,363C 214.769,359.347 214.769,358.514 209.5,360.5C 208.914,360.291 208.414,359.957 208,359.5C 207.309,362.266 205.809,362.933 203.5,361.5C 202.653,363.061 202.986,364.561 204.5,366C 203.167,366.667 201.833,366.667 200.5,366C 201.167,365.667 201.833,365.333 202.5,365C 200.963,363.89 200.297,362.39 200.5,360.5C 196.298,360.817 192.298,360.483 188.5,359.5C 190.833,359.5 193.167,359.5 195.5,359.5C 199.122,359.678 202.456,359.011 205.5,357.5C 206.833,357.5 208.167,357.5 209.5,357.5C 211.553,357.598 213.22,356.931 214.5,355.5C 217.006,354.25 219.673,353.584 222.5,353.5C 224.967,353.245 226.967,352.245 228.5,350.5C 232.65,347.751 236.65,348.085 240.5,351.5 Z"/></g>
<g><path style="opacity:0.224" fill="#7d807e" d="M 254.5,357.5 C 256.38,357.229 257.713,357.896 258.5,359.5C 256.847,359.34 255.514,358.674 254.5,357.5 Z"/></g>
<g><path style="opacity:1" fill="#323333" d="M 327.5,361.5 C 325.527,362.487 323.527,363.487 321.5,364.5C 320.667,397.828 320.167,431.162 320,464.5C 319.5,465 319,465.5 318.5,466C 262.665,466.832 206.998,466.665 151.5,465.5C 152.167,465.5 152.833,465.5 153.5,465.5C 208.168,465.667 262.834,465.5 317.5,465C 313.165,463.493 312.498,460.993 315.5,457.5C 315.167,456.833 314.833,456.167 314.5,455.5C 313.749,456.376 313.249,457.376 313,458.5C 312.832,425.331 312.332,392.331 311.5,359.5C 312.29,358.206 313.29,357.039 314.5,356C 317.285,355.342 319.951,354.509 322.5,353.5C 324.027,353.573 325.027,352.906 325.5,351.5C 325.833,351.5 326.167,351.5 326.5,351.5C 328.027,351.573 329.027,350.906 329.5,349.5C 329.833,349.5 330.167,349.5 330.5,349.5C 331.609,349.443 332.609,349.11 333.5,348.5C 334.767,347.913 335.767,347.913 336.5,348.5C 335.335,349.584 334.002,350.417 332.5,351C 332.833,351.333 333.167,351.667 333.5,352C 330.227,354.78 328.227,357.947 327.5,361.5 Z"/></g>
<g><path style="opacity:0.999" fill="#1c1e1d" d="M 163.5,352.5 C 167.382,354.19 171.382,355.69 175.5,357C 179.933,357.418 184.266,358.251 188.5,359.5C 192.298,360.483 196.298,360.817 200.5,360.5C 200.297,362.39 200.963,363.89 202.5,365C 201.833,365.333 201.167,365.667 200.5,366C 201.833,366.667 203.167,366.667 204.5,366C 202.986,364.561 202.653,363.061 203.5,361.5C 205.809,362.933 207.309,362.266 208,359.5C 208.414,359.957 208.914,360.291 209.5,360.5C 214.769,358.514 214.769,359.347 209.5,363C 211.74,363.977 214.073,364.477 216.5,364.5C 216.617,362.516 215.95,360.85 214.5,359.5C 214.709,358.914 215.043,358.414 215.5,358C 218.475,357.937 218.808,358.604 216.5,360C 217.337,361.011 217.67,362.178 217.5,363.5C 218.5,363.5 219.5,363.5 220.5,363.5C 202.473,370.037 184.473,370.037 166.5,363.5C 170.037,362.614 171.704,360.281 171.5,356.5C 169.064,356.317 166.897,356.984 165,358.5C 163.821,356.364 163.321,354.364 163.5,352.5 Z"/></g>
<g><path style="opacity:0.551" fill="#797b7a" d="M 205.5,357.5 C 202.456,359.011 199.122,359.678 195.5,359.5C 198.589,358.215 201.922,357.549 205.5,357.5 Z"/></g>
<g><path style="opacity:0.639" fill="#878988" d="M 234.5,359.5 C 236.698,359.12 238.365,359.787 239.5,361.5C 237.597,361.204 235.93,360.537 234.5,359.5 Z"/></g>
<g><path style="opacity:0.227" fill="#a4a4a4" d="M 161.5,361.5 C 163.38,361.229 164.713,361.896 165.5,363.5C 163.847,363.34 162.514,362.674 161.5,361.5 Z"/></g>
<g><path style="opacity:0.976" fill="#4c4e4e" d="M 239.5,361.5 C 241.331,362.052 242.997,362.052 244.5,361.5C 246.522,362.189 247.856,363.522 248.5,365.5C 245.088,364.925 242.088,363.592 239.5,361.5 Z"/></g>
<g><path style="opacity:0.004" fill="#c0c0c0" d="M 279.5,362.5 C 280.833,362.5 281.5,363.167 281.5,364.5C 280.5,364.167 279.833,363.5 279.5,362.5 Z"/></g>
<g><path style="opacity:1" fill="#0d100f" d="M 150.5,359.5 C 151.309,361.292 151.809,363.292 152,365.5C 152.333,364.833 152.667,364.167 153,363.5C 154,364.833 155,366.167 156,367.5C 156.333,397.167 156.667,426.833 157,456.5C 157.168,424.664 157.668,392.997 158.5,361.5C 158.168,393.671 158.502,425.671 159.5,457.5C 159.663,459.857 159.497,462.19 159,464.5C 158.333,463.833 157.667,463.167 157,462.5C 156.015,463.814 154.848,464.814 153.5,465.5C 152.833,465.5 152.167,465.5 151.5,465.5C 150.596,464.791 150.263,463.791 150.5,462.5C 150.5,428.167 150.5,393.833 150.5,359.5 Z"/></g>
<g><path style="opacity:0.235" fill="#7d7f7e" d="M 160.5,361.5 C 159.502,392.996 159.168,424.662 159.5,456.5C 159.5,456.833 159.5,457.167 159.5,457.5C 158.502,425.671 158.168,393.671 158.5,361.5C 159.167,360.167 159.833,360.167 160.5,361.5 Z"/></g>
<g><path style="opacity:0.431" fill="#626463" d="M 148.5,353.5 C 150.308,354.918 150.975,356.918 150.5,359.5C 150.5,393.833 150.5,428.167 150.5,462.5C 149.827,426.264 149.161,389.931 148.5,353.5 Z"/></g>
<g><path style="opacity:0.31" fill="#b9b9bb" d="M 311.5,359.5 C 311.5,392.167 311.5,424.833 311.5,457.5C 260.833,457.5 210.167,457.5 159.5,457.5C 159.5,457.167 159.5,456.833 159.5,456.5C 209.833,456.5 260.167,456.5 310.5,456.5C 310.168,423.996 310.502,391.662 311.5,359.5 Z"/></g>
<g><path style="opacity:1" fill="#0b0e0f" d="M 311.5,359.5 C 312.332,392.331 312.832,425.331 313,458.5C 313.249,457.376 313.749,456.376 314.5,455.5C 314.833,456.167 315.167,456.833 315.5,457.5C 312.498,460.993 313.165,463.493 317.5,465C 262.834,465.5 208.168,465.667 153.5,465.5C 154.848,464.814 156.015,463.814 157,462.5C 157.667,463.167 158.333,463.833 159,464.5C 159.497,462.19 159.663,459.857 159.5,457.5C 210.167,457.5 260.833,457.5 311.5,457.5C 311.5,424.833 311.5,392.167 311.5,359.5 Z"/></g>
</svg>
