<?xml version="1.0" encoding="UTF-8"?>
<!DOCTYPE svg PUBLIC "-//W3C//DTD SVG 1.1//EN" "http://www.w3.org/Graphics/SVG/1.1/DTD/svg11.dtd">
<svg xmlns="http://www.w3.org/2000/svg" version="1.1" width="500px" height="500px" style="shape-rendering:geometricPrecision; text-rendering:geometricPrecision; image-rendering:optimizeQuality; fill-rule:evenodd; clip-rule:evenodd" xmlns:xlink="http://www.w3.org/1999/xlink">
<g><path style="opacity:0.999" fill="#232525" d="M 295.5,73.5 C 295.577,74.7498 296.244,75.5831 297.5,76C 296.167,77.6667 296.167,79.3333 297.5,81C 295.417,82.3204 295.751,83.6538 298.5,85C 297.906,85.4643 297.239,85.631 296.5,85.5C 278.846,82.0692 261.179,78.5692 243.5,75C 235.06,74.0984 226.727,74.5984 218.5,76.5C 216.62,76.2291 215.287,76.8958 214.5,78.5C 209.896,81.1027 205.563,84.1027 201.5,87.5C 199.83,87.2488 198.33,86.5822 197,85.5C 196.667,85.8333 196.333,86.1667 196,86.5C 195.716,84.1144 194.716,83.4477 193,84.5C 192.25,83.8742 191.416,83.3742 190.5,83C 192.056,82.2798 193.056,81.1132 193.5,79.5C 201.093,71.1979 210.426,65.6979 221.5,63C 230.167,62.3333 238.833,62.3333 247.5,63C 263.53,66.3935 279.53,69.8935 295.5,73.5 Z"/></g>
<g><path style="opacity:0.004" fill="#ced0d0" d="M 218.5,76.5 C 217.486,77.6737 216.153,78.3404 214.5,78.5C 215.287,76.8958 216.62,76.2291 218.5,76.5 Z"/></g>
<g><path style="opacity:0.996" fill="#262928" d="M 295.5,73.5 C 300.696,74.2868 305.696,75.7868 310.5,78C 318.287,83.2879 325.287,89.4545 331.5,96.5C 331.427,98.0269 332.094,99.0269 333.5,99.5C 338.479,103.146 342.812,107.479 346.5,112.5C 345.527,113.791 344.527,113.791 343.5,112.5C 341.525,109.237 339.692,106.57 338,104.5C 337.51,105.793 337.343,107.127 337.5,108.5C 333.551,108.693 333.551,109.193 337.5,110C 335.866,110.494 334.199,110.66 332.5,110.5C 332.629,112.216 332.962,113.883 333.5,115.5C 325.315,107.814 317.315,99.9811 309.5,92C 305.593,88.7916 301.26,86.6249 296.5,85.5C 297.239,85.631 297.906,85.4643 298.5,85C 295.751,83.6538 295.417,82.3204 297.5,81C 296.167,79.3333 296.167,77.6667 297.5,76C 296.244,75.5831 295.577,74.7498 295.5,73.5 Z"/></g>
<g><path style="opacity:1" fill="#272a29" d="M 193.5,79.5 C 193.056,81.1132 192.056,82.2798 190.5,83C 191.416,83.3742 192.25,83.8742 193,84.5C 194.716,83.4477 195.716,84.1144 196,86.5C 196.333,86.1667 196.667,85.8333 197,85.5C 198.33,86.5822 199.83,87.2488 201.5,87.5C 184.061,103.06 166.394,118.393 148.5,133.5C 148.67,132.178 148.337,131.011 147.5,130C 148.448,129.517 149.448,129.351 150.5,129.5C 150.413,126.402 150.913,126.068 152,128.5C 152.154,125.475 153.654,123.809 156.5,123.5C 155.299,121.352 154.466,119.352 154,117.5C 153.252,119.332 152.252,120.999 151,122.5C 148.266,121.638 148.099,120.805 150.5,120C 149.207,119.51 147.873,119.343 146.5,119.5C 161.573,105.423 177.24,92.09 193.5,79.5 Z"/></g>
<g><path style="opacity:0.314" fill="#a4a5a5" d="M 331.5,96.5 C 332.906,96.9731 333.573,97.9731 333.5,99.5C 332.094,99.0269 331.427,98.0269 331.5,96.5 Z"/></g>
<g><path style="opacity:0.208" fill="#c2c3c3" d="M 244.5,106.5 C 242.708,106.366 241.042,106.699 239.5,107.5C 241.042,106.699 242.708,106.366 244.5,106.5 Z"/></g>
<g><path style="opacity:1" fill="#262928" d="M 244.5,106.5 C 258.88,112.792 273.88,114.792 289.5,112.5C 290.461,114.438 289.795,115.938 287.5,117C 287.833,117.333 288.167,117.667 288.5,118C 287.258,118.311 286.258,117.811 285.5,116.5C 284.289,117.274 284.289,118.107 285.5,119C 284.377,120.044 283.044,120.71 281.5,121C 282.956,121.423 283.456,122.256 283,123.5C 282.586,123.043 282.086,122.709 281.5,122.5C 276.523,123.286 271.523,123.953 266.5,124.5C 258.949,124.424 251.782,122.757 245,119.5C 243.629,122.266 241.796,124.599 239.5,126.5C 238.417,126.461 237.417,126.127 236.5,125.5C 235.14,127.848 233.473,128.015 231.5,126C 232.5,125.167 233.5,124.333 234.5,123.5C 233.833,122.833 233.167,122.167 232.5,121.5C 233.167,121.167 233.833,120.833 234.5,120.5C 234.069,119.707 233.735,118.873 233.5,118C 234.906,116.022 235.906,113.855 236.5,111.5C 236.554,109.368 237.554,108.035 239.5,107.5C 241.042,106.699 242.708,106.366 244.5,106.5 Z"/></g>
<g><path style="opacity:0.997" fill="#242726" d="M 346.5,112.5 C 352.023,117.546 354.689,123.879 354.5,131.5C 358.648,130.356 362.648,130.356 366.5,131.5C 366.414,132.496 366.748,133.329 367.5,134C 366.833,134.333 366.167,134.667 365.5,135C 366.641,135.741 366.641,136.575 365.5,137.5C 367.88,140.515 367.047,141.182 363,139.5C 362.53,140.577 362.697,141.577 363.5,142.5C 360.359,143.321 357.025,143.821 353.5,144C 351.186,145.267 348.852,146.434 346.5,147.5C 345.21,145.013 344.21,145.347 343.5,148.5C 342.808,147.975 342.308,147.308 342,146.5C 341.124,148.725 339.957,150.725 338.5,152.5C 337.049,150.441 335.049,149.441 332.5,149.5C 332.5,148.5 332.5,147.5 332.5,146.5C 330.833,146.5 329.167,146.5 327.5,146.5C 321.181,145.511 315.514,143.178 310.5,139.5C 310.027,138.094 309.027,137.427 307.5,137.5C 302.083,134.254 297.417,130.088 293.5,125C 287.839,125.162 282.172,125.662 276.5,126.5C 272.883,126.602 269.55,125.935 266.5,124.5C 271.523,123.953 276.523,123.286 281.5,122.5C 282.086,122.709 282.586,123.043 283,123.5C 283.456,122.256 282.956,121.423 281.5,121C 283.044,120.71 284.377,120.044 285.5,119C 284.289,118.107 284.289,117.274 285.5,116.5C 286.258,117.811 287.258,118.311 288.5,118C 288.167,117.667 287.833,117.333 287.5,117C 289.795,115.938 290.461,114.438 289.5,112.5C 292.763,110.346 296.096,110.179 299.5,112C 307.504,124.413 318.671,132.246 333,135.5C 340.926,135.278 343.592,131.612 341,124.5C 338.665,121.335 336.165,118.335 333.5,115.5C 332.962,113.883 332.629,112.216 332.5,110.5C 334.199,110.66 335.866,110.494 337.5,110C 333.551,109.193 333.551,108.693 337.5,108.5C 337.343,107.127 337.51,105.793 338,104.5C 339.692,106.57 341.525,109.237 343.5,112.5C 344.527,113.791 345.527,113.791 346.5,112.5 Z"/></g>
<g><path style="opacity:0.999" fill="#2a2d2c" d="M 236.5,111.5 C 235.906,113.855 234.906,116.022 233.5,118C 233.735,118.873 234.069,119.707 234.5,120.5C 233.833,120.833 233.167,121.167 232.5,121.5C 233.167,122.167 233.833,122.833 234.5,123.5C 233.5,124.333 232.5,125.167 231.5,126C 233.473,128.015 235.14,127.848 236.5,125.5C 237.417,126.127 238.417,126.461 239.5,126.5C 238.588,128.595 237.421,130.595 236,132.5C 226.045,142.771 215.879,152.771 205.5,162.5C 205.579,161.07 205.246,159.736 204.5,158.5C 206.113,157.573 207.779,156.739 209.5,156C 210.641,155.259 210.641,154.425 209.5,153.5C 213.609,152.339 214.443,150.006 212,146.5C 211.333,147.167 210.667,147.833 210,148.5C 209.802,146.618 209.302,144.952 208.5,143.5C 218.235,133.104 227.568,122.437 236.5,111.5 Z"/></g>
<g><path style="opacity:0.996" fill="#2a2c2b" d="M 366.5,131.5 C 376.936,133.099 383.436,139.099 386,149.5C 386.991,161.909 388.491,174.242 390.5,186.5C 390.66,188.199 390.494,189.866 390,191.5C 388.542,190.253 387.042,190.253 385.5,191.5C 385.167,190.833 384.833,190.167 384.5,189.5C 383.614,190.325 383.281,191.325 383.5,192.5C 382.209,192.263 381.209,192.596 380.5,193.5C 376.949,179.852 374.782,165.852 374,151.5C 372.144,146.47 368.644,143.47 363.5,142.5C 362.697,141.577 362.53,140.577 363,139.5C 367.047,141.182 367.88,140.515 365.5,137.5C 366.641,136.575 366.641,135.741 365.5,135C 366.167,134.667 366.833,134.333 367.5,134C 366.748,133.329 366.414,132.496 366.5,131.5 Z"/></g>
<g><path style="opacity:0.38" fill="#9ea0a0" d="M 307.5,137.5 C 309.027,137.427 310.027,138.094 310.5,139.5C 308.973,139.573 307.973,138.906 307.5,137.5 Z"/></g>
<g><path style="opacity:1" fill="#252827" d="M 148.5,133.5 C 143.122,137.192 138.122,141.359 133.5,146C 129.515,149.8 126.182,153.966 123.5,158.5C 121.896,159.287 121.229,160.62 121.5,162.5C 121.5,162.833 121.5,163.167 121.5,163.5C 119.896,164.287 119.229,165.62 119.5,167.5C 119.795,169.735 119.461,171.735 118.5,173.5C 118.577,170.988 117.577,168.988 115.5,167.5C 113.936,170.136 112.603,169.969 111.5,167C 110.552,166.517 109.552,166.351 108.5,166.5C 108.737,167.791 108.404,168.791 107.5,169.5C 108.317,161.208 111.317,153.875 116.5,147.5C 117.906,147.027 118.573,146.027 118.5,144.5C 121.914,140.583 125.58,136.749 129.5,133C 135.348,128.643 141.015,124.143 146.5,119.5C 147.873,119.343 149.207,119.51 150.5,120C 148.099,120.805 148.266,121.638 151,122.5C 152.252,120.999 153.252,119.332 154,117.5C 154.466,119.352 155.299,121.352 156.5,123.5C 153.654,123.809 152.154,125.475 152,128.5C 150.913,126.068 150.413,126.402 150.5,129.5C 149.448,129.351 148.448,129.517 147.5,130C 148.337,131.011 148.67,132.178 148.5,133.5 Z"/></g>
<g><path style="opacity:0.231" fill="#acafad" d="M 118.5,144.5 C 118.573,146.027 117.906,147.027 116.5,147.5C 116.427,145.973 117.094,144.973 118.5,144.5 Z"/></g>
<g><path style="opacity:0.322" fill="#939795" d="M 242.5,148.5 C 242.027,149.906 241.027,150.573 239.5,150.5C 239.973,149.094 240.973,148.427 242.5,148.5 Z"/></g>
<g><path style="opacity:0.996" fill="#323433" d="M 346.5,147.5 C 342.084,152.661 338.417,158.327 335.5,164.5C 335.119,163.069 334.119,162.236 332.5,162C 334.715,160.115 334.382,158.282 331.5,156.5C 332.025,155.808 332.692,155.308 333.5,155C 331.527,154.505 329.527,154.338 327.5,154.5C 328.372,152.052 329.705,149.885 331.5,148C 329.942,147.79 328.609,147.29 327.5,146.5C 329.167,146.5 330.833,146.5 332.5,146.5C 332.5,147.5 332.5,148.5 332.5,149.5C 335.049,149.441 337.049,150.441 338.5,152.5C 339.957,150.725 341.124,148.725 342,146.5C 342.308,147.308 342.808,147.975 343.5,148.5C 344.21,145.347 345.21,145.013 346.5,147.5 Z"/></g>
<g><path style="opacity:0.435" fill="#919291" d="M 239.5,150.5 C 239.027,151.906 238.027,152.573 236.5,152.5C 236.973,151.094 237.973,150.427 239.5,150.5 Z"/></g>
<g><path style="opacity:0.969" fill="#6d6e6d" d="M 305.5,153.5 C 307.122,154.122 308.455,155.122 309.5,156.5C 307.011,157.745 305.678,156.745 305.5,153.5 Z"/></g>
<g><path style="opacity:0.663" fill="#6f7170" d="M 195.5,155.5 C 195.043,157.773 193.71,159.106 191.5,159.5C 192.402,157.659 193.736,156.326 195.5,155.5 Z"/></g>
<g><path style="opacity:0.133" fill="#a7a7a7" d="M 123.5,158.5 C 123.34,160.153 122.674,161.486 121.5,162.5C 121.229,160.62 121.896,159.287 123.5,158.5 Z"/></g>
<g><path style="opacity:0.251" fill="#a2a2a2" d="M 121.5,163.5 C 121.34,165.153 120.674,166.486 119.5,167.5C 119.229,165.62 119.896,164.287 121.5,163.5 Z"/></g>
<g><path style="opacity:1" fill="#252827" d="M 305.5,153.5 C 305.678,156.745 307.011,157.745 309.5,156.5C 314.461,159.264 319.795,160.597 325.5,160.5C 325.12,158.302 325.787,156.635 327.5,155.5C 327.414,156.496 327.748,157.329 328.5,158C 327.692,158.308 327.025,158.808 326.5,159.5C 327.665,160.584 328.998,161.417 330.5,162C 328.989,163.615 327.656,163.615 326.5,162C 324.833,161.333 323.167,161.333 321.5,162C 322.5,162.333 323.5,162.667 324.5,163C 322.169,164.8 322.169,166.8 324.5,169C 323.551,169.617 322.718,169.451 322,168.5C 321.015,169.814 319.848,170.814 318.5,171.5C 308.074,170.579 299.74,165.913 293.5,157.5C 293.573,155.973 292.906,154.973 291.5,154.5C 290.548,153.548 289.548,152.548 288.5,151.5C 279.986,150.563 271.653,148.897 263.5,146.5C 258.163,152.151 252.163,156.818 245.5,160.5C 243.973,160.427 242.973,161.094 242.5,162.5C 237.479,165.099 232.646,168.099 228,171.5C 226.485,175.61 224.985,179.61 223.5,183.5C 223.279,180.903 222.779,180.903 222,183.5C 221.333,179.5 220.667,179.5 220,183.5C 219.193,179.551 218.693,179.551 218.5,183.5C 217.178,183.33 216.011,183.663 215,184.5C 214.925,182.065 214.092,181.398 212.5,182.5C 213.225,173.472 216.559,165.639 222.5,159C 227.068,156.548 231.735,154.382 236.5,152.5C 238.027,152.573 239.027,151.906 239.5,150.5C 241.027,150.573 242.027,149.906 242.5,148.5C 248.265,144.57 253.265,139.737 257.5,134C 258.609,133.362 259.775,132.862 261,132.5C 272.002,137.234 283.502,139.4 295.5,139C 298.72,143.949 302.053,148.783 305.5,153.5 Z"/></g>
<g><path style="opacity:0.004" fill="#cecece" d="M 245.5,160.5 C 245.027,161.906 244.027,162.573 242.5,162.5C 242.973,161.094 243.973,160.427 245.5,160.5 Z"/></g>
<g><path style="opacity:0.016" fill="#b7b7b7" d="M 291.5,154.5 C 292.906,154.973 293.573,155.973 293.5,157.5C 292.094,157.027 291.427,156.027 291.5,154.5 Z"/></g>
<g><path style="opacity:0.994" fill="#282b2a" d="M 296.5,178.5 C 295.178,178.67 294.011,178.337 293,177.5C 292,178.167 291,178.833 290,179.5C 289.5,178.333 288.667,177.5 287.5,177C 288.451,176.282 288.617,175.449 288,174.5C 286.663,173.235 285.163,172.735 283.5,173C 284.328,173.915 285.328,174.581 286.5,175C 285.167,175.333 283.833,175.667 282.5,176C 283.34,177.666 282.84,177.833 281,176.5C 280.308,177.025 279.808,177.692 279.5,178.5C 280.909,178.654 282.576,178.821 284.5,179C 284.957,179.414 285.291,179.914 285.5,180.5C 284.5,181.333 283.5,182.167 282.5,183C 284.833,184 287.167,185 289.5,186C 288.944,186.383 288.611,186.883 288.5,187.5C 281.648,183.991 275.315,179.657 269.5,174.5C 262.553,177.812 255.553,180.812 248.5,183.5C 246.414,187.45 244.748,191.45 243.5,195.5C 243.657,194.127 243.49,192.793 243,191.5C 241.243,191.867 239.743,191.034 238.5,189C 240.993,187.417 240.826,185.917 238,184.5C 235.435,187.193 233.602,190.193 232.5,193.5C 233.23,185.153 236.563,177.986 242.5,172C 251.529,169.33 259.863,165.33 267.5,160C 269.971,159.294 272.305,159.627 274.5,161C 280.953,168.045 288.286,173.878 296.5,178.5 Z"/></g>
<g><path style="opacity:1" fill="#212423" d="M 208.5,143.5 C 209.302,144.952 209.802,146.618 210,148.5C 210.667,147.833 211.333,147.167 212,146.5C 214.443,150.006 213.609,152.339 209.5,153.5C 210.641,154.425 210.641,155.259 209.5,156C 207.779,156.739 206.113,157.573 204.5,158.5C 205.246,159.736 205.579,161.07 205.5,162.5C 199.371,168.049 196.705,175.049 197.5,183.5C 197.5,184.5 197.5,185.5 197.5,186.5C 196.5,186.5 195.5,186.5 194.5,186.5C 194.22,189.505 194.554,192.339 195.5,195C 194.333,195.5 193.5,196.333 193,197.5C 192.727,195.671 191.893,194.171 190.5,193C 191.451,192.282 191.617,191.449 191,190.5C 189.933,188.308 188.433,186.642 186.5,185.5C 185.27,176.396 186.936,167.729 191.5,159.5C 193.71,159.106 195.043,157.773 195.5,155.5C 199.807,151.528 204.141,147.528 208.5,143.5 Z"/></g>
<g><path style="opacity:1" fill="#232625" d="M 327.5,154.5 C 329.527,154.338 331.527,154.505 333.5,155C 332.692,155.308 332.025,155.808 331.5,156.5C 334.382,158.282 334.715,160.115 332.5,162C 334.119,162.236 335.119,163.069 335.5,164.5C 333.789,177.373 332.956,190.373 333,203.5C 332.79,205.058 332.29,206.391 331.5,207.5C 330.778,207.918 330.278,208.584 330,209.5C 328.306,205.604 327.14,205.938 326.5,210.5C 323.455,209.456 321.455,207.456 320.5,204.5C 321.55,199.886 321.717,195.22 321,190.5C 319.509,192.004 317.676,192.837 315.5,193C 305.681,194.369 296.681,192.536 288.5,187.5C 288.611,186.883 288.944,186.383 289.5,186C 287.167,185 284.833,184 282.5,183C 283.5,182.167 284.5,181.333 285.5,180.5C 285.291,179.914 284.957,179.414 284.5,179C 282.576,178.821 280.909,178.654 279.5,178.5C 279.808,177.692 280.308,177.025 281,176.5C 282.84,177.833 283.34,177.666 282.5,176C 283.833,175.667 285.167,175.333 286.5,175C 285.328,174.581 284.328,173.915 283.5,173C 285.163,172.735 286.663,173.235 288,174.5C 288.617,175.449 288.451,176.282 287.5,177C 288.667,177.5 289.5,178.333 290,179.5C 291,178.833 292,178.167 293,177.5C 294.011,178.337 295.178,178.67 296.5,178.5C 301.871,181.172 307.538,182.005 313.5,181C 317.033,179.633 319.366,177.133 320.5,173.5C 319.757,172.818 319.091,172.151 318.5,171.5C 319.848,170.814 321.015,169.814 322,168.5C 322.718,169.451 323.551,169.617 324.5,169C 322.169,166.8 322.169,164.8 324.5,163C 323.5,162.667 322.5,162.333 321.5,162C 323.167,161.333 324.833,161.333 326.5,162C 327.656,163.615 328.989,163.615 330.5,162C 328.998,161.417 327.665,160.584 326.5,159.5C 327.025,158.808 327.692,158.308 328.5,158C 327.748,157.329 327.414,156.496 327.5,155.5C 327.5,155.167 327.5,154.833 327.5,154.5 Z"/></g>
<g><path style="opacity:0.992" fill="#262928" d="M 118.5,173.5 C 121.167,199.169 123.834,224.835 126.5,250.5C 126.404,254.311 125.738,254.311 124.5,250.5C 123.808,251.025 123.308,251.692 123,252.5C 121.847,249.848 120.013,247.848 117.5,246.5C 115.889,247.32 115.222,248.654 115.5,250.5C 111.121,223.776 108.454,196.776 107.5,169.5C 108.404,168.791 108.737,167.791 108.5,166.5C 109.552,166.351 110.552,166.517 111.5,167C 112.603,169.969 113.936,170.136 115.5,167.5C 117.577,168.988 118.577,170.988 118.5,173.5 Z"/></g>
<g><path style="opacity:0.996" fill="#252727" d="M 390.5,186.5 C 394.94,201.574 394.44,216.574 389,231.5C 377.482,248.551 365.982,265.551 354.5,282.5C 353.603,283.598 352.77,283.598 352,282.5C 351.648,284.247 351.148,285.914 350.5,287.5C 350.5,287.833 350.5,288.167 350.5,288.5C 349.5,288.833 348.833,289.5 348.5,290.5C 346.217,290.392 344.217,289.559 342.5,288C 342.833,287.667 343.167,287.333 343.5,287C 341.883,285.908 340.883,284.408 340.5,282.5C 341.906,282.027 342.573,281.027 342.5,279.5C 349.685,267.784 357.351,256.451 365.5,245.5C 366.906,245.027 367.573,244.027 367.5,242.5C 369.808,238.205 372.474,234.205 375.5,230.5C 376.906,230.027 377.573,229.027 377.5,227.5C 382.753,216.554 383.753,205.221 380.5,193.5C 381.209,192.596 382.209,192.263 383.5,192.5C 383.281,191.325 383.614,190.325 384.5,189.5C 384.833,190.167 385.167,190.833 385.5,191.5C 387.042,190.253 388.542,190.253 390,191.5C 390.494,189.866 390.66,188.199 390.5,186.5 Z"/></g>
<g><path style="opacity:0.998" fill="#202322" d="M 223.5,183.5 C 223.043,193.187 222.376,202.853 221.5,212.5C 222.019,214.913 222.685,217.246 223.5,219.5C 224.287,221.104 225.62,221.771 227.5,221.5C 227.833,221.5 228.167,221.5 228.5,221.5C 228.56,222.043 228.893,222.376 229.5,222.5C 230.489,218.893 230.823,215.226 230.5,211.5C 230.035,205.311 230.702,199.311 232.5,193.5C 233.602,190.193 235.435,187.193 238,184.5C 240.826,185.917 240.993,187.417 238.5,189C 239.743,191.034 241.243,191.867 243,191.5C 243.49,192.793 243.657,194.127 243.5,195.5C 243.167,198.167 242.833,200.833 242.5,203.5C 241.71,204.609 241.21,205.942 241,207.5C 240.5,214.158 240.334,220.825 240.5,227.5C 241.5,227.5 242.5,227.5 243.5,227.5C 244.492,227.328 245.158,227.662 245.5,228.5C 245.683,230.936 245.016,233.103 243.5,235C 244.354,236.785 243.687,237.951 241.5,238.5C 229.257,236.546 218.59,231.546 209.5,223.5C 210.36,221.386 212.027,220.22 214.5,220C 213.675,218.312 212.675,218.145 211.5,219.5C 210.803,217.615 209.803,217.282 208.5,218.5C 207.522,218.023 206.689,217.357 206,216.5C 204.701,216.966 203.201,216.966 201.5,216.5C 201.355,213.948 200.855,211.615 200,209.5C 200.333,209.833 200.667,210.167 201,210.5C 202.947,208.297 205.114,206.963 207.5,206.5C 208.5,206.833 209.167,207.5 209.5,208.5C 209.56,209.043 209.893,209.376 210.5,209.5C 211.497,202.532 211.83,195.532 211.5,188.5C 211.205,186.265 211.539,184.265 212.5,182.5C 214.092,181.398 214.925,182.065 215,184.5C 216.011,183.663 217.178,183.33 218.5,183.5C 218.693,179.551 219.193,179.551 220,183.5C 220.667,179.5 221.333,179.5 222,183.5C 222.779,180.903 223.279,180.903 223.5,183.5 Z"/></g>
<g><path style="opacity:0.999" fill="#272929" d="M 197.5,183.5 C 198.876,191.929 202.209,199.595 207.5,206.5C 205.114,206.963 202.947,208.297 201,210.5C 200.667,210.167 200.333,209.833 200,209.5C 200.855,211.615 201.355,213.948 201.5,216.5C 203.201,216.966 204.701,216.966 206,216.5C 206.689,217.357 207.522,218.023 208.5,218.5C 209.803,217.282 210.803,217.615 211.5,219.5C 212.675,218.145 213.675,218.312 214.5,220C 212.027,220.22 210.36,221.386 209.5,223.5C 195.713,214.6 188.046,201.934 186.5,185.5C 188.433,186.642 189.933,188.308 191,190.5C 191.617,191.449 191.451,192.282 190.5,193C 191.893,194.171 192.727,195.671 193,197.5C 193.5,196.333 194.333,195.5 195.5,195C 194.554,192.339 194.22,189.505 194.5,186.5C 195.5,186.5 196.5,186.5 197.5,186.5C 197.5,185.5 197.5,184.5 197.5,183.5 Z"/></g>
<g><path style="opacity:0.324" fill="#878887" d="M 211.5,188.5 C 211.83,195.532 211.497,202.532 210.5,209.5C 209.893,209.376 209.56,209.043 209.5,208.5C 210.167,201.833 210.833,195.167 211.5,188.5 Z"/></g>
<g><path style="opacity:1" fill="#323534" d="M 320.5,204.5 C 321.455,207.456 323.455,209.456 326.5,210.5C 327.14,205.938 328.306,205.604 330,209.5C 330.278,208.584 330.778,207.918 331.5,207.5C 328.949,213.721 324.616,218.388 318.5,221.5C 317.952,220.312 317.619,219.145 317.5,218C 323.305,214.348 323.638,210.514 318.5,206.5C 318.833,205.5 319.5,204.833 320.5,204.5 Z"/></g>
<g><path style="opacity:0.373" fill="#7c7d7c" d="M 230.5,211.5 C 230.823,215.226 230.489,218.893 229.5,222.5C 228.893,222.376 228.56,222.043 228.5,221.5C 229.167,218.167 229.833,214.833 230.5,211.5 Z"/></g>
<g><path style="opacity:0.116" fill="#868686" d="M 242.5,203.5 C 242.019,208.147 241.686,212.814 241.5,217.5C 241.591,221.098 242.257,224.431 243.5,227.5C 242.5,227.5 241.5,227.5 240.5,227.5C 240.334,220.825 240.5,214.158 241,207.5C 241.21,205.942 241.71,204.609 242.5,203.5 Z"/></g>
<g><path style="opacity:0.102" fill="#979797" d="M 223.5,219.5 C 225.153,219.66 226.486,220.326 227.5,221.5C 225.62,221.771 224.287,221.104 223.5,219.5 Z"/></g>
<g><path style="opacity:0.004" fill="#c8c8c8" d="M 317.5,221.5 C 317.5,222.833 316.833,223.5 315.5,223.5C 315.833,222.5 316.5,221.833 317.5,221.5 Z"/></g>
<g><path style="opacity:0.031" fill="#ababab" d="M 377.5,227.5 C 377.573,229.027 376.906,230.027 375.5,230.5C 375.427,228.973 376.094,227.973 377.5,227.5 Z"/></g>
<g><path style="opacity:0.993" fill="#242726" d="M 318.5,206.5 C 323.638,210.514 323.305,214.348 317.5,218C 317.619,219.145 317.952,220.312 318.5,221.5C 318.167,221.5 317.833,221.5 317.5,221.5C 316.5,221.833 315.833,222.5 315.5,223.5C 305.807,232.021 294.807,238.521 282.5,243C 268.292,245.404 254.625,243.904 241.5,238.5C 243.687,237.951 244.354,236.785 243.5,235C 245.016,233.103 245.683,230.936 245.5,228.5C 253.963,230.066 262.463,231.399 271,232.5C 275.331,232.604 279.498,231.937 283.5,230.5C 285.027,230.573 286.027,229.906 286.5,228.5C 297.442,221.557 308.108,214.224 318.5,206.5 Z"/></g>
<g><path style="opacity:0.384" fill="#a7a7a7" d="M 286.5,228.5 C 286.027,229.906 285.027,230.573 283.5,230.5C 283.973,229.094 284.973,228.427 286.5,228.5 Z"/></g>
<g><path style="opacity:0.286" fill="#939393" d="M 367.5,242.5 C 367.573,244.027 366.906,245.027 365.5,245.5C 365.427,243.973 366.094,242.973 367.5,242.5 Z"/></g>
<g><path style="opacity:1" fill="#252827" d="M 126.5,250.5 C 129.416,268.621 131.749,286.954 133.5,305.5C 132.698,306.952 132.198,308.618 132,310.5C 131.667,309.5 131.333,308.5 131,307.5C 130.529,309.246 129.862,310.913 129,312.5C 126.577,309.751 124.577,306.751 123,303.5C 122.536,304.094 122.369,304.761 122.5,305.5C 119.584,287.377 117.251,269.044 115.5,250.5C 115.222,248.654 115.889,247.32 117.5,246.5C 120.013,247.848 121.847,249.848 123,252.5C 123.308,251.692 123.808,251.025 124.5,250.5C 125.738,254.311 126.404,254.311 126.5,250.5 Z"/></g>
<g><path style="opacity:0.361" fill="#a1a6a2" d="M 342.5,279.5 C 342.573,281.027 341.906,282.027 340.5,282.5C 340.427,280.973 341.094,279.973 342.5,279.5 Z"/></g>
<g><path style="opacity:0.945" fill="#717171" d="M 354.5,282.5 C 353.721,284.677 352.387,286.344 350.5,287.5C 351.148,285.914 351.648,284.247 352,282.5C 352.77,283.598 353.603,283.598 354.5,282.5 Z"/></g>
<g><path style="opacity:0.004" fill="#d2d2d2" d="M 350.5,288.5 C 350.5,289.833 349.833,290.5 348.5,290.5C 348.833,289.5 349.5,288.833 350.5,288.5 Z"/></g>
<g><path style="opacity:0.004" fill="#cccccc" d="M 330.5,313.5 C 330.5,314.833 329.833,315.5 328.5,315.5C 328.833,314.5 329.5,313.833 330.5,313.5 Z"/></g>
<g><path style="opacity:0.995" fill="#282c2b" d="M 133.5,305.5 C 134.655,313.475 135.321,321.642 135.5,330C 134.929,351.374 133.596,372.54 131.5,393.5C 131.666,388.821 131.499,384.155 131,379.5C 130.37,382.094 129.203,384.427 127.5,386.5C 126.914,386.291 126.414,385.957 126,385.5C 123.831,392.166 122.498,391.833 122,384.5C 121.722,385.416 121.222,386.082 120.5,386.5C 122.962,359.539 123.629,332.539 122.5,305.5C 122.369,304.761 122.536,304.094 123,303.5C 124.577,306.751 126.577,309.751 129,312.5C 129.862,310.913 130.529,309.246 131,307.5C 131.333,308.5 131.667,309.5 132,310.5C 132.198,308.618 132.698,306.952 133.5,305.5 Z"/></g>
<g><path style="opacity:0.004" fill="#c5c5c5" d="M 318.5,324.5 C 318.027,325.906 317.027,326.573 315.5,326.5C 315.973,325.094 316.973,324.427 318.5,324.5 Z"/></g>
<g><path style="opacity:0.435" fill="#aaaaaa" d="M 294.5,326.5 C 293.713,328.104 292.38,328.771 290.5,328.5C 291.514,327.326 292.847,326.66 294.5,326.5 Z"/></g>
<g><path style="opacity:0.985" fill="#262928" d="M 340.5,282.5 C 340.883,284.408 341.883,285.908 343.5,287C 343.167,287.333 342.833,287.667 342.5,288C 344.217,289.559 346.217,290.392 348.5,290.5C 343.965,299.362 337.965,307.029 330.5,313.5C 329.5,313.833 328.833,314.5 328.5,315.5C 325.658,318.942 322.325,321.942 318.5,324.5C 316.973,324.427 315.973,325.094 315.5,326.5C 302.549,334.987 289.882,343.987 277.5,353.5C 276.667,355.167 275.833,356.833 275,358.5C 274.827,364.016 274.327,369.349 273.5,374.5C 273.666,368.824 273.499,363.157 273,357.5C 272.333,356.167 271.667,354.833 271,353.5C 270.026,355.878 269.359,355.544 269,352.5C 268.667,353.167 268.333,353.833 268,354.5C 267.577,353.044 266.744,352.544 265.5,353C 264.901,354.622 264.234,356.122 263.5,357.5C 263.166,354.812 263.832,352.479 265.5,350.5C 266.906,350.027 267.573,349.027 267.5,347.5C 270.659,342.92 274.659,339.253 279.5,336.5C 281.027,336.573 282.027,335.906 282.5,334.5C 284.884,332.115 287.55,330.115 290.5,328.5C 292.38,328.771 293.713,328.104 294.5,326.5C 302.271,321.243 309.937,315.743 317.5,310C 326.161,301.52 333.827,292.353 340.5,282.5 Z"/></g>
<g><path style="opacity:0.38" fill="#a4a6a6" d="M 282.5,334.5 C 282.027,335.906 281.027,336.573 279.5,336.5C 279.973,335.094 280.973,334.427 282.5,334.5 Z"/></g>
<g><path style="opacity:0.573" fill="#9e9e9e" d="M 267.5,347.5 C 267.573,349.027 266.906,350.027 265.5,350.5C 265.427,348.973 266.094,347.973 267.5,347.5 Z"/></g>
<g><path style="opacity:0.998" fill="#242726" d="M 273.5,374.5 C 272.899,384.823 272.399,395.156 272,405.5C 271.855,409.523 271.021,413.356 269.5,417C 219.833,417.667 170.167,417.667 120.5,417C 120,416.5 119.5,416 119,415.5C 118.835,405.81 119.335,396.143 120.5,386.5C 121.222,386.082 121.722,385.416 122,384.5C 122.498,391.833 123.831,392.166 126,385.5C 126.414,385.957 126.914,386.291 127.5,386.5C 129.203,384.427 130.37,382.094 131,379.5C 131.499,384.155 131.666,388.821 131.5,393.5C 131.605,397.548 131.272,401.548 130.5,405.5C 173.833,405.5 217.167,405.5 260.5,405.5C 260.841,389.405 261.841,373.405 263.5,357.5C 264.234,356.122 264.901,354.622 265.5,353C 266.744,352.544 267.577,353.044 268,354.5C 268.333,353.833 268.667,353.167 269,352.5C 269.359,355.544 270.026,355.878 271,353.5C 271.667,354.833 272.333,356.167 273,357.5C 273.499,363.157 273.666,368.824 273.5,374.5 Z"/></g>
</svg>
