<?xml version="1.0" standalone="no"?>
<!DOCTYPE svg PUBLIC "-//W3C//DTD SVG 20010904//EN"
 "http://www.w3.org/TR/2001/REC-SVG-20010904/DTD/svg10.dtd">
<svg version="1.0" xmlns="http://www.w3.org/2000/svg"
 width="500.000000pt" height="500.000000pt" viewBox="0 0 500.000000 500.000000"
 preserveAspectRatio="xMidYMid meet">

<g transform="translate(0.000000,500.000000) scale(0.100000,-0.100000)"
fill="#000000" stroke="none">
<path d="M2285 4363 c-149 -13 -223 -58 -555 -346 -14 -12 -68 -58 -120 -102
-52 -44 -97 -82 -100 -85 -3 -3 -54 -48 -115 -100 -168 -144 -183 -160 -226
-223 -45 -68 -74 -154 -84 -247 -6 -66 -3 -108 35 -390 11 -85 34 -270 51
-410 90 -751 86 -688 60 -1111 -12 -200 -25 -393 -28 -430 -9 -109 -82 -99
747 -99 669 0 719 1 738 18 20 16 22 37 37 287 9 149 18 280 21 293 2 12 24
40 47 62 43 41 55 50 265 189 230 152 291 218 501 531 91 135 195 288 233 341
83 117 124 204 138 295 12 77 8 130 -27 298 -13 65 -28 169 -34 230 -16 181
-51 251 -146 296 -39 18 -60 22 -118 18 l-70 -5 0 48 c0 66 -44 125 -228 306
-168 165 -222 200 -352 227 -38 7 -133 28 -210 46 -245 55 -364 71 -460 63z
m305 -137 c288 -61 431 -96 467 -112 53 -25 365 -345 376 -386 7 -24 4 -37
-11 -57 -16 -22 -28 -26 -83 -29 -93 -4 -167 35 -281 150 l-88 89 -59 -16
c-122 -31 -299 -14 -423 42 -31 14 -64 23 -71 20 -8 -3 -36 -38 -62 -77 -29
-43 -126 -151 -238 -264 -104 -105 -197 -207 -207 -227 -33 -64 -45 -158 -30
-241 14 -82 54 -178 96 -234 75 -97 230 -198 389 -253 149 -51 218 -64 340
-65 l120 -1 85 42 c83 41 296 187 353 241 56 52 61 72 67 272 6 171 9 190 34
251 53 129 135 196 246 200 115 5 141 -31 159 -221 7 -63 19 -151 27 -195 47
-238 49 -249 34 -313 -18 -79 -50 -139 -140 -267 -42 -60 -141 -207 -220 -325
-185 -278 -256 -351 -495 -510 -252 -167 -305 -217 -326 -308 -5 -20 -14 -122
-20 -227 -6 -104 -14 -210 -17 -234 l-7 -45 -645 0 -645 -1 0 95 c0 52 9 230
19 395 19 304 16 434 -14 640 -5 33 -14 103 -20 155 -16 142 -89 735 -100 815
-28 193 -24 255 23 365 28 67 55 99 185 212 64 57 119 105 122 108 3 3 34 30
70 60 36 30 70 59 76 65 33 30 381 324 407 344 42 31 108 60 160 71 64 14 219
3 347 -24z m93 -476 c69 -11 104 -11 170 -1 l82 12 70 -68 c79 -76 179 -134
266 -154 l57 -13 -36 -73 c-34 -68 -39 -73 -68 -73 -79 0 -184 74 -236 167
l-30 53 -71 0 c-72 0 -223 32 -241 50 -20 20 -49 9 -89 -36 -59 -66 -138 -124
-247 -181 -80 -42 -99 -57 -119 -94 -42 -74 -71 -210 -71 -331 0 -60 -4 -108
-8 -108 -18 0 -73 69 -99 125 -22 48 -28 78 -31 148 -3 58 0 99 9 120 7 17 95
113 194 212 99 99 200 208 223 241 l43 62 72 -23 c40 -12 111 -28 160 -35z
m11 -225 c22 -8 75 -17 119 -21 l79 -7 36 -49 c65 -87 193 -167 270 -168 44 0
18 -66 -38 -95 -66 -34 -151 -13 -271 67 -31 20 -81 59 -111 87 -31 28 -61 51
-67 51 -7 0 -41 -17 -76 -38 -35 -21 -95 -49 -134 -61 -53 -17 -77 -30 -95
-54 -52 -67 -96 -258 -96 -410 l0 -59 -27 7 c-58 14 -63 27 -63 161 0 126 17
245 46 321 15 38 26 49 78 75 90 45 184 109 240 162 53 51 54 51 110 31z m52
-299 c56 -48 140 -99 209 -127 47 -19 78 -24 146 -24 55 0 92 5 101 13 20 16
28 -2 28 -58 0 -75 -19 -100 -141 -185 -31 -22 -85 -60 -119 -83 -141 -100
-222 -117 -390 -83 -58 12 -120 26 -137 32 l-33 11 0 86 c0 114 23 251 53 316
24 51 26 53 103 80 44 16 88 35 99 42 28 20 37 18 81 -20z"/>
</g>
</svg>
