<?xml version="1.0" standalone="no"?>
<!DOCTYPE svg PUBLIC "-//W3C//DTD SVG 20010904//EN"
 "http://www.w3.org/TR/2001/REC-SVG-20010904/DTD/svg10.dtd">
<svg version="1.0" xmlns="http://www.w3.org/2000/svg"
 width="500.000000pt" height="500.000000pt" viewBox="0 0 500.000000 500.000000"
 preserveAspectRatio="xMidYMid meet">

<g transform="translate(0.000000,500.000000) scale(0.100000,-0.100000)"
fill="#000000" stroke="none">
<path d="M2565 4688 c-77 -28 -121 -75 -195 -212 -69 -129 -89 -158 -89 -133
-1 24 -28 76 -55 105 -50 55 -159 71 -231 34 -58 -29 -89 -67 -128 -152 -28
-61 -127 -332 -127 -348 0 -2 -16 10 -36 28 -44 38 -73 50 -124 50 -63 0 -117
-27 -148 -74 -64 -94 -80 -229 -122 -978 -22 -385 -6 -678 48 -933 18 -82 66
-259 121 -440 42 -140 52 -189 57 -275 6 -98 -5 -305 -26 -515 -5 -49 -13
-149 -16 -220 -8 -150 -2 -171 65 -225 153 -121 608 -174 956 -111 196 35 298
79 346 149 21 32 24 45 22 121 -2 47 -8 127 -13 176 -6 50 -12 173 -13 275 -2
184 -2 185 26 245 47 99 119 176 312 331 274 220 462 447 553 670 52 124 63
215 42 339 -6 33 -14 134 -19 225 -9 177 -17 207 -68 254 -15 14 -39 28 -54
31 -24 5 -27 11 -31 58 -6 73 -32 121 -112 205 -123 130 -240 210 -366 252
-94 31 -260 38 -370 16 -82 -17 -232 -68 -258 -89 -19 -15 -27 0 -14 26 18 37
92 199 92 202 0 2 36 79 81 172 96 200 142 297 157 338 21 57 34 149 28 194
-9 63 -51 147 -89 174 -58 43 -140 57 -202 35z m100 -144 c43 -17 58 -120 30
-202 -9 -24 -50 -114 -91 -200 -42 -86 -88 -182 -101 -212 -14 -30 -40 -86
-58 -125 -18 -38 -62 -135 -98 -215 -111 -249 -129 -283 -188 -355 -88 -109
-159 -219 -159 -247 0 -32 34 -68 66 -68 39 0 61 16 91 68 33 57 25 45 122
162 43 52 98 114 122 136 59 56 181 136 249 162 265 104 476 69 686 -115 155
-136 179 -201 89 -239 -54 -22 -75 -17 -171 39 -152 90 -229 117 -327 117
-263 -3 -498 -269 -515 -581 -8 -160 38 -274 159 -390 102 -99 218 -143 369
-143 99 0 109 2 182 36 61 29 95 54 155 115 117 118 153 205 153 378 0 143 23
219 83 283 34 35 76 43 98 16 8 -10 15 -68 20 -172 4 -86 13 -192 20 -234 10
-62 10 -88 0 -134 -21 -90 -72 -203 -140 -303 -114 -169 -173 -230 -426 -436
-101 -83 -122 -101 -184 -164 -78 -79 -132 -161 -161 -244 -28 -80 -37 -267
-21 -462 6 -77 14 -177 18 -222 l6 -83 -56 -25 c-31 -13 -103 -34 -159 -47
-89 -19 -134 -22 -333 -22 -202 0 -243 3 -334 22 -57 13 -133 36 -169 52 l-65
30 6 88 c3 48 14 164 23 257 11 106 18 254 18 395 l0 225 -36 120 c-20 66 -46
152 -58 190 -63 203 -85 297 -117 500 -28 181 -16 764 27 1290 10 123 13 148
32 247 16 88 56 111 93 54 23 -34 21 -162 -5 -364 -11 -86 -24 -197 -31 -247
-6 -49 -15 -114 -20 -144 -11 -65 -12 -142 -1 -157 17 -25 53 -36 82 -24 35
14 45 40 60 155 13 106 25 198 41 315 20 156 85 390 187 675 65 185 89 231
129 250 31 15 36 15 58 1 59 -39 44 -160 -52 -431 -19 -55 -58 -163 -85 -240
-41 -115 -106 -326 -148 -480 -4 -16 -15 -52 -24 -80 -23 -71 -21 -111 6 -129
50 -35 109 -8 124 58 4 17 14 55 24 86 9 30 27 89 39 130 92 314 145 455 256
678 150 300 279 539 307 570 34 36 70 48 103 36z m382 -1465 c32 -12 69 -30
83 -39 38 -27 163 -90 177 -90 22 0 24 -19 7 -72 -9 -30 -20 -114 -24 -191 -7
-121 -12 -145 -36 -195 -34 -70 -113 -150 -179 -182 -66 -32 -172 -38 -250
-15 -139 40 -238 146 -266 284 -16 74 5 190 50 286 39 85 139 188 206 215 68
26 159 26 232 -1z"/>
</g>
</svg>
