<?xml version="1.0" encoding="UTF-8"?>
<!DOCTYPE svg PUBLIC "-//W3C//DTD SVG 1.1//EN" "http://www.w3.org/Graphics/SVG/1.1/DTD/svg11.dtd">
<svg xmlns="http://www.w3.org/2000/svg" version="1.1" width="500px" height="500px" style="shape-rendering:geometricPrecision; text-rendering:geometricPrecision; image-rendering:optimizeQuality; fill-rule:evenodd; clip-rule:evenodd" xmlns:xlink="http://www.w3.org/1999/xlink">
<g><path style="opacity:0.988" fill="#121212" d="M 281.5,38.5 C 281.229,40.3797 281.896,41.713 283.5,42.5C 287.063,55.3437 285.73,67.677 279.5,79.5C 277.896,80.287 277.229,81.6203 277.5,83.5C 277.008,85.8185 276.008,87.8185 274.5,89.5C 273.326,90.5137 272.66,91.847 272.5,93.5C 264.859,110.647 257.359,127.647 250,144.5C 290.415,124.623 325.248,131.623 354.5,165.5C 360.357,171.571 362.691,178.737 361.5,187C 368.489,188.655 373.322,192.821 376,199.5C 377.026,216.711 378.526,233.878 380.5,251C 380.112,260.276 377.945,269.109 374,277.5C 363.285,298.892 348.785,317.392 330.5,333C 322.349,339.907 314.016,346.574 305.5,353C 295.756,360.734 289.256,370.567 286,382.5C 285.833,386.333 285.667,390.167 285.5,394C 286.422,412.886 287.589,431.719 289,450.5C 288.083,454.164 286.25,457.33 283.5,460C 278.768,463.238 273.768,465.905 268.5,468C 238.337,474.539 208.004,475.205 177.5,470C 170.154,468.087 163.154,465.42 156.5,462C 149.873,457.376 146.873,451.043 147.5,443C 150.592,414.247 152.259,385.414 152.5,356.5C 152.829,353.772 152.163,351.438 150.5,349.5C 146.68,336.898 142.846,324.232 139,311.5C 136.687,302.582 134.853,293.582 133.5,284.5C 133.785,281.171 133.118,278.171 131.5,275.5C 128.003,247.911 127.503,220.245 130,192.5C 130.96,172.808 132.293,153.141 134,133.5C 134.737,123.671 136.404,114.004 139,104.5C 144.85,93.7672 153.684,90.2672 165.5,94C 167.985,95.4874 170.152,97.3208 172,99.5C 176.966,87.6507 181.633,75.6507 186,63.5C 187.94,58.7298 191.107,55.0631 195.5,52.5C 197.674,52.2503 199.341,51.2503 200.5,49.5C 211.815,46.2402 220.648,49.5735 227,59.5C 227.49,60.7932 227.657,62.1266 227.5,63.5C 227.369,64.2389 227.536,64.9056 228,65.5C 229.417,64.9221 230.25,63.9221 230.5,62.5C 233.739,54.3531 237.739,46.6864 242.5,39.5C 243.833,39.5 244.5,38.8333 244.5,37.5C 244.833,36.5 245.5,35.8333 246.5,35.5C 248.027,35.573 249.027,34.9063 249.5,33.5C 256.852,27.9167 264.852,27.0834 273.5,31C 276.666,33.0001 279.332,35.5001 281.5,38.5 Z M 240.5,124.5 C 239.655,125.671 238.989,127.005 238.5,128.5C 234.479,137.87 230.479,147.203 226.5,156.5C 225.094,156.973 224.427,157.973 224.5,159.5C 223.104,162.846 221.604,166.179 220,169.5C 217.585,172.014 215.419,174.681 213.5,177.5C 212.094,177.973 211.427,178.973 211.5,180.5C 208.791,183.208 206.458,186.208 204.5,189.5C 203.094,189.973 202.427,190.973 202.5,192.5C 197.234,197.624 197.234,202.791 202.5,208C 205.167,208.667 207.833,208.667 210.5,208C 215.867,201.433 220.867,194.6 225.5,187.5C 236.005,173.159 249.339,162.326 265.5,155C 286.649,146.128 306.649,148.128 325.5,161C 332.631,166.464 339.131,172.63 345,179.5C 346.651,181.754 346.818,184.088 345.5,186.5C 342.847,188.724 339.847,190.391 336.5,191.5C 327.797,186.203 318.797,181.369 309.5,177C 285.669,169.722 266.502,176.222 252,196.5C 242.17,210.967 238.17,226.967 240,244.5C 240.736,248.07 241.903,251.404 243.5,254.5C 243.229,256.38 243.896,257.713 245.5,258.5C 250.889,268.889 258.889,276.555 269.5,281.5C 270.514,282.674 271.847,283.34 273.5,283.5C 292.464,290.905 309.464,287.905 324.5,274.5C 325.833,274.5 326.5,273.833 326.5,272.5C 332.976,267.511 337.809,261.178 341,253.5C 342.667,240.172 344.334,226.838 346,213.5C 347.98,206.497 352.48,202.997 359.5,203C 360.227,204.399 360.727,205.899 361,207.5C 361.23,221.924 362.396,236.257 364.5,250.5C 364.122,255.632 363.122,260.632 361.5,265.5C 360.463,266.93 359.796,268.597 359.5,270.5C 353.495,281.851 346.495,292.518 338.5,302.5C 336.738,303.262 335.738,304.596 335.5,306.5C 334.167,306.5 333.5,307.167 333.5,308.5C 332.167,308.5 331.5,309.167 331.5,310.5C 320.017,320.143 308.35,329.643 296.5,339C 292.63,342.702 288.963,346.536 285.5,350.5C 283.457,351.579 282.124,353.246 281.5,355.5C 275.277,362.98 271.443,371.646 270,381.5C 268.935,402.638 270.101,423.638 273.5,444.5C 273.136,447.032 271.803,448.865 269.5,450C 266.97,450.379 264.637,451.213 262.5,452.5C 260.102,452.259 258.102,452.926 256.5,454.5C 255.833,454.5 255.167,454.5 254.5,454.5C 251.505,454.294 248.838,454.96 246.5,456.5C 228.166,457.813 209.833,457.813 191.5,456.5C 189.162,454.96 186.495,454.294 183.5,454.5C 176.473,453.069 169.973,450.402 164,446.5C 165.738,421.372 167.238,396.205 168.5,371C 168.376,363.807 167.876,356.64 167,349.5C 166.79,347.942 166.29,346.609 165.5,345.5C 165.59,342.848 164.924,340.515 163.5,338.5C 157.554,319.048 152.387,299.382 148,279.5C 145.96,265.757 144.794,251.924 144.5,238C 145.313,197.713 147.813,157.546 152,117.5C 152.511,115.122 153.178,112.788 154,110.5C 156.632,107.808 158.966,108.141 161,111.5C 161.315,114.372 161.815,117.205 162.5,120C 159.637,145.326 156.637,170.66 153.5,196C 153.67,204.932 158.004,207.599 166.5,204C 167.211,202.745 168.044,201.579 169,200.5C 171.191,175.205 175.191,150.205 181,125.5C 186.313,109.172 191.98,92.8387 198,76.5C 199.441,70.5699 202.941,66.5699 208.5,64.5C 210.741,65.0318 212.241,66.3651 213,68.5C 213.667,72.8333 213.667,77.1667 213,81.5C 210.156,91.5481 207.323,101.548 204.5,111.5C 202.896,112.287 202.229,113.62 202.5,115.5C 200.8,120.183 199.134,124.85 197.5,129.5C 196.463,130.93 195.796,132.597 195.5,134.5C 189.371,153.369 183.538,172.702 178,192.5C 176.833,200.667 180.333,204.167 188.5,203C 190.667,202.167 192.167,200.667 193,198.5C 198.841,178.463 204.674,158.463 210.5,138.5C 212.104,137.713 212.771,136.38 212.5,134.5C 224.537,107.76 237.703,81.4267 252,55.5C 254.045,52.5767 256.212,49.7433 258.5,47C 263.384,44.2587 266.884,45.4254 269,50.5C 269.667,54.5 269.667,58.5 269,62.5C 259.725,83.3767 250.225,104.043 240.5,124.5 Z M 325.5,203.5 C 326.514,204.674 327.847,205.34 329.5,205.5C 330.586,205.62 331.253,206.287 331.5,207.5C 330.018,211.349 328.852,215.349 328,219.5C 327.99,229.3 327.156,238.966 325.5,248.5C 323.896,249.287 323.229,250.62 323.5,252.5C 318.295,260.371 311.295,266.038 302.5,269.5C 300.447,269.402 298.78,270.069 297.5,271.5C 291.256,271.746 285.256,270.746 279.5,268.5C 277.574,267.514 275.574,266.514 273.5,265.5C 257.338,254.912 252.171,240.245 258,221.5C 261.837,206.996 270.67,196.829 284.5,191C 292.029,189.928 299.362,190.595 306.5,193C 312.534,197.018 318.867,200.518 325.5,203.5 Z"/></g>
<g><path style="opacity:0.337" fill="#9f9f9f" d="M 249.5,33.5 C 249.027,34.9063 248.027,35.573 246.5,35.5C 246.973,34.0937 247.973,33.427 249.5,33.5 Z"/></g>
<g><path style="opacity:0.365" fill="#b6b6b6" d="M 244.5,37.5 C 244.5,38.8333 243.833,39.5 242.5,39.5C 242.833,38.5 243.5,37.8333 244.5,37.5 Z"/></g>
<g><path style="opacity:0.149" fill="#bdbdbd" d="M 281.5,38.5 C 282.674,39.5137 283.34,40.847 283.5,42.5C 281.896,41.713 281.229,40.3797 281.5,38.5 Z"/></g>
<g><path style="opacity:0.169" fill="#949494" d="M 200.5,49.5 C 199.341,51.2503 197.674,52.2503 195.5,52.5C 196.659,50.7497 198.326,49.7497 200.5,49.5 Z"/></g>
<g><path style="opacity:0.439" fill="#828282" d="M 230.5,62.5 C 230.25,63.9221 229.417,64.9221 228,65.5C 227.536,64.9056 227.369,64.2389 227.5,63.5C 228.609,63.4431 229.609,63.1098 230.5,62.5 Z"/></g>
<g><path style="opacity:0.243" fill="#888888" d="M 279.5,79.5 C 279.34,81.153 278.674,82.4863 277.5,83.5C 277.229,81.6203 277.896,80.287 279.5,79.5 Z"/></g>
<g><path style="opacity:0.024" fill="#909090" d="M 274.5,89.5 C 274.771,91.3797 274.104,92.713 272.5,93.5C 272.66,91.847 273.326,90.5137 274.5,89.5 Z"/></g>
<g><path style="opacity:0.082" fill="#afafaf" d="M 204.5,111.5 C 204.34,113.153 203.674,114.486 202.5,115.5C 202.229,113.62 202.896,112.287 204.5,111.5 Z"/></g>
<g><path style="opacity:0.596" fill="#7f7f7f" d="M 240.5,124.5 C 240.843,126.483 240.176,127.817 238.5,128.5C 238.989,127.005 239.655,125.671 240.5,124.5 Z"/></g>
<g><path style="opacity:0.596" fill="#7f7f7f" d="M 197.5,129.5 C 197.88,131.698 197.213,133.365 195.5,134.5C 195.796,132.597 196.463,130.93 197.5,129.5 Z"/></g>
<g><path style="opacity:0.059" fill="#7c7c7c" d="M 212.5,134.5 C 212.771,136.38 212.104,137.713 210.5,138.5C 210.66,136.847 211.326,135.514 212.5,134.5 Z"/></g>
<g><path style="opacity:0.435" fill="#ababab" d="M 226.5,156.5 C 226.573,158.027 225.906,159.027 224.5,159.5C 224.427,157.973 225.094,156.973 226.5,156.5 Z"/></g>
<g><path style="opacity:0.365" fill="#8c8c8c" d="M 213.5,177.5 C 213.573,179.027 212.906,180.027 211.5,180.5C 211.427,178.973 212.094,177.973 213.5,177.5 Z"/></g>
<g><path style="opacity:0.157" fill="#989898" d="M 204.5,189.5 C 204.573,191.027 203.906,192.027 202.5,192.5C 202.427,190.973 203.094,189.973 204.5,189.5 Z"/></g>
<g><path style="opacity:0.055" fill="#d0d0d0" d="M 325.5,203.5 C 327.38,203.229 328.713,203.896 329.5,205.5C 327.847,205.34 326.514,204.674 325.5,203.5 Z"/></g>
<g><path style="opacity:0.047" fill="#bbbbbb" d="M 325.5,248.5 C 325.34,250.153 324.674,251.486 323.5,252.5C 323.229,250.62 323.896,249.287 325.5,248.5 Z"/></g>
<g><path style="opacity:0.008" fill="#969696" d="M 243.5,254.5 C 244.674,255.514 245.34,256.847 245.5,258.5C 243.896,257.713 243.229,256.38 243.5,254.5 Z"/></g>
<g><path style="opacity:0.741" fill="#7a7a7a" d="M 273.5,265.5 C 275.574,266.514 277.574,267.514 279.5,268.5C 276.607,268.969 274.607,267.969 273.5,265.5 Z"/></g>
<g><path style="opacity:0.682" fill="#888888" d="M 361.5,265.5 C 361.88,267.698 361.213,269.365 359.5,270.5C 359.796,268.597 360.463,266.93 361.5,265.5 Z"/></g>
<g><path style="opacity:0.298" fill="#939393" d="M 302.5,269.5 C 301.22,270.931 299.553,271.598 297.5,271.5C 298.78,270.069 300.447,269.402 302.5,269.5 Z"/></g>
<g><path style="opacity:0.008" fill="#c2c2c2" d="M 326.5,272.5 C 326.5,273.833 325.833,274.5 324.5,274.5C 324.833,273.5 325.5,272.833 326.5,272.5 Z"/></g>
<g><path style="opacity:0.222" fill="#939393" d="M 131.5,275.5 C 133.118,278.171 133.785,281.171 133.5,284.5C 132.343,281.727 131.676,278.727 131.5,275.5 Z"/></g>
<g><path style="opacity:0.102" fill="#adadad" d="M 269.5,281.5 C 271.38,281.229 272.713,281.896 273.5,283.5C 271.847,283.34 270.514,282.674 269.5,281.5 Z"/></g>
<g><path style="opacity:0.333" fill="#818181" d="M 338.5,302.5 C 338.262,304.404 337.262,305.738 335.5,306.5C 335.738,304.596 336.738,303.262 338.5,302.5 Z"/></g>
<g><path style="opacity:0.224" fill="#b5b5b5" d="M 333.5,308.5 C 333.167,309.5 332.5,310.167 331.5,310.5C 331.5,309.167 332.167,308.5 333.5,308.5 Z"/></g>
<g><path style="opacity:0.194" fill="#838383" d="M 163.5,338.5 C 164.924,340.515 165.59,342.848 165.5,345.5C 164.076,343.485 163.41,341.152 163.5,338.5 Z"/></g>
<g><path style="opacity:0.482" fill="#727272" d="M 285.5,350.5 C 284.864,352.795 283.531,354.461 281.5,355.5C 282.124,353.246 283.457,351.579 285.5,350.5 Z"/></g>
<g><path style="opacity:0.416" fill="#939393" d="M 150.5,349.5 C 152.163,351.438 152.829,353.772 152.5,356.5C 151.388,354.401 150.721,352.067 150.5,349.5 Z"/></g>
<g><path style="opacity:0.159" fill="#afafaf" d="M 262.5,452.5 C 260.786,453.738 258.786,454.405 256.5,454.5C 258.102,452.926 260.102,452.259 262.5,452.5 Z"/></g>
<g><path style="opacity:0.537" fill="#898989" d="M 183.5,454.5 C 186.495,454.294 189.162,454.96 191.5,456.5C 188.572,456.435 185.905,455.768 183.5,454.5 Z"/></g>
<g><path style="opacity:0.298" fill="#7f7f7f" d="M 254.5,454.5 C 252.095,455.768 249.428,456.435 246.5,456.5C 248.838,454.96 251.505,454.294 254.5,454.5 Z"/></g>
</svg>
