<?xml version="1.0" standalone="no"?>
<!DOCTYPE svg PUBLIC "-//W3C//DTD SVG 20010904//EN"
 "http://www.w3.org/TR/2001/REC-SVG-20010904/DTD/svg10.dtd">
<svg version="1.0" xmlns="http://www.w3.org/2000/svg"
 width="500.000000pt" height="500.000000pt" viewBox="0 0 500.000000 500.000000"
 preserveAspectRatio="xMidYMid meet">

<g transform="translate(0.000000,500.000000) scale(0.100000,-0.100000)"
fill="#000000" stroke="none">
<path d="M2055 4648 c-35 -19 -86 -72 -105 -108 -47 -93 -72 -357 -110 -1155
-16 -332 -28 -477 -61 -700 -18 -122 -28 -145 -84 -204 -108 -113 -165 -214
-165 -294 0 -157 119 -613 216 -825 24 -53 25 -60 14 -117 -24 -118 -37 -160
-199 -624 -34 -96 -61 -180 -61 -187 0 -7 10 -19 22 -25 29 -16 49 9 76 93 11
35 37 108 57 163 76 206 152 432 165 493 7 34 15 62 17 62 2 0 16 -12 31 -26
38 -36 110 -77 122 -69 19 12 10 27 -49 87 -75 75 -134 187 -194 368 -73 217
-137 493 -137 586 0 91 36 147 214 334 187 195 231 236 281 259 46 22 59 23
155 17 58 -3 167 -9 243 -13 80 -3 141 -11 146 -17 13 -16 16 -46 7 -94 -19
-101 -195 -211 -366 -227 -36 -3 -70 -9 -75 -13 -6 -4 -28 -43 -50 -86 -44
-87 -114 -170 -182 -217 -46 -32 -58 -71 -26 -83 24 -10 116 50 180 117 50 53
57 57 66 40 6 -10 26 -31 45 -48 122 -105 177 -193 208 -331 16 -75 15 -206
-2 -332 -6 -39 -4 -44 12 -40 12 2 27 24 43 63 20 50 24 79 25 175 1 143 -15
217 -70 328 -32 63 -40 88 -31 94 22 14 32 8 55 -34 28 -53 77 -88 142 -100
55 -10 119 2 144 27 21 21 28 19 51 -15 28 -42 90 -70 156 -70 79 0 126 32
200 138 30 41 31 42 90 42 52 0 60 2 57 18 -2 11 -14 18 -33 20 -45 5 -48 14
-17 63 52 82 103 194 96 212 -11 30 -39 19 -64 -25 -53 -94 -187 -286 -235
-335 -49 -50 -54 -53 -102 -53 -45 0 -54 4 -78 32 -48 57 -29 124 128 437 111
221 127 241 194 241 49 0 104 -25 130 -59 39 -48 43 -79 43 -309 0 -495 -85
-874 -253 -1122 -49 -73 -167 -183 -225 -209 -42 -20 -52 -29 -50 -45 2 -17 9
-21 36 -18 35 2 37 -3 22 -43 -6 -15 -40 -137 -76 -272 -58 -218 -64 -247 -51
-261 19 -19 67 -8 67 15 0 9 5 30 10 47 6 17 35 122 65 232 66 246 96 324 142
367 19 18 53 57 76 87 23 30 44 57 47 60 6 5 36 55 70 115 53 96 121 308 155
485 41 219 62 746 33 831 -40 117 -163 200 -271 182 l-37 -6 0 42 c0 84 -56
164 -142 201 -41 18 -65 21 -120 18 l-68 -4 0 49 c0 52 -33 133 -72 174 -63
67 -209 89 -300 44 -27 -12 -60 -36 -75 -52 -16 -16 -31 -29 -35 -29 -4 0 -9
289 -10 643 l-3 642 -24 54 c-33 73 -92 111 -170 111 -31 0 -65 -6 -76 -12z
m118 -80 c67 -36 67 -31 67 -601 0 -282 5 -618 11 -747 8 -181 7 -249 -2 -297
l-13 -63 -50 0 c-89 0 -155 -34 -267 -138 -59 -54 -61 -55 -55 -27 19 94 46
413 61 725 33 680 62 994 100 1074 34 71 96 102 148 74z m487 -1361 c54 -36
75 -81 75 -162 0 -56 -6 -84 -29 -137 l-30 -67 -135 5 c-75 3 -155 7 -179 10
l-42 5 6 42 c10 65 60 212 86 251 34 52 82 75 154 76 47 0 69 -5 94 -23z m355
-291 c38 -29 65 -82 65 -126 0 -40 -35 -140 -75 -212 -54 -95 -171 -336 -194
-397 -42 -112 -96 -159 -171 -146 -54 9 -90 52 -90 108 0 23 16 87 36 142 19
55 43 125 53 156 10 31 30 72 44 91 45 58 58 102 56 187 -1 42 3 86 9 97 6 10
17 35 26 55 28 65 56 80 144 75 48 -3 70 -10 97 -30z m-480 -528 c-42 -148
-97 -228 -154 -228 -76 0 -124 56 -119 138 l3 47 77 12 c43 7 99 22 125 32 66
26 76 26 68 -1z"/>
</g>
</svg>
