<?xml version="1.0" encoding="UTF-8"?>
<!DOCTYPE svg PUBLIC "-//W3C//DTD SVG 1.1//EN" "http://www.w3.org/Graphics/SVG/1.1/DTD/svg11.dtd">
<svg xmlns="http://www.w3.org/2000/svg" version="1.1" width="500px" height="500px" style="shape-rendering:geometricPrecision; text-rendering:geometricPrecision; image-rendering:optimizeQuality; fill-rule:evenodd; clip-rule:evenodd" xmlns:xlink="http://www.w3.org/1999/xlink">
<g><path style="opacity:0.995" fill="#1a1b1a" d="M 232.5,51.5 C 231.466,50.3129 230.133,49.4796 228.5,49C 231.318,46.1308 230.652,44.6308 226.5,44.5C 226.598,41.7524 225.598,41.0857 223.5,42.5C 221.684,41.3794 219.684,40.8794 217.5,41C 217.167,41.3333 216.833,41.6667 216.5,42C 217.833,42.3333 219.167,42.6667 220.5,43C 219.748,43.6708 219.414,44.5041 219.5,45.5C 214.833,41.5 210.167,41.5 205.5,45.5C 204.833,45.5 204.167,45.5 203.5,45.5C 202.316,44.3121 202.316,43.1455 203.5,42C 203,41.5 202.5,41 202,40.5C 201.691,41.7659 201.191,42.9326 200.5,44C 201.604,45.1313 201.271,45.9646 199.5,46.5C 198.808,45.9747 198.308,45.3081 198,44.5C 197.167,46 196,47.1667 194.5,48C 196.158,48.7253 196.658,49.892 196,51.5C 195.29,50.0267 194.124,49.3601 192.5,49.5C 192.737,50.791 192.404,51.791 191.5,52.5C 191.343,51.1266 191.51,49.7932 192,48.5C 193.082,46.3819 194.249,44.3819 195.5,42.5C 197.935,41.7298 199.269,40.0632 199.5,37.5C 201.428,35.5259 203.761,34.0259 206.5,33C 221.176,30.8554 229.843,37.022 232.5,51.5 Z"/></g>
<g><path style="opacity:0.953" fill="#5c5e5d" d="M 199.5,37.5 C 199.269,40.0632 197.935,41.7298 195.5,42.5C 196.08,40.2512 197.413,38.5846 199.5,37.5 Z"/></g>
<g><path style="opacity:1" fill="#050706" d="M 232.5,51.5 C 231.218,54.1206 230.218,58.1206 229.5,63.5C 228.505,68.7921 228.172,74.1254 228.5,79.5C 227.5,79.5 226.5,79.5 225.5,79.5C 224.99,71.9579 225.656,64.6246 227.5,57.5C 227.1,54.3011 226.1,51.3011 224.5,48.5C 224.709,47.914 225.043,47.414 225.5,47C 224.313,45.9805 223.313,44.8139 222.5,43.5C 222.624,42.8933 222.957,42.56 223.5,42.5C 225.598,41.0857 226.598,41.7524 226.5,44.5C 230.652,44.6308 231.318,46.1308 228.5,49C 230.133,49.4796 231.466,50.3129 232.5,51.5 Z"/></g>
<g><path style="opacity:0.643" fill="#868786" d="M 219.5,45.5 C 221.048,45.8212 221.715,46.8212 221.5,48.5C 220.599,47.7095 219.932,46.7095 219.5,45.5 Z"/></g>
<g><path style="opacity:0.989" fill="#030504" d="M 223.5,42.5 C 222.957,42.56 222.624,42.8933 222.5,43.5C 223.313,44.8139 224.313,45.9805 225.5,47C 225.043,47.414 224.709,47.914 224.5,48.5C 226.1,51.3011 227.1,54.3011 227.5,57.5C 225.656,64.6246 224.99,71.9579 225.5,79.5C 226.5,79.5 227.5,79.5 228.5,79.5C 228.736,87.1337 228.403,94.8003 227.5,102.5C 227.44,103.043 227.107,103.376 226.5,103.5C 225.702,101.922 225.202,100.256 225,98.5C 224.802,100.382 224.302,102.048 223.5,103.5C 224.153,85.1356 223.487,67.1356 221.5,49.5C 221.5,49.1667 221.5,48.8333 221.5,48.5C 221.715,46.8212 221.048,45.8212 219.5,45.5C 219.414,44.5041 219.748,43.6708 220.5,43C 219.167,42.6667 217.833,42.3333 216.5,42C 216.833,41.6667 217.167,41.3333 217.5,41C 219.684,40.8794 221.684,41.3794 223.5,42.5 Z"/></g>
<g><path style="opacity:0.953" fill="#5f605f" d="M 203.5,45.5 C 204.167,45.5 204.833,45.5 205.5,45.5C 204.404,48.0316 203.071,50.3649 201.5,52.5C 202.138,50.54 202.138,48.7067 201.5,47C 202.044,46.2828 202.711,45.7828 203.5,45.5 Z"/></g>
<g><path style="opacity:0.271" fill="#9ea0a0" d="M 221.5,49.5 C 223.487,67.1356 224.153,85.1356 223.5,103.5C 223.5,112.167 223.5,120.833 223.5,129.5C 223.5,141.5 223.5,153.5 223.5,165.5C 222.828,126.931 222.161,88.2644 221.5,49.5 Z"/></g>
<g><path style="opacity:0.991" fill="#161716" d="M 203.5,45.5 C 202.711,45.7828 202.044,46.2828 201.5,47C 202.138,48.7067 202.138,50.54 201.5,52.5C 200.15,60.9629 198.817,69.2962 197.5,77.5C 198.093,73.3207 197.093,69.6541 194.5,66.5C 193.035,68.4236 191.368,68.7569 189.5,67.5C 189.091,62.3077 189.758,57.3077 191.5,52.5C 192.404,51.791 192.737,50.791 192.5,49.5C 194.124,49.3601 195.29,50.0267 196,51.5C 196.658,49.892 196.158,48.7253 194.5,48C 196,47.1667 197.167,46 198,44.5C 198.308,45.3081 198.808,45.9747 199.5,46.5C 201.271,45.9646 201.604,45.1313 200.5,44C 201.191,42.9326 201.691,41.7659 202,40.5C 202.5,41 203,41.5 203.5,42C 202.316,43.1455 202.316,44.3121 203.5,45.5 Z"/></g>
<g><path style="opacity:1" fill="#1a1b1a" d="M 232.5,51.5 C 233.497,69.3256 233.83,87.3256 233.5,105.5C 233.167,105.5 232.833,105.5 232.5,105.5C 232.667,90.8295 232.5,76.1629 232,61.5C 231.831,75.6727 231.331,89.6727 230.5,103.5C 229.791,102.596 228.791,102.263 227.5,102.5C 228.403,94.8003 228.736,87.1337 228.5,79.5C 228.172,74.1254 228.505,68.7921 229.5,63.5C 230.218,58.1206 231.218,54.1206 232.5,51.5 Z"/></g>
<g><path style="opacity:0.998" fill="#1a1b1a" d="M 197.5,77.5 C 197.5,79.1667 197.5,80.8333 197.5,82.5C 195.85,88.25 195.184,94.25 195.5,100.5C 195.244,113.676 194.577,126.676 193.5,139.5C 193.666,133.824 193.499,128.157 193,122.5C 191.284,121.448 190.284,122.114 190,124.5C 189.667,122.833 189.333,121.167 189,119.5C 186.718,122.574 185.218,125.907 184.5,129.5C 185.043,118.506 185.543,107.506 186,96.5C 186.757,86.6306 187.924,76.964 189.5,67.5C 191.368,68.7569 193.035,68.4236 194.5,66.5C 197.093,69.6541 198.093,73.3207 197.5,77.5 Z"/></g>
<g><path style="opacity:0.214" fill="#797a79" d="M 197.5,82.5 C 197.243,88.6876 196.577,94.6876 195.5,100.5C 195.184,94.25 195.85,88.25 197.5,82.5 Z"/></g>
<g><path style="opacity:0.999" fill="#040605" d="M 227.5,102.5 C 228.791,102.263 229.791,102.596 230.5,103.5C 228.42,105.51 228.087,107.843 229.5,110.5C 228.975,111.192 228.308,111.692 227.5,112C 228.678,112.967 230.011,113.467 231.5,113.5C 229.078,115.048 229.078,116.714 231.5,118.5C 230.689,119.216 230.022,120.05 229.5,121C 230.811,123.462 231.811,125.962 232.5,128.5C 232.5,131.833 232.5,135.167 232.5,138.5C 230.349,134.719 229.349,135.386 229.5,140.5C 228.504,140.414 227.671,140.748 227,141.5C 226.667,138.5 226.333,135.5 226,132.5C 225.623,131.058 224.79,130.058 223.5,129.5C 223.5,120.833 223.5,112.167 223.5,103.5C 224.302,102.048 224.802,100.382 225,98.5C 225.202,100.256 225.702,101.922 226.5,103.5C 227.107,103.376 227.44,103.043 227.5,102.5 Z"/></g>
<g><path style="opacity:0.999" fill="#040605" d="M 232.5,105.5 C 232.5,113.167 232.5,120.833 232.5,128.5C 231.811,125.962 230.811,123.462 229.5,121C 230.022,120.05 230.689,119.216 231.5,118.5C 229.078,116.714 229.078,115.048 231.5,113.5C 230.011,113.467 228.678,112.967 227.5,112C 228.308,111.692 228.975,111.192 229.5,110.5C 228.087,107.843 228.42,105.51 230.5,103.5C 231.331,89.6727 231.831,75.6727 232,61.5C 232.5,76.1629 232.667,90.8295 232.5,105.5 Z"/></g>
<g><path style="opacity:1" fill="#1c1d1c" d="M 193.5,139.5 C 193.15,153.005 192.483,166.338 191.5,179.5C 191.5,170.833 191.5,162.167 191.5,153.5C 189.876,153.36 188.71,154.027 188,155.5C 187,154.167 186,152.833 185,151.5C 184.809,153.708 184.309,155.708 183.5,157.5C 183.173,147.985 183.506,138.652 184.5,129.5C 185.218,125.907 186.718,122.574 189,119.5C 189.333,121.167 189.667,122.833 190,124.5C 190.284,122.114 191.284,121.448 193,122.5C 193.499,128.157 193.666,133.824 193.5,139.5 Z"/></g>
<g><path style="opacity:0.954" fill="#030504" d="M 223.5,129.5 C 224.79,130.058 225.623,131.058 226,132.5C 226.333,135.5 226.667,138.5 227,141.5C 227.671,140.748 228.504,140.414 229.5,140.5C 229.5,141.5 229.5,142.5 229.5,143.5C 228.167,143.5 226.833,143.5 225.5,143.5C 225.5,146.167 225.5,148.833 225.5,151.5C 226.5,151.5 227.5,151.5 228.5,151.5C 228.658,154.902 228.324,158.236 227.5,161.5C 226.448,161.351 225.448,161.517 224.5,162C 226.844,162.837 228.844,164.171 230.5,166C 230.477,170.615 229.977,175.115 229,179.5C 228.667,178.5 228.333,177.5 228,176.5C 227.667,178.167 227.333,179.833 227,181.5C 226.95,176.102 225.783,171.102 223.5,166.5C 223.5,166.167 223.5,165.833 223.5,165.5C 223.5,153.5 223.5,141.5 223.5,129.5 Z"/></g>
<g><path style="opacity:1" fill="#040605" d="M 232.5,138.5 C 232.5,148.167 232.5,157.833 232.5,167.5C 231.377,165.255 230.211,162.921 229,160.5C 228.617,161.056 228.117,161.389 227.5,161.5C 228.324,158.236 228.658,154.902 228.5,151.5C 227.5,151.5 226.5,151.5 225.5,151.5C 225.5,148.833 225.5,146.167 225.5,143.5C 226.833,143.5 228.167,143.5 229.5,143.5C 229.5,142.5 229.5,141.5 229.5,140.5C 229.349,135.386 230.349,134.719 232.5,138.5 Z"/></g>
<g><path style="opacity:0.293" fill="#6a6c6c" d="M 232.5,105.5 C 232.833,105.5 233.167,105.5 233.5,105.5C 233.169,129.672 233.502,153.672 234.5,177.5C 234.5,177.833 234.5,178.167 234.5,178.5C 234.44,179.043 234.107,179.376 233.5,179.5C 232.509,175.555 232.176,171.555 232.5,167.5C 232.5,157.833 232.5,148.167 232.5,138.5C 232.5,135.167 232.5,131.833 232.5,128.5C 232.5,120.833 232.5,113.167 232.5,105.5 Z"/></g>
<g><path style="opacity:0.999" fill="#1b1c1c" d="M 191.5,179.5 C 191.806,182.385 191.473,185.052 190.5,187.5C 191.035,184.762 190.035,182.928 187.5,182C 188.833,181 188.833,180 187.5,179C 189.992,177.751 189.825,176.584 187,175.5C 186.779,178.943 185.779,179.276 184,176.5C 183.667,173.833 183.333,171.167 183,168.5C 182.5,175.826 182.334,183.159 182.5,190.5C 182.5,191.167 182.167,191.5 181.5,191.5C 181.117,179.951 181.784,168.618 183.5,157.5C 184.309,155.708 184.809,153.708 185,151.5C 186,152.833 187,154.167 188,155.5C 188.71,154.027 189.876,153.36 191.5,153.5C 191.5,162.167 191.5,170.833 191.5,179.5 Z"/></g>
<g><path style="opacity:0.99" fill="#141615" d="M 232.5,167.5 C 232.176,171.555 232.509,175.555 233.5,179.5C 234.107,179.376 234.44,179.043 234.5,178.5C 237.149,178.852 239.815,179.185 242.5,179.5C 241.271,180.281 239.938,180.781 238.5,181C 239.305,182.113 239.972,183.279 240.5,184.5C 239.342,187.989 238.009,191.322 236.5,194.5C 236.5,192.5 236.5,190.5 236.5,188.5C 233.579,188.146 231.246,189.146 229.5,191.5C 228.304,191.154 228.304,190.654 229.5,190C 228.552,189.517 227.552,189.351 226.5,189.5C 226.768,191.099 226.434,192.432 225.5,193.5C 225.81,190.287 225.477,187.287 224.5,184.5C 223.51,178.69 223.177,172.69 223.5,166.5C 225.783,171.102 226.95,176.102 227,181.5C 227.333,179.833 227.667,178.167 228,176.5C 228.333,177.5 228.667,178.5 229,179.5C 229.977,175.115 230.477,170.615 230.5,166C 228.844,164.171 226.844,162.837 224.5,162C 225.448,161.517 226.448,161.351 227.5,161.5C 228.117,161.389 228.617,161.056 229,160.5C 230.211,162.921 231.377,165.255 232.5,167.5 Z"/></g>
<g><path style="opacity:0.968" fill="#191a19" d="M 265.5,168.5 C 266.171,170.861 265.338,172.861 263,174.5C 258.537,175.158 254.037,175.491 249.5,175.5C 247.897,175.688 246.563,175.188 245.5,174C 247.246,173.529 248.913,172.862 250.5,172C 248.563,171.878 247.23,171.045 246.5,169.5C 248.403,169.204 250.07,168.537 251.5,167.5C 256.155,166.197 260.821,166.531 265.5,168.5 Z"/></g>
<g><path style="opacity:0.765" fill="#666767" d="M 251.5,167.5 C 250.07,168.537 248.403,169.204 246.5,169.5C 245.833,169.5 245.167,169.5 244.5,169.5C 246.515,168.076 248.848,167.41 251.5,167.5 Z"/></g>
<g><path style="opacity:0.977" fill="#1c1c1c" d="M 244.5,169.5 C 245.167,169.5 245.833,169.5 246.5,169.5C 247.23,171.045 248.563,171.878 250.5,172C 248.913,172.862 247.246,173.529 245.5,174C 246.563,175.188 247.897,175.688 249.5,175.5C 249.833,176.167 250.167,176.833 250.5,177.5C 246.817,179.341 243.484,181.674 240.5,184.5C 239.972,183.279 239.305,182.113 238.5,181C 239.938,180.781 241.271,180.281 242.5,179.5C 239.815,179.185 237.149,178.852 234.5,178.5C 234.5,178.167 234.5,177.833 234.5,177.5C 235.906,177.027 236.573,176.027 236.5,174.5C 238.027,174.573 239.027,173.906 239.5,172.5C 240.659,170.75 242.326,169.75 244.5,169.5 Z"/></g>
<g><path style="opacity:0.353" fill="#969698" d="M 239.5,172.5 C 239.027,173.906 238.027,174.573 236.5,174.5C 236.973,173.094 237.973,172.427 239.5,172.5 Z"/></g>
<g><path style="opacity:0.838" fill="#2e2e2e" d="M 265.5,168.5 C 272.103,170.77 276.769,175.103 279.5,181.5C 277.894,180.641 276.227,180.474 274.5,181C 274.165,179.836 274.165,178.503 274.5,177C 273.167,176.333 271.833,175.667 270.5,175C 270.957,174.586 271.291,174.086 271.5,173.5C 270.311,172.571 268.978,172.238 267.5,172.5C 266.81,175.593 267.81,178.426 270.5,181C 269.944,181.383 269.611,181.883 269.5,182.5C 268.5,182.167 267.833,181.5 267.5,180.5C 267.027,179.094 266.027,178.427 264.5,178.5C 259.897,177.617 255.23,177.283 250.5,177.5C 250.167,176.833 249.833,176.167 249.5,175.5C 254.037,175.491 258.537,175.158 263,174.5C 265.338,172.861 266.171,170.861 265.5,168.5 Z"/></g>
<g><path style="opacity:0.996" fill="#060807" d="M 190.5,187.5 C 190.5,191.5 190.5,195.5 190.5,199.5C 189.698,198.048 189.198,196.382 189,194.5C 188.122,197.257 187.122,199.924 186,202.5C 184.833,201 183.667,199.5 182.5,198C 184.045,196.312 185.045,194.312 185.5,192C 184.756,190.961 183.756,190.461 182.5,190.5C 182.334,183.159 182.5,175.826 183,168.5C 183.333,171.167 183.667,173.833 184,176.5C 185.779,179.276 186.779,178.943 187,175.5C 189.825,176.584 189.992,177.751 187.5,179C 188.833,180 188.833,181 187.5,182C 190.035,182.928 191.035,184.762 190.5,187.5 Z"/></g>
<g><path style="opacity:0.314" fill="#9b9c9b" d="M 236.5,174.5 C 236.573,176.027 235.906,177.027 234.5,177.5C 234.427,175.973 235.094,174.973 236.5,174.5 Z"/></g>
<g><path style="opacity:0.231" fill="#a6a8a6" d="M 264.5,178.5 C 266.027,178.427 267.027,179.094 267.5,180.5C 265.973,180.573 264.973,179.906 264.5,178.5 Z"/></g>
<g><path style="opacity:0.114" fill="#a3a5a4" d="M 279.5,181.5 C 280.931,182.78 281.598,184.447 281.5,186.5C 280.069,185.22 279.402,183.553 279.5,181.5 Z"/></g>
<g><path style="opacity:0.995" fill="#161717" d="M 279.5,181.5 C 279.402,183.553 280.069,185.22 281.5,186.5C 282.161,189.787 282.661,193.12 283,196.5C 287.267,195.178 291.434,195.178 295.5,196.5C 292.833,196.5 290.167,196.5 287.5,196.5C 285.089,196.137 283.589,197.137 283,199.5C 282.667,198.833 282.333,198.167 282,197.5C 281,199.5 280,201.5 279,203.5C 276.891,202.965 276.391,201.965 277.5,200.5C 276.746,197.223 276.246,193.89 276,190.5C 275.021,197.783 274.688,204.783 275,211.5C 272.366,210.308 271.532,210.974 272.5,213.5C 271.448,213.649 270.448,213.483 269.5,213C 270.711,212.107 270.711,211.274 269.5,210.5C 268.824,211.602 268.158,212.602 267.5,213.5C 268.431,209.709 269.764,206.043 271.5,202.5C 273.017,200.538 273.684,198.205 273.5,195.5C 273.493,193.631 273.16,191.964 272.5,190.5C 271.751,187.799 270.751,185.132 269.5,182.5C 269.611,181.883 269.944,181.383 270.5,181C 267.81,178.426 266.81,175.593 267.5,172.5C 268.978,172.238 270.311,172.571 271.5,173.5C 271.291,174.086 270.957,174.586 270.5,175C 271.833,175.667 273.167,176.333 274.5,177C 274.165,178.503 274.165,179.836 274.5,181C 276.227,180.474 277.894,180.641 279.5,181.5 Z"/></g>
<g><path style="opacity:0.975" fill="#202221" d="M 182.5,190.5 C 183.756,190.461 184.756,190.961 185.5,192C 185.045,194.312 184.045,196.312 182.5,198C 183.667,199.5 184.833,201 186,202.5C 187.122,199.924 188.122,197.257 189,194.5C 189.198,196.382 189.698,198.048 190.5,199.5C 190.795,201.735 190.461,203.735 189.5,205.5C 188.841,202.592 188.007,202.258 187,204.5C 186.111,203.112 185.611,203.278 185.5,205C 185.905,205.945 186.572,206.612 187.5,207C 186.584,207.374 185.75,207.874 185,208.5C 183.793,214.155 182.46,214.488 181,209.5C 180.79,211.058 180.29,212.391 179.5,213.5C 179.228,205.937 179.895,198.603 181.5,191.5C 182.167,191.5 182.5,191.167 182.5,190.5 Z"/></g>
<g><path style="opacity:0.218" fill="#7e7f7e" d="M 272.5,190.5 C 273.16,191.964 273.493,193.631 273.5,195.5C 273.684,198.205 273.017,200.538 271.5,202.5C 272.272,198.548 272.605,194.548 272.5,190.5 Z"/></g>
<g><path style="opacity:0.988" fill="#070908" d="M 287.5,196.5 C 290.167,196.5 292.833,196.5 295.5,196.5C 296.167,196.5 296.833,196.5 297.5,196.5C 298.091,197.151 298.757,197.818 299.5,198.5C 298.359,199.425 298.359,200.259 299.5,201C 298.128,201.402 296.795,201.902 295.5,202.5C 294.808,201.975 294.308,201.308 294,200.5C 292.887,201.76 292.72,202.927 293.5,204C 290.964,204.186 288.631,204.686 286.5,205.5C 285.833,205.5 285.167,205.5 284.5,205.5C 283.833,205.167 283.167,204.833 282.5,204.5C 282.196,203.85 281.863,203.183 281.5,202.5C 283.527,201.307 285.027,199.64 286,197.5C 286.451,199.929 287.285,200.096 288.5,198C 287.944,197.617 287.611,197.117 287.5,196.5 Z"/></g>
<g><path style="opacity:0.435" fill="#8b8e8d" d="M 236.5,195.5 C 236.125,197.698 235.458,199.698 234.5,201.5C 234.054,198.99 234.72,196.99 236.5,195.5 Z"/></g>
<g><path style="opacity:0.353" fill="#555655" d="M 224.5,184.5 C 225.477,187.287 225.81,190.287 225.5,193.5C 225.666,197.514 225.499,201.514 225,205.5C 224.722,206.416 224.222,207.082 223.5,207.5C 224.398,199.876 224.731,192.209 224.5,184.5 Z"/></g>
<g><path style="opacity:1" fill="#040605" d="M 236.5,194.5 C 236.5,194.833 236.5,195.167 236.5,195.5C 234.72,196.99 234.054,198.99 234.5,201.5C 232.926,203.102 232.259,205.102 232.5,207.5C 231.603,206.402 230.77,206.402 230,207.5C 229.549,205.071 228.715,204.904 227.5,207C 227.833,207.333 228.167,207.667 228.5,208C 226.922,209.094 225.255,209.928 223.5,210.5C 223.5,209.833 223.5,209.167 223.5,208.5C 223.5,208.167 223.5,207.833 223.5,207.5C 224.222,207.082 224.722,206.416 225,205.5C 225.499,201.514 225.666,197.514 225.5,193.5C 226.434,192.432 226.768,191.099 226.5,189.5C 227.552,189.351 228.552,189.517 229.5,190C 228.304,190.654 228.304,191.154 229.5,191.5C 231.246,189.146 233.579,188.146 236.5,188.5C 236.5,190.5 236.5,192.5 236.5,194.5 Z"/></g>
<g><path style="opacity:0.407" fill="#757877" d="M 234.5,201.5 C 234.142,204.689 233.475,207.689 232.5,210.5C 232.5,209.5 232.5,208.5 232.5,207.5C 232.259,205.102 232.926,203.102 234.5,201.5 Z"/></g>
<g><path style="opacity:0.98" fill="#494949" d="M 282.5,204.5 C 283.167,204.833 283.833,205.167 284.5,205.5C 281.5,207.167 279.167,209.5 277.5,212.5C 277.197,208.41 278.864,205.743 282.5,204.5 Z"/></g>
<g><path style="opacity:0.948" fill="#3d3f3e" d="M 309.5,204.5 C 310.376,204.369 311.043,204.702 311.5,205.5C 314.924,210.266 316.257,215.599 315.5,221.5C 316.5,221.5 317.5,221.5 318.5,221.5C 317.432,222.434 316.099,222.768 314.5,222.5C 314.665,219.482 314.498,216.482 314,213.5C 312.644,212.62 311.144,212.286 309.5,212.5C 313.394,210.774 313.061,209.274 308.5,208C 308.619,206.855 308.952,205.688 309.5,204.5 Z"/></g>
<g><path style="opacity:1" fill="#030504" d="M 287.5,196.5 C 287.611,197.117 287.944,197.617 288.5,198C 287.285,200.096 286.451,199.929 286,197.5C 285.027,199.64 283.527,201.307 281.5,202.5C 281.863,203.183 282.196,203.85 282.5,204.5C 278.864,205.743 277.197,208.41 277.5,212.5C 275.787,213.635 275.12,215.302 275.5,217.5C 274.143,216.41 273.143,215.076 272.5,213.5C 271.532,210.974 272.366,210.308 275,211.5C 274.688,204.783 275.021,197.783 276,190.5C 276.246,193.89 276.746,197.223 277.5,200.5C 276.391,201.965 276.891,202.965 279,203.5C 280,201.5 281,199.5 282,197.5C 282.333,198.167 282.667,198.833 283,199.5C 283.589,197.137 285.089,196.137 287.5,196.5 Z"/></g>
<g><path style="opacity:1" fill="#232424" d="M 297.5,196.5 C 302.881,197.233 306.881,199.9 309.5,204.5C 308.952,205.688 308.619,206.855 308.5,208C 313.061,209.274 313.394,210.774 309.5,212.5C 309.062,213.506 308.396,213.506 307.5,212.5C 306.883,212.611 306.383,212.944 306,213.5C 305.583,212.244 304.75,211.577 303.5,211.5C 298.925,206.751 293.258,204.751 286.5,205.5C 288.631,204.686 290.964,204.186 293.5,204C 292.72,202.927 292.887,201.76 294,200.5C 294.308,201.308 294.808,201.975 295.5,202.5C 296.795,201.902 298.128,201.402 299.5,201C 298.359,200.259 298.359,199.425 299.5,198.5C 298.757,197.818 298.091,197.151 297.5,196.5 Z"/></g>
<g><path style="opacity:0.451" fill="#888a89" d="M 223.5,208.5 C 223.5,209.167 223.5,209.833 223.5,210.5C 223.5,211.5 223.5,212.5 223.5,213.5C 219.5,213.5 215.5,213.5 211.5,213.5C 214.962,212.518 218.629,212.185 222.5,212.5C 222.232,210.901 222.566,209.568 223.5,208.5 Z"/></g>
<g><path style="opacity:0.991" fill="#0d0e0d" d="M 272.5,213.5 C 273.143,215.076 274.143,216.41 275.5,217.5C 274.89,218.391 274.557,219.391 274.5,220.5C 273.833,225.681 273.167,231.015 272.5,236.5C 271.943,238.332 270.943,239.665 269.5,240.5C 267.549,240.227 266.049,240.893 265,242.5C 263.959,241.529 263.126,240.529 262.5,239.5C 264.213,238.365 264.88,236.698 264.5,234.5C 265.219,232.236 265.552,229.903 265.5,227.5C 265.167,225.167 263.833,223.833 261.5,223.5C 249.803,223.746 238.136,223.413 226.5,222.5C 226.971,221.099 227.638,219.766 228.5,218.5C 229.72,219.711 230.887,219.711 232,218.5C 232.333,219.167 232.667,219.833 233,220.5C 236.031,216.289 237.031,216.622 236,221.5C 236.561,220.978 237.228,220.645 238,220.5C 243.773,221.868 249.607,222.368 255.5,222C 256.997,220.129 258.997,219.129 261.5,219C 260.892,218.13 260.059,217.63 259,217.5C 257.211,218.409 255.377,218.576 253.5,218C 254.167,217.667 254.833,217.333 255.5,217C 254.167,216.667 252.833,216.333 251.5,216C 252.416,215.722 253.082,215.222 253.5,214.5C 256.85,214.614 260.183,214.947 263.5,215.5C 265.333,215.415 266.666,214.748 267.5,213.5C 268.158,212.602 268.824,211.602 269.5,210.5C 270.711,211.274 270.711,212.107 269.5,213C 270.448,213.483 271.448,213.649 272.5,213.5 Z"/></g>
<g><path style="opacity:0.99" fill="#111312" d="M 189.5,205.5 C 189.073,209.824 188.739,214.158 188.5,218.5C 187.232,220.905 186.565,223.572 186.5,226.5C 184.97,228.941 182.637,230.108 179.5,230C 181.044,230.29 182.377,230.956 183.5,232C 183.146,233.626 183.146,235.459 183.5,237.5C 182.719,235.372 181.719,235.205 180.5,237C 180.962,238.722 181.128,240.555 181,242.5C 181.333,242.167 181.667,241.833 182,241.5C 184,243.5 184,245.5 182,247.5C 180.16,246.167 179.66,246.334 180.5,248C 179.5,248.667 178.5,248.667 177.5,248C 178.634,246.984 178.301,246.317 176.5,246C 180.185,245.086 179.852,244.419 175.5,244C 176.672,243.581 177.672,242.915 178.5,242C 177.423,241.53 176.423,241.697 175.5,242.5C 176.265,239.904 176.599,237.237 176.5,234.5C 177.052,227.301 178.052,220.301 179.5,213.5C 180.29,212.391 180.79,211.058 181,209.5C 182.46,214.488 183.793,214.155 185,208.5C 185.75,207.874 186.584,207.374 187.5,207C 186.572,206.612 185.905,205.945 185.5,205C 185.611,203.278 186.111,203.112 187,204.5C 188.007,202.258 188.841,202.592 189.5,205.5 Z"/></g>
<g><path style="opacity:0.127" fill="#c2c4c4" d="M 238.5,213.5 C 248.265,213.721 257.931,213.721 267.5,213.5C 266.666,214.748 265.333,215.415 263.5,215.5C 260.183,214.947 256.85,214.614 253.5,214.5C 248.305,214.821 243.305,214.487 238.5,213.5 Z"/></g>
<g><path style="opacity:0.275" fill="#959695" d="M 277.5,212.5 C 277.204,214.403 276.537,216.07 275.5,217.5C 275.12,215.302 275.787,213.635 277.5,212.5 Z"/></g>
<g><path style="opacity:1" fill="#0c0e0d" d="M 232.5,207.5 C 232.5,208.5 232.5,209.5 232.5,210.5C 232.5,211.5 232.5,212.5 232.5,213.5C 234.5,213.5 236.5,213.5 238.5,213.5C 243.305,214.487 248.305,214.821 253.5,214.5C 253.082,215.222 252.416,215.722 251.5,216C 252.833,216.333 254.167,216.667 255.5,217C 254.833,217.333 254.167,217.667 253.5,218C 255.377,218.576 257.211,218.409 259,217.5C 260.059,217.63 260.892,218.13 261.5,219C 258.997,219.129 256.997,220.129 255.5,222C 249.607,222.368 243.773,221.868 238,220.5C 237.228,220.645 236.561,220.978 236,221.5C 237.031,216.622 236.031,216.289 233,220.5C 232.667,219.833 232.333,219.167 232,218.5C 230.887,219.711 229.72,219.711 228.5,218.5C 227.638,219.766 226.971,221.099 226.5,222.5C 222.487,221.295 218.487,221.295 214.5,222.5C 212.856,222.714 211.356,222.38 210,221.5C 209.085,222.328 208.419,223.328 208,224.5C 205.959,223.577 203.792,223.244 201.5,223.5C 201.567,222.041 201.234,220.708 200.5,219.5C 201.5,219.167 202.167,218.5 202.5,217.5C 205.088,215.375 208.088,214.042 211.5,213.5C 215.5,213.5 219.5,213.5 223.5,213.5C 223.5,212.5 223.5,211.5 223.5,210.5C 225.255,209.928 226.922,209.094 228.5,208C 228.167,207.667 227.833,207.333 227.5,207C 228.715,204.904 229.549,205.071 230,207.5C 230.77,206.402 231.603,206.402 232.5,207.5 Z"/></g>
<g><path style="opacity:0.475" fill="#818382" d="M 202.5,217.5 C 202.167,218.5 201.5,219.167 200.5,219.5C 200.167,219.5 199.833,219.5 199.5,219.5C 199.973,218.094 200.973,217.427 202.5,217.5 Z"/></g>
<g><path style="opacity:0.995" fill="#202221" d="M 199.5,219.5 C 199.833,219.5 200.167,219.5 200.5,219.5C 201.234,220.708 201.567,222.041 201.5,223.5C 203.792,223.244 205.959,223.577 208,224.5C 208.419,223.328 209.085,222.328 210,221.5C 211.356,222.38 212.856,222.714 214.5,222.5C 209.962,224.294 205.629,226.628 201.5,229.5C 200.5,229.833 199.833,230.5 199.5,231.5C 199.167,231.5 198.833,231.5 198.5,231.5C 198.53,230.503 198.03,229.836 197,229.5C 193.927,229.297 190.76,229.63 187.5,230.5C 190.874,226.124 194.874,222.458 199.5,219.5 Z"/></g>
<g><path style="opacity:0.447" fill="#3f4140" d="M 303.5,211.5 C 304.75,211.577 305.583,212.244 306,213.5C 306.383,212.944 306.883,212.611 307.5,212.5C 307.633,215.999 307.8,219.666 308,223.5C 308.75,224.126 309.584,224.626 310.5,225C 308.497,225.335 306.83,226.168 305.5,227.5C 307.29,221.818 306.623,216.485 303.5,211.5 Z"/></g>
<g><path style="opacity:1" fill="#141515" d="M 307.5,212.5 C 308.396,213.506 309.062,213.506 309.5,212.5C 311.144,212.286 312.644,212.62 314,213.5C 314.498,216.482 314.665,219.482 314.5,222.5C 316.099,222.768 317.432,222.434 318.5,221.5C 320.167,221.5 321.833,221.5 323.5,221.5C 322.003,222.306 320.336,222.972 318.5,223.5C 317.772,225.193 316.772,226.693 315.5,228C 317.027,229.368 318.527,229.868 320,229.5C 320.5,229 321,228.5 321.5,228C 320.376,227.751 319.376,227.251 318.5,226.5C 319.76,225.618 320.926,224.618 322,223.5C 322.903,224.701 324.069,225.535 325.5,226C 323.993,226.837 323.493,228.004 324,229.5C 324.333,229.167 324.667,228.833 325,228.5C 328.037,229.709 331.204,230.543 334.5,231C 334.435,232.829 334.102,234.662 333.5,236.5C 328.826,231.768 323.16,230.268 316.5,232C 313.18,234.48 310.846,237.647 309.5,241.5C 308.175,242.953 307.342,242.619 307,240.5C 306.163,242.007 304.996,242.507 303.5,242C 302.594,240.301 302.261,238.467 302.5,236.5C 303.331,233.341 304.331,230.341 305.5,227.5C 306.83,226.168 308.497,225.335 310.5,225C 309.584,224.626 308.75,224.126 308,223.5C 307.8,219.666 307.633,215.999 307.5,212.5 Z"/></g>
<g><path style="opacity:0.616" fill="#868886" d="M 261.5,223.5 C 263.833,223.833 265.167,225.167 265.5,227.5C 263.833,226.5 262.5,225.167 261.5,223.5 Z"/></g>
<g><path style="opacity:0.165" fill="#a7a9a9" d="M 188.5,218.5 C 188.58,221.781 187.913,224.781 186.5,227.5C 186.5,227.167 186.5,226.833 186.5,226.5C 186.565,223.572 187.232,220.905 188.5,218.5 Z"/></g>
<g><path style="opacity:0.992" fill="#0e100f" d="M 186.5,226.5 C 186.5,226.833 186.5,227.167 186.5,227.5C 186.263,228.791 186.596,229.791 187.5,230.5C 190.76,229.63 193.927,229.297 197,229.5C 198.03,229.836 198.53,230.503 198.5,231.5C 198.167,232.167 197.833,232.833 197.5,233.5C 197.5,234.833 196.833,235.5 195.5,235.5C 193.799,235.966 192.299,235.966 191,235.5C 189.197,239.335 187.864,239.669 187,236.5C 185.959,238.311 184.793,238.645 183.5,237.5C 183.146,235.459 183.146,233.626 183.5,232C 182.377,230.956 181.044,230.29 179.5,230C 182.637,230.108 184.97,228.941 186.5,226.5 Z"/></g>
<g><path style="opacity:0.008" fill="#c2c3c3" d="M 201.5,229.5 C 201.5,230.833 200.833,231.5 199.5,231.5C 199.833,230.5 200.5,229.833 201.5,229.5 Z"/></g>
<g><path style="opacity:1" fill="#050706" d="M 323.5,221.5 C 323.833,221.5 324.167,221.5 324.5,221.5C 325.469,222.309 326.302,223.309 327,224.5C 327.414,224.043 327.914,223.709 328.5,223.5C 330.22,224.955 332.22,225.788 334.5,226C 333.833,226.333 333.167,226.667 332.5,227C 336.539,228.441 338.206,231.108 337.5,235C 338.784,235.684 339.951,235.517 341,234.5C 339.869,236.977 340.369,239.143 342.5,241C 342,241.5 341.5,242 341,242.5C 339.951,240.893 338.451,240.227 336.5,240.5C 336.446,238.368 335.446,237.035 333.5,236.5C 334.102,234.662 334.435,232.829 334.5,231C 331.204,230.543 328.037,229.709 325,228.5C 324.667,228.833 324.333,229.167 324,229.5C 323.493,228.004 323.993,226.837 325.5,226C 324.069,225.535 322.903,224.701 322,223.5C 320.926,224.618 319.76,225.618 318.5,226.5C 319.376,227.251 320.376,227.751 321.5,228C 321,228.5 320.5,229 320,229.5C 318.527,229.868 317.027,229.368 315.5,228C 316.772,226.693 317.772,225.193 318.5,223.5C 320.336,222.972 322.003,222.306 323.5,221.5 Z"/></g>
<g><path style="opacity:0.008" fill="#bec0bf" d="M 198.5,231.5 C 198.833,231.5 199.167,231.5 199.5,231.5C 199.5,232.833 198.833,233.5 197.5,233.5C 197.833,232.833 198.167,232.167 198.5,231.5 Z"/></g>
<g><path style="opacity:0.776" fill="#787878" d="M 333.5,236.5 C 335.446,237.035 336.446,238.368 336.5,240.5C 336.5,240.833 336.5,241.167 336.5,241.5C 335.263,240.035 334.263,238.368 333.5,236.5 Z"/></g>
<g><path style="opacity:0.322" fill="#868988" d="M 176.5,234.5 C 176.599,237.237 176.265,239.904 175.5,242.5C 175.167,242.5 174.833,242.5 174.5,242.5C 174.802,239.627 175.469,236.961 176.5,234.5 Z"/></g>
<g><path style="opacity:0.608" fill="#898b8a" d="M 264.5,234.5 C 264.88,236.698 264.213,238.365 262.5,239.5C 262.796,237.597 263.463,235.93 264.5,234.5 Z"/></g>
<g><path style="opacity:0.686" fill="#898a8a" d="M 344.5,236.5 C 345.738,238.214 346.405,240.214 346.5,242.5C 344.926,240.898 344.259,238.898 344.5,236.5 Z"/></g>
<g><path style="opacity:0.998" fill="#242524" d="M 262.5,239.5 C 263.126,240.529 263.959,241.529 265,242.5C 266.049,240.893 267.549,240.227 269.5,240.5C 268.929,241.973 268.929,243.64 269.5,245.5C 268.833,246.833 267.833,247.833 266.5,248.5C 265.829,247.153 265.829,245.986 266.5,245C 263.647,243.296 261.313,243.296 259.5,245C 259.905,245.945 260.572,246.612 261.5,247C 259.735,247.64 258.068,247.473 256.5,246.5C 256.5,246.167 256.5,245.833 256.5,245.5C 258.167,243.167 260.167,241.167 262.5,239.5 Z"/></g>
<g><path style="opacity:0.98" fill="#4f504f" d="M 274.5,220.5 C 274.666,226.176 274.499,231.843 274,237.5C 273.14,240.633 271.64,243.3 269.5,245.5C 268.929,243.64 268.929,241.973 269.5,240.5C 270.943,239.665 271.943,238.332 272.5,236.5C 273.167,231.015 273.833,225.681 274.5,220.5 Z"/></g>
<g><path style="opacity:0.997" fill="#1c1d1c" d="M 302.5,236.5 C 302.261,238.467 302.594,240.301 303.5,242C 304.996,242.507 306.163,242.007 307,240.5C 307.342,242.619 308.175,242.953 309.5,241.5C 307.468,245.186 305.468,248.852 303.5,252.5C 301.167,252.5 298.833,252.5 296.5,252.5C 296.5,250.833 296.5,249.167 296.5,247.5C 297.742,243.345 299.742,239.678 302.5,236.5 Z"/></g>
<g><path style="opacity:0.545" fill="#8b8d8c" d="M 174.5,243.5 C 174.715,245.179 174.048,246.179 172.5,246.5C 172.932,245.29 173.599,244.29 174.5,243.5 Z"/></g>
<g><path style="opacity:0.518" fill="#8f908f" d="M 256.5,245.5 C 256.5,245.833 256.5,246.167 256.5,246.5C 254.784,248.025 252.784,249.025 250.5,249.5C 252.147,247.674 254.147,246.34 256.5,245.5 Z"/></g>
<g><path style="opacity:0.146" fill="#939494" d="M 336.5,242.5 C 337.117,242.611 337.617,242.944 338,243.5C 338.499,247.486 338.666,251.486 338.5,255.5C 337.717,251.307 337.051,246.973 336.5,242.5 Z"/></g>
<g><path style="opacity:1" fill="#1e1f1f" d="M 324.5,221.5 C 333.746,223.082 340.413,228.082 344.5,236.5C 344.259,238.898 344.926,240.898 346.5,242.5C 347.787,255.974 347.787,269.307 346.5,282.5C 346.5,273.167 346.5,263.833 346.5,254.5C 345.178,254.67 344.011,254.337 343,253.5C 341.725,255.717 340.725,258.051 340,260.5C 339.617,259.944 339.117,259.611 338.5,259.5C 338.5,258.167 338.5,256.833 338.5,255.5C 338.666,251.486 338.499,247.486 338,243.5C 337.617,242.944 337.117,242.611 336.5,242.5C 336.5,242.167 336.5,241.833 336.5,241.5C 336.5,241.167 336.5,240.833 336.5,240.5C 338.451,240.227 339.951,240.893 341,242.5C 341.5,242 342,241.5 342.5,241C 340.369,239.143 339.869,236.977 341,234.5C 339.951,235.517 338.784,235.684 337.5,235C 338.206,231.108 336.539,228.441 332.5,227C 333.167,226.667 333.833,226.333 334.5,226C 332.22,225.788 330.22,224.955 328.5,223.5C 327.914,223.709 327.414,224.043 327,224.5C 326.302,223.309 325.469,222.309 324.5,221.5 Z"/></g>
<g><path style="opacity:0.983" fill="#222322" d="M 296.5,247.5 C 296.5,249.167 296.5,250.833 296.5,252.5C 298.833,252.5 301.167,252.5 303.5,252.5C 299.462,260.855 295.462,269.188 291.5,277.5C 291.271,275.567 290.438,273.9 289,272.5C 286.647,274.347 284.147,276.013 281.5,277.5C 285.449,266.935 290.449,256.935 296.5,247.5 Z"/></g>
<g><path style="opacity:0.991" fill="#151615" d="M 183.5,237.5 C 184.793,238.645 185.959,238.311 187,236.5C 187.864,239.669 189.197,239.335 191,235.5C 192.299,235.966 193.799,235.966 195.5,235.5C 190.843,241.489 185.843,247.156 180.5,252.5C 179.167,252.5 178.5,253.167 178.5,254.5C 177.5,256.167 176.167,257.5 174.5,258.5C 173.504,258.586 172.671,258.252 172,257.5C 171.5,258.667 170.667,259.5 169.5,260C 170.712,261.107 170.379,261.607 168.5,261.5C 167.233,262.087 166.233,262.087 165.5,261.5C 165.196,259.801 165.196,257.468 165.5,254.5C 167.914,253.089 169.581,251.089 170.5,248.5C 170.833,247.5 171.5,246.833 172.5,246.5C 174.048,246.179 174.715,245.179 174.5,243.5C 174.5,243.167 174.5,242.833 174.5,242.5C 174.833,242.5 175.167,242.5 175.5,242.5C 176.423,241.697 177.423,241.53 178.5,242C 177.672,242.915 176.672,243.581 175.5,244C 179.852,244.419 180.185,245.086 176.5,246C 178.301,246.317 178.634,246.984 177.5,248C 178.5,248.667 179.5,248.667 180.5,248C 179.66,246.334 180.16,246.167 182,247.5C 184,245.5 184,243.5 182,241.5C 181.667,241.833 181.333,242.167 181,242.5C 181.128,240.555 180.962,238.722 180.5,237C 181.719,235.205 182.719,235.372 183.5,237.5 Z"/></g>
<g><path style="opacity:1" fill="#141514" d="M 266.5,248.5 C 265.833,250.5 265.167,252.5 264.5,254.5C 261.28,255.509 260.614,257.509 262.5,260.5C 262.672,261.492 262.338,262.158 261.5,262.5C 261.167,262.5 260.833,262.5 260.5,262.5C 259.5,262.167 258.833,261.5 258.5,260.5C 259.239,260.631 259.906,260.464 260.5,260C 257.998,258.504 256.331,256.337 255.5,253.5C 254.914,253.709 254.414,254.043 254,254.5C 253.577,253.044 252.744,252.544 251.5,253C 252.28,254.073 252.113,255.24 251,256.5C 250,253.833 249,253.833 248,256.5C 247.517,255.552 247.351,254.552 247.5,253.5C 245.833,253.5 244.167,253.5 242.5,253.5C 244.849,251.659 247.515,250.326 250.5,249.5C 252.784,249.025 254.784,248.025 256.5,246.5C 258.068,247.473 259.735,247.64 261.5,247C 260.572,246.612 259.905,245.945 259.5,245C 261.313,243.296 263.647,243.296 266.5,245C 265.829,245.986 265.829,247.153 266.5,248.5 Z"/></g>
<g><path style="opacity:0.447" fill="#9c9d9d" d="M 170.5,248.5 C 169.581,251.089 167.914,253.089 165.5,254.5C 166.419,251.911 168.086,249.911 170.5,248.5 Z"/></g>
<g><path style="opacity:0.031" fill="#dadbda" d="M 180.5,252.5 C 180.167,253.5 179.5,254.167 178.5,254.5C 178.5,253.167 179.167,252.5 180.5,252.5 Z"/></g>
<g><path style="opacity:1" fill="#0b0c0c" d="M 258.5,260.5 C 256.482,259.067 254.815,259.401 253.5,261.5C 253.719,260.325 253.386,259.325 252.5,258.5C 251.893,258.624 251.56,258.957 251.5,259.5C 251.167,259.5 250.833,259.5 250.5,259.5C 248.597,259.796 246.93,260.463 245.5,261.5C 244.791,262.404 243.791,262.737 242.5,262.5C 240.5,262.167 238.5,261.833 236.5,261.5C 236.5,259.5 236.5,257.5 236.5,255.5C 239.01,255.946 241.01,255.28 242.5,253.5C 244.167,253.5 245.833,253.5 247.5,253.5C 247.351,254.552 247.517,255.552 248,256.5C 249,253.833 250,253.833 251,256.5C 252.113,255.24 252.28,254.073 251.5,253C 252.744,252.544 253.577,253.044 254,254.5C 254.414,254.043 254.914,253.709 255.5,253.5C 256.331,256.337 257.998,258.504 260.5,260C 259.906,260.464 259.239,260.631 258.5,260.5 Z"/></g>
<g><path style="opacity:1" fill="#111212" d="M 346.5,282.5 C 346.822,288.358 346.489,294.025 345.5,299.5C 343.71,298.987 342.044,298.487 340.5,298C 341.061,299.676 342.061,301.009 343.5,302C 341.924,302.44 340.59,303.273 339.5,304.5C 338.808,303.975 338.308,303.308 338,302.5C 337.502,299.183 337.335,295.85 337.5,292.5C 337.23,284.445 337.563,276.445 338.5,268.5C 338.5,265.833 338.5,263.167 338.5,260.5C 338.5,260.167 338.5,259.833 338.5,259.5C 339.117,259.611 339.617,259.944 340,260.5C 340.725,258.051 341.725,255.717 343,253.5C 344.011,254.337 345.178,254.67 346.5,254.5C 346.5,263.833 346.5,273.167 346.5,282.5 Z"/></g>
<g><path style="opacity:0.998" fill="#686969" d="M 264.5,254.5 C 264.125,256.698 263.458,258.698 262.5,260.5C 260.614,257.509 261.28,255.509 264.5,254.5 Z"/></g>
<g><path style="opacity:1" fill="#1d1e1d" d="M 242.5,253.5 C 241.01,255.28 239.01,255.946 236.5,255.5C 236.5,257.5 236.5,259.5 236.5,261.5C 238.5,261.833 240.5,262.167 242.5,262.5C 237.766,264.077 232.766,264.911 227.5,265C 226.956,265.717 226.289,266.217 225.5,266.5C 224.196,264.793 223.03,263.126 222,261.5C 219.046,263.875 218.88,266.375 221.5,269C 220.668,269.688 220.002,269.521 219.5,268.5C 218.902,267.205 218.402,265.872 218,264.5C 217.583,265.756 216.75,266.423 215.5,266.5C 217.027,263.281 218.693,260.115 220.5,257C 227.96,256.541 235.293,255.374 242.5,253.5 Z"/></g>
<g><path style="opacity:0.984" fill="#161717" d="M 258.5,260.5 C 258.833,261.5 259.5,262.167 260.5,262.5C 260.371,264.216 260.038,265.883 259.5,267.5C 258.768,271.787 257.435,275.787 255.5,279.5C 254.778,279.082 254.278,278.416 254,277.5C 252.053,278.11 250.219,278.943 248.5,280C 251.849,280.089 252.349,281.256 250,283.5C 248,282.167 246,282.167 244,283.5C 243.667,282.833 243.333,282.167 243,281.5C 242.329,282.252 241.496,282.586 240.5,282.5C 243.557,280.444 245.891,277.778 247.5,274.5C 248.674,273.486 249.34,272.153 249.5,270.5C 249.595,268.214 250.262,266.214 251.5,264.5C 252.401,263.71 253.068,262.71 253.5,261.5C 254.815,259.401 256.482,259.067 258.5,260.5 Z"/></g>
<g><path style="opacity:0.984" fill="#171818" d="M 165.5,254.5 C 165.196,257.468 165.196,259.801 165.5,261.5C 166.233,262.087 167.233,262.087 168.5,261.5C 168.5,262.5 168.5,263.5 168.5,264.5C 162.47,265.208 160.47,268.542 162.5,274.5C 162.672,275.492 162.338,276.158 161.5,276.5C 160.791,275.596 159.791,275.263 158.5,275.5C 157.25,275.423 156.417,274.756 156,273.5C 155.29,274.973 154.124,275.64 152.5,275.5C 152.846,271.148 154.512,267.481 157.5,264.5C 159.262,263.738 160.262,262.404 160.5,260.5C 161.443,257.891 163.11,255.891 165.5,254.5 Z"/></g>
<g><path style="opacity:0.012" fill="#cecece" d="M 250.5,259.5 C 249.365,261.213 247.698,261.88 245.5,261.5C 246.93,260.463 248.597,259.796 250.5,259.5 Z"/></g>
<g><path style="opacity:0.561" fill="#949494" d="M 160.5,260.5 C 160.262,262.404 159.262,263.738 157.5,264.5C 157.738,262.596 158.738,261.262 160.5,260.5 Z"/></g>
<g><path style="opacity:0.788" fill="#6d6f6e" d="M 251.5,259.5 C 251.56,258.957 251.893,258.624 252.5,258.5C 253.386,259.325 253.719,260.325 253.5,261.5C 253.068,262.71 252.401,263.71 251.5,264.5C 252.096,262.602 252.096,260.935 251.5,259.5 Z"/></g>
<g><path style="opacity:0.01" fill="#ababab" d="M 337.5,260.5 C 337.833,260.5 338.167,260.5 338.5,260.5C 338.5,263.167 338.5,265.833 338.5,268.5C 337.833,267.5 337.167,266.5 336.5,265.5C 336.629,263.784 336.962,262.117 337.5,260.5 Z"/></g>
<g><path style="opacity:0.051" fill="#c1c3c1" d="M 260.5,262.5 C 260.833,262.5 261.167,262.5 261.5,262.5C 261.88,264.698 261.213,266.365 259.5,267.5C 260.038,265.883 260.371,264.216 260.5,262.5 Z"/></g>
<g><path style="opacity:0.972" fill="#1a1b1b" d="M 337.5,260.5 C 336.962,262.117 336.629,263.784 336.5,265.5C 335.533,268.434 334.2,271.1 332.5,273.5C 330.896,274.287 330.229,275.62 330.5,277.5C 329.223,280.553 327.556,283.386 325.5,286C 327.5,286.333 329.5,286.667 331.5,287C 333.466,288.347 333.799,289.847 332.5,291.5C 327.806,292.104 323.472,291.271 319.5,289C 320.022,288.439 320.355,287.772 320.5,287C 318.987,285.121 318.321,282.954 318.5,280.5C 319.906,280.027 320.573,279.027 320.5,277.5C 322.719,276.172 324.052,274.172 324.5,271.5C 326.512,266.653 329.179,262.153 332.5,258C 335.262,256.923 336.928,257.756 337.5,260.5 Z"/></g>
<g><path style="opacity:0.997" fill="#2b2d2c" d="M 174.5,258.5 C 170.084,263.574 166.084,268.908 162.5,274.5C 160.47,268.542 162.47,265.208 168.5,264.5C 168.5,263.5 168.5,262.5 168.5,261.5C 170.379,261.607 170.712,261.107 169.5,260C 170.667,259.5 171.5,258.667 172,257.5C 172.671,258.252 173.504,258.586 174.5,258.5 Z"/></g>
<g><path style="opacity:0.998" fill="#070908" d="M 225.5,266.5 C 224.686,268.631 224.186,270.964 224,273.5C 223.586,273.043 223.086,272.709 222.5,272.5C 221.12,274.862 219.787,277.195 218.5,279.5C 217.662,279.842 217.328,280.508 217.5,281.5C 217.5,282.167 217.167,282.5 216.5,282.5C 215.038,283.471 213.705,283.138 212.5,281.5C 212.196,280.85 211.863,280.183 211.5,279.5C 213.413,277.709 215.08,275.709 216.5,273.5C 215.397,273.002 214.397,272.669 213.5,272.5C 214.09,271.201 215.09,270.368 216.5,270C 215.748,269.329 215.414,268.496 215.5,267.5C 215.5,267.167 215.5,266.833 215.5,266.5C 216.75,266.423 217.583,265.756 218,264.5C 218.402,265.872 218.902,267.205 219.5,268.5C 220.002,269.521 220.668,269.688 221.5,269C 218.88,266.375 219.046,263.875 222,261.5C 223.03,263.126 224.196,264.793 225.5,266.5 Z"/></g>
<g><path style="opacity:0.129" fill="#989a99" d="M 249.5,270.5 C 249.34,272.153 248.674,273.486 247.5,274.5C 247.229,272.62 247.896,271.287 249.5,270.5 Z"/></g>
<g><path style="opacity:0.964" fill="#171818" d="M 158.5,275.5 C 158.123,277.258 157.456,278.925 156.5,280.5C 157.243,282.638 157.91,284.804 158.5,287C 157.576,288.15 157.576,289.15 158.5,290C 156.109,291.309 156.109,292.309 158.5,293C 156.892,293.658 155.725,293.158 155,291.5C 154.536,292.094 154.369,292.761 154.5,293.5C 153.833,292.5 153.167,291.5 152.5,290.5C 151.409,285.469 151.409,280.469 152.5,275.5C 154.124,275.64 155.29,274.973 156,273.5C 156.417,274.756 157.25,275.423 158.5,275.5 Z"/></g>
<g><path style="opacity:0.875" fill="#6c6d6c" d="M 324.5,271.5 C 324.052,274.172 322.719,276.172 320.5,277.5C 321.238,275.06 322.571,273.06 324.5,271.5 Z"/></g>
<g><path style="opacity:0.2" fill="#9b9c9b" d="M 212.5,272.5 C 212.573,274.027 211.906,275.027 210.5,275.5C 210.427,273.973 211.094,272.973 212.5,272.5 Z"/></g>
<g><path style="opacity:0.188" fill="#aaadaa" d="M 332.5,273.5 C 332.34,275.153 331.674,276.486 330.5,277.5C 330.229,275.62 330.896,274.287 332.5,273.5 Z"/></g>
<g><path style="opacity:0.157" fill="#aeaeae" d="M 320.5,277.5 C 320.573,279.027 319.906,280.027 318.5,280.5C 318.427,278.973 319.094,277.973 320.5,277.5 Z"/></g>
<g><path style="opacity:0.998" fill="#131413" d="M 215.5,267.5 C 215.414,268.496 215.748,269.329 216.5,270C 215.09,270.368 214.09,271.201 213.5,272.5C 214.397,272.669 215.397,273.002 216.5,273.5C 215.08,275.709 213.413,277.709 211.5,279.5C 211.863,280.183 212.196,280.85 212.5,281.5C 210.938,283.616 209.604,285.949 208.5,288.5C 206.668,289.248 205.001,290.248 203.5,291.5C 202.276,290.234 200.943,289.067 199.5,288C 200.056,287.617 200.389,287.117 200.5,286.5C 201.397,285.402 202.23,285.402 203,286.5C 203.785,284.751 204.618,283.084 205.5,281.5C 207.196,279.475 208.863,277.475 210.5,275.5C 211.906,275.027 212.573,274.027 212.5,272.5C 213.11,270.566 214.11,268.899 215.5,267.5 Z"/></g>
<g><path style="opacity:0.102" fill="#8a8a8a" d="M 218.5,279.5 C 219.338,279.842 219.672,280.508 219.5,281.5C 218.833,281.5 218.167,281.5 217.5,281.5C 217.328,280.508 217.662,279.842 218.5,279.5 Z"/></g>
<g><path style="opacity:0.996" fill="#1c1d1d" d="M 158.5,275.5 C 159.791,275.263 160.791,275.596 161.5,276.5C 161.5,280.833 161.5,285.167 161.5,289.5C 161.945,292.365 161.278,294.865 159.5,297C 160.056,297.383 160.389,297.883 160.5,298.5C 159.262,298.81 159.262,299.31 160.5,300C 158.484,301.129 156.818,301.962 155.5,302.5C 156.025,303.192 156.692,303.692 157.5,304C 156.577,306.041 156.244,308.208 156.5,310.5C 155.525,307.689 154.858,304.689 154.5,301.5C 154.5,298.833 154.5,296.167 154.5,293.5C 154.369,292.761 154.536,292.094 155,291.5C 155.725,293.158 156.892,293.658 158.5,293C 156.109,292.309 156.109,291.309 158.5,290C 157.576,289.15 157.576,288.15 158.5,287C 157.91,284.804 157.243,282.638 156.5,280.5C 157.456,278.925 158.123,277.258 158.5,275.5 Z"/></g>
<g><path style="opacity:0.999" fill="#141515" d="M 255.5,279.5 C 255.121,284.07 255.787,288.404 257.5,292.5C 256.009,292.901 254.342,293.068 252.5,293C 251.429,293.852 250.429,294.685 249.5,295.5C 248.833,294.833 248.167,294.167 247.5,293.5C 247.414,292.504 247.748,291.671 248.5,291C 247.061,290.009 246.061,288.676 245.5,287C 247.901,286.195 247.734,285.362 245,284.5C 242.326,285.714 239.826,287.047 237.5,288.5C 237.741,285.001 236.908,284.668 235,287.5C 235.148,286.175 234.982,285.008 234.5,284C 236.382,283.802 238.048,283.302 239.5,282.5C 239.833,282.5 240.167,282.5 240.5,282.5C 241.496,282.586 242.329,282.252 243,281.5C 243.333,282.167 243.667,282.833 244,283.5C 246,282.167 248,282.167 250,283.5C 252.349,281.256 251.849,280.089 248.5,280C 250.219,278.943 252.053,278.11 254,277.5C 254.278,278.416 254.778,279.082 255.5,279.5 Z"/></g>
<g><path style="opacity:0.996" fill="#636464" d="M 205.5,281.5 C 204.618,283.084 203.785,284.751 203,286.5C 202.23,285.402 201.397,285.402 200.5,286.5C 201.478,284.188 203.145,282.522 205.5,281.5 Z"/></g>
<g><path style="opacity:0.878" fill="#5c5d5d" d="M 280.5,280.5 C 280.5,280.833 280.5,281.167 280.5,281.5C 280.611,282.117 280.944,282.617 281.5,283C 280.264,284.388 278.931,285.554 277.5,286.5C 277.992,284.181 278.992,282.181 280.5,280.5 Z"/></g>
<g><path style="opacity:1" fill="#1e1f1f" d="M 291.5,277.5 C 289.143,282.572 287.81,287.905 287.5,293.5C 287.167,293.5 286.833,293.5 286.5,293.5C 286.66,291.801 286.494,290.134 286,288.5C 284.497,288.835 283.164,288.835 282,288.5C 281.883,287.05 282.05,285.55 282.5,284C 282.316,282.624 281.649,281.791 280.5,281.5C 280.5,281.167 280.5,280.833 280.5,280.5C 280.263,279.209 280.596,278.209 281.5,277.5C 284.147,276.013 286.647,274.347 289,272.5C 290.438,273.9 291.271,275.567 291.5,277.5 Z"/></g>
<g><path style="opacity:0.004" fill="#cfd1d0" d="M 222.5,285.5 C 223.5,285.833 224.167,286.5 224.5,287.5C 223.167,287.5 222.5,286.833 222.5,285.5 Z"/></g>
<g><path style="opacity:0.639" fill="#929393" d="M 224.5,287.5 C 226.404,287.738 227.738,288.738 228.5,290.5C 226.596,290.262 225.262,289.262 224.5,287.5 Z"/></g>
<g><path style="opacity:1" fill="#161716" d="M 225.5,266.5 C 224.618,276.864 229.284,282.197 239.5,282.5C 238.048,283.302 236.382,283.802 234.5,284C 234.982,285.008 235.148,286.175 235,287.5C 236.908,284.668 237.741,285.001 237.5,288.5C 239.826,287.047 242.326,285.714 245,284.5C 247.734,285.362 247.901,286.195 245.5,287C 246.061,288.676 247.061,290.009 248.5,291C 247.748,291.671 247.414,292.504 247.5,293.5C 246.43,290.62 244.764,290.12 242.5,292C 245.78,296.393 248.113,301.226 249.5,306.5C 249.456,309.316 248.456,311.649 246.5,313.5C 245.92,310.621 244.253,308.954 241.5,308.5C 241.804,307.85 242.137,307.183 242.5,306.5C 241.218,306.912 240.218,306.246 239.5,304.5C 237.75,303.341 236.75,301.674 236.5,299.5C 236.627,295.439 234.794,292.106 231,289.5C 230.329,290.252 229.496,290.586 228.5,290.5C 227.738,288.738 226.404,287.738 224.5,287.5C 224.167,286.5 223.5,285.833 222.5,285.5C 220.738,284.738 219.738,283.404 219.5,281.5C 219.672,280.508 219.338,279.842 218.5,279.5C 219.787,277.195 221.12,274.862 222.5,272.5C 223.086,272.709 223.586,273.043 224,273.5C 224.186,270.964 224.686,268.631 225.5,266.5 Z"/></g>
<g><path style="opacity:1" fill="#2a2b2a" d="M 212.5,281.5 C 213.705,283.138 215.038,283.471 216.5,282.5C 211.32,289.834 204.487,295.168 196,298.5C 192.795,297.202 191.795,294.868 193,291.5C 195.128,289.192 197.628,287.526 200.5,286.5C 200.389,287.117 200.056,287.617 199.5,288C 200.943,289.067 202.276,290.234 203.5,291.5C 205.001,290.248 206.668,289.248 208.5,288.5C 209.604,285.949 210.938,283.616 212.5,281.5 Z"/></g>
<g><path style="opacity:1" fill="#252626" d="M 318.5,280.5 C 318.321,282.954 318.987,285.121 320.5,287C 320.355,287.772 320.022,288.439 319.5,289C 323.472,291.271 327.806,292.104 332.5,291.5C 328.647,292.166 324.647,292.833 320.5,293.5C 318.159,297.165 315.493,300.499 312.5,303.5C 310.157,302.063 309.99,300.396 312,298.5C 312.667,299.167 313.333,299.833 314,300.5C 313.31,298.344 313.477,296.177 314.5,294C 314.167,293.5 313.833,293 313.5,292.5C 313.704,293.529 313.204,294.529 312,295.5C 310.989,294.663 309.822,294.33 308.5,294.5C 311.453,289.55 314.786,284.883 318.5,280.5 Z"/></g>
<g><path style="opacity:0.004" fill="#b4b5b5" d="M 257.5,292.5 C 259.434,293.11 261.101,294.11 262.5,295.5C 260.067,295.727 258.401,294.727 257.5,292.5 Z"/></g>
<g><path style="opacity:1" fill="#363737" d="M 236.5,299.5 C 234.058,296.271 231.392,293.271 228.5,290.5C 229.496,290.586 230.329,290.252 231,289.5C 234.794,292.106 236.627,295.439 236.5,299.5 Z"/></g>
<g><path style="opacity:0.608" fill="#8d8f8f" d="M 152.5,290.5 C 153.167,291.5 153.833,292.5 154.5,293.5C 154.5,296.167 154.5,298.833 154.5,301.5C 153.475,298.026 152.808,294.36 152.5,290.5 Z"/></g>
<g><path style="opacity:0.09" fill="#a3a4a3" d="M 247.5,293.5 C 248.167,294.167 248.833,294.833 249.5,295.5C 249.5,295.833 249.5,296.167 249.5,296.5C 247.952,296.179 247.285,295.179 247.5,293.5 Z"/></g>
<g><path style="opacity:1" fill="#444544" d="M 161.5,289.5 C 162.687,292.946 163.354,296.613 163.5,300.5C 162.71,299.391 162.21,298.058 162,296.5C 161.722,297.416 161.222,298.082 160.5,298.5C 160.389,297.883 160.056,297.383 159.5,297C 161.278,294.865 161.945,292.365 161.5,289.5 Z"/></g>
<g><path style="opacity:1" fill="#0c0e0d" d="M 257.5,292.5 C 258.401,294.727 260.067,295.727 262.5,295.5C 265.57,295.632 268.57,295.299 271.5,294.5C 270.864,297.326 269.364,297.992 267,296.5C 265.238,296.944 265.405,297.444 267.5,298C 267,298.167 266.5,298.333 266,298.5C 264.535,297.67 263.035,297.504 261.5,298C 262.167,298.333 262.833,298.667 263.5,299C 263.07,299.92 262.736,300.753 262.5,301.5C 261.808,300.975 261.308,300.308 261,299.5C 259.992,299.982 258.825,300.148 257.5,300C 258.337,301.011 258.67,302.178 258.5,303.5C 257.508,303.672 256.842,303.338 256.5,302.5C 254.777,300.782 252.777,299.449 250.5,298.5C 249.662,298.158 249.328,297.492 249.5,296.5C 249.5,296.167 249.5,295.833 249.5,295.5C 250.429,294.685 251.429,293.852 252.5,293C 254.342,293.068 256.009,292.901 257.5,292.5 Z"/></g>
<g><path style="opacity:0.596" fill="#9a9e9e" d="M 250.5,298.5 C 252.777,299.449 254.777,300.782 256.5,302.5C 253.708,302.378 251.708,301.044 250.5,298.5 Z"/></g>
<g><path style="opacity:1" fill="#181918" d="M 277.5,287.5 C 276.962,289.117 276.629,290.784 276.5,292.5C 279.68,292.176 280.847,293.51 280,296.5C 279.617,297.056 279.117,297.389 278.5,297.5C 277.566,298.568 277.232,299.901 277.5,301.5C 271.511,305.834 265.178,306.501 258.5,303.5C 258.67,302.178 258.337,301.011 257.5,300C 258.825,300.148 259.992,299.982 261,299.5C 261.308,300.308 261.808,300.975 262.5,301.5C 262.736,300.753 263.07,299.92 263.5,299C 262.833,298.667 262.167,298.333 261.5,298C 263.035,297.504 264.535,297.67 266,298.5C 266.5,298.333 267,298.167 267.5,298C 265.405,297.444 265.238,296.944 267,296.5C 269.364,297.992 270.864,297.326 271.5,294.5C 273.529,292.142 275.529,289.808 277.5,287.5 Z"/></g>
<g><path style="opacity:1" fill="#040605" d="M 280.5,281.5 C 281.649,281.791 282.316,282.624 282.5,284C 282.05,285.55 281.883,287.05 282,288.5C 283.164,288.835 284.497,288.835 286,288.5C 286.494,290.134 286.66,291.801 286.5,293.5C 286.586,294.496 286.252,295.329 285.5,296C 287.007,296.837 287.507,298.004 287,299.5C 281.373,297.932 281.039,298.932 286,302.5C 286.333,301.833 286.667,301.167 287,300.5C 287.236,302.811 288.069,304.811 289.5,306.5C 288.022,306.762 286.689,306.429 285.5,305.5C 283.264,302.624 280.93,299.957 278.5,297.5C 279.117,297.389 279.617,297.056 280,296.5C 280.847,293.51 279.68,292.176 276.5,292.5C 276.629,290.784 276.962,289.117 277.5,287.5C 277.5,287.167 277.5,286.833 277.5,286.5C 278.931,285.554 280.264,284.388 281.5,283C 280.944,282.617 280.611,282.117 280.5,281.5 Z"/></g>
<g><path style="opacity:1" fill="#2d2e2e" d="M 337.5,292.5 C 337.335,295.85 337.502,299.183 338,302.5C 338.308,303.308 338.808,303.975 339.5,304.5C 340.59,303.273 341.924,302.44 343.5,302C 342.061,301.009 341.061,299.676 340.5,298C 342.044,298.487 343.71,298.987 345.5,299.5C 345.666,303.846 345.499,308.179 345,312.5C 344.79,314.058 344.29,315.391 343.5,316.5C 343.663,314.143 343.497,311.81 343,309.5C 342.517,310.448 342.351,311.448 342.5,312.5C 341.167,312.5 339.833,312.5 338.5,312.5C 338.881,314.942 338.214,315.609 336.5,314.5C 335.828,315.949 335.161,317.282 334.5,318.5C 335.355,309.674 336.355,301.007 337.5,292.5 Z"/></g>
<g><path style="opacity:1" fill="#121312" d="M 286.5,293.5 C 286.833,293.5 287.167,293.5 287.5,293.5C 288.438,297.435 290.771,300.101 294.5,301.5C 294.586,302.496 294.252,303.329 293.5,304C 296.544,304.359 296.878,305.026 294.5,306C 301.194,308.31 300.861,309.476 293.5,309.5C 292.5,309.5 291.5,309.5 290.5,309.5C 289.89,308.609 289.557,307.609 289.5,306.5C 288.069,304.811 287.236,302.811 287,300.5C 286.667,301.167 286.333,301.833 286,302.5C 281.039,298.932 281.373,297.932 287,299.5C 287.507,298.004 287.007,296.837 285.5,296C 286.252,295.329 286.586,294.496 286.5,293.5 Z"/></g>
<g><path style="opacity:1" fill="#181919" d="M 312.5,303.5 C 307.354,309.55 301.021,311.55 293.5,309.5C 300.861,309.476 301.194,308.31 294.5,306C 296.878,305.026 296.544,304.359 293.5,304C 294.252,303.329 294.586,302.496 294.5,301.5C 296.199,301.66 297.866,301.494 299.5,301C 302.98,299.332 305.98,297.166 308.5,294.5C 309.822,294.33 310.989,294.663 312,295.5C 313.204,294.529 313.704,293.529 313.5,292.5C 313.833,293 314.167,293.5 314.5,294C 313.477,296.177 313.31,298.344 314,300.5C 313.333,299.833 312.667,299.167 312,298.5C 309.99,300.396 310.157,302.063 312.5,303.5 Z"/></g>
<g><path style="opacity:0.99" fill="#676767" d="M 239.5,304.5 C 240.218,306.246 241.218,306.912 242.5,306.5C 242.137,307.183 241.804,307.85 241.5,308.5C 239.896,307.713 239.229,306.38 239.5,304.5 Z"/></g>
<g><path style="opacity:0.916" fill="#191a19" d="M 163.5,300.5 C 165.452,306.249 166.786,312.249 167.5,318.5C 167.631,319.239 167.464,319.906 167,320.5C 165.258,318.027 163.425,318.027 161.5,320.5C 160.261,320.058 159.261,319.391 158.5,318.5C 157.469,316.039 156.802,313.373 156.5,310.5C 156.244,308.208 156.577,306.041 157.5,304C 156.692,303.692 156.025,303.192 155.5,302.5C 156.818,301.962 158.484,301.129 160.5,300C 159.262,299.31 159.262,298.81 160.5,298.5C 161.222,298.082 161.722,297.416 162,296.5C 162.21,298.058 162.71,299.391 163.5,300.5 Z"/></g>
<g><path style="opacity:0.969" fill="#474847" d="M 278.5,297.5 C 280.93,299.957 283.264,302.624 285.5,305.5C 286.689,306.429 288.022,306.762 289.5,306.5C 289.557,307.609 289.89,308.609 290.5,309.5C 285.653,307.822 281.82,304.822 279,300.5C 278.617,301.056 278.117,301.389 277.5,301.5C 277.232,299.901 277.566,298.568 278.5,297.5 Z"/></g>
<g><path style="opacity:1" fill="#333434" d="M 249.5,306.5 C 251.095,309.557 252.262,312.89 253,316.5C 253.35,321.184 253.85,325.851 254.5,330.5C 254.007,335.337 253.34,340.004 252.5,344.5C 253.029,340.649 252.362,337.149 250.5,334C 252.931,330.301 252.931,326.468 250.5,322.5C 249.311,321.571 247.978,321.238 246.5,321.5C 246.825,329.019 246.492,336.352 245.5,343.5C 246.429,331.511 245.096,319.844 241.5,308.5C 244.253,308.954 245.92,310.621 246.5,313.5C 248.456,311.649 249.456,309.316 249.5,306.5 Z"/></g>
<g><path style="opacity:1" fill="#1e1f1f" d="M 343.5,316.5 C 343.493,322.466 342.493,328.132 340.5,333.5C 340.66,331.801 340.494,330.134 340,328.5C 339.667,328.833 339.333,329.167 339,329.5C 337.59,328.213 336.09,327.046 334.5,326C 336.932,324.913 336.598,324.413 333.5,324.5C 333.205,322.265 333.539,320.265 334.5,318.5C 335.161,317.282 335.828,315.949 336.5,314.5C 338.214,315.609 338.881,314.942 338.5,312.5C 339.833,312.5 341.167,312.5 342.5,312.5C 342.351,311.448 342.517,310.448 343,309.5C 343.497,311.81 343.663,314.143 343.5,316.5 Z"/></g>
<g><path style="opacity:0.999" fill="#050706" d="M 165.5,341.5 C 165.598,339.447 164.931,337.78 163.5,336.5C 163.5,336.167 163.5,335.833 163.5,335.5C 163.405,333.214 162.738,331.214 161.5,329.5C 161.5,329.167 161.5,328.833 161.5,328.5C 161.34,326.801 161.506,325.134 162,323.5C 163.258,326.055 165.091,326.722 167.5,325.5C 170.151,327.415 169.817,328.915 166.5,330C 168.569,330.324 168.902,331.158 167.5,332.5C 168.593,334.349 169.926,336.016 171.5,337.5C 170.833,337.833 170.167,338.167 169.5,338.5C 170.167,339.167 170.833,339.833 171.5,340.5C 169.446,341.865 167.446,342.199 165.5,341.5 Z"/></g>
<g><path style="opacity:0.133" fill="#afb0af" d="M 161.5,329.5 C 162.738,331.214 163.405,333.214 163.5,335.5C 161.926,333.898 161.259,331.898 161.5,329.5 Z"/></g>
<g><path style="opacity:0.942" fill="#141515" d="M 252.5,344.5 C 252.288,348.918 250.955,352.918 248.5,356.5C 244.833,358.324 243.166,357.158 243.5,353C 244.068,349.8 244.735,346.633 245.5,343.5C 246.492,336.352 246.825,329.019 246.5,321.5C 247.978,321.238 249.311,321.571 250.5,322.5C 252.931,326.468 252.931,330.301 250.5,334C 252.362,337.149 253.029,340.649 252.5,344.5 Z"/></g>
<g><path style="opacity:0.994" fill="#121312" d="M 333.5,324.5 C 336.598,324.413 336.932,324.913 334.5,326C 336.09,327.046 337.59,328.213 339,329.5C 339.333,329.167 339.667,328.833 340,328.5C 340.494,330.134 340.66,331.801 340.5,333.5C 339.778,333.082 339.278,332.416 339,331.5C 337.601,332.227 336.101,332.727 334.5,333C 335.624,333.249 336.624,333.749 337.5,334.5C 336.167,335.5 336.167,336.5 337.5,337.5C 334.616,341.882 331.949,346.382 329.5,351C 331.957,352.512 331.957,353.846 329.5,355C 332.058,356.38 332.058,357.88 329.5,359.5C 330.025,360.192 330.692,360.692 331.5,361C 329.377,362.773 327.377,363.94 325.5,364.5C 324.911,366.373 325.578,368.04 327.5,369.5C 325.312,373.79 322.312,374.79 318.5,372.5C 318.977,371.522 319.643,370.689 320.5,370C 319.748,369.329 319.414,368.496 319.5,367.5C 320.454,364.294 321.787,361.294 323.5,358.5C 325.788,357.285 326.455,355.619 325.5,353.5C 325.263,352.209 325.596,351.209 326.5,350.5C 328.28,349.01 328.946,347.01 328.5,344.5C 328.833,343.167 329.167,341.833 329.5,340.5C 330.738,338.786 331.405,336.786 331.5,334.5C 331.322,330.878 331.989,327.544 333.5,324.5 Z"/></g>
<g><path style="opacity:0.092" fill="#a6a7a6" d="M 331.5,334.5 C 331.405,336.786 330.738,338.786 329.5,340.5C 329.259,338.102 329.926,336.102 331.5,334.5 Z"/></g>
<g><path style="opacity:0.38" fill="#8c8d8c" d="M 163.5,336.5 C 164.931,337.78 165.598,339.447 165.5,341.5C 164.069,340.22 163.402,338.553 163.5,336.5 Z"/></g>
<g><path style="opacity:1" fill="#212221" d="M 158.5,318.5 C 159.261,319.391 160.261,320.058 161.5,320.5C 163.425,318.027 165.258,318.027 167,320.5C 167.464,319.906 167.631,319.239 167.5,318.5C 172.456,333.102 177.456,347.769 182.5,362.5C 181.417,362.539 180.417,362.873 179.5,363.5C 178.398,361.111 176.731,359.277 174.5,358C 176.795,357.016 176.461,356.183 173.5,355.5C 172.548,357.045 172.215,358.712 172.5,360.5C 170.206,357.63 168.872,354.297 168.5,350.5C 168.771,348.62 168.104,347.287 166.5,346.5C 165.699,344.958 165.366,343.292 165.5,341.5C 167.446,342.199 169.446,341.865 171.5,340.5C 170.833,339.833 170.167,339.167 169.5,338.5C 170.167,338.167 170.833,337.833 171.5,337.5C 169.926,336.016 168.593,334.349 167.5,332.5C 168.902,331.158 168.569,330.324 166.5,330C 169.817,328.915 170.151,327.415 167.5,325.5C 165.091,326.722 163.258,326.055 162,323.5C 161.506,325.134 161.34,326.801 161.5,328.5C 159.757,325.505 158.757,322.171 158.5,318.5 Z"/></g>
<g><path style="opacity:0.173" fill="#b0b1b0" d="M 166.5,346.5 C 168.104,347.287 168.771,348.62 168.5,350.5C 167.326,349.486 166.66,348.153 166.5,346.5 Z"/></g>
<g><path style="opacity:0.871" fill="#656666" d="M 328.5,344.5 C 328.946,347.01 328.28,349.01 326.5,350.5C 326.875,348.302 327.542,346.302 328.5,344.5 Z"/></g>
<g><path style="opacity:1" fill="#242525" d="M 340.5,333.5 C 337.85,347.42 333.35,360.753 327,373.5C 325.301,376.921 323.135,379.921 320.5,382.5C 319.438,380.444 319.771,378.444 321.5,376.5C 319.241,374.105 316.908,374.105 314.5,376.5C 315.931,373.299 317.597,370.299 319.5,367.5C 319.414,368.496 319.748,369.329 320.5,370C 319.643,370.689 318.977,371.522 318.5,372.5C 322.312,374.79 325.312,373.79 327.5,369.5C 325.578,368.04 324.911,366.373 325.5,364.5C 327.377,363.94 329.377,362.773 331.5,361C 330.692,360.692 330.025,360.192 329.5,359.5C 332.058,357.88 332.058,356.38 329.5,355C 331.957,353.846 331.957,352.512 329.5,351C 331.949,346.382 334.616,341.882 337.5,337.5C 336.167,336.5 336.167,335.5 337.5,334.5C 336.624,333.749 335.624,333.249 334.5,333C 336.101,332.727 337.601,332.227 339,331.5C 339.278,332.416 339.778,333.082 340.5,333.5 Z"/></g>
<g><path style="opacity:0.988" fill="#686969" d="M 325.5,353.5 C 326.455,355.619 325.788,357.285 323.5,358.5C 323.402,356.447 324.069,354.78 325.5,353.5 Z"/></g>
<g><path style="opacity:0.986" fill="#090b0a" d="M 182.5,362.5 C 184.104,363.287 184.771,364.62 184.5,366.5C 185.067,368.03 185.733,369.53 186.5,371C 185.906,371.464 185.239,371.631 184.5,371.5C 184.12,370.867 183.787,370.2 183.5,369.5C 182.252,370.04 181.085,370.707 180,371.5C 179.878,369.563 179.045,368.23 177.5,367.5C 176.71,366.599 175.71,365.932 174.5,365.5C 174.771,363.62 174.104,362.287 172.5,361.5C 172.5,361.167 172.5,360.833 172.5,360.5C 172.215,358.712 172.548,357.045 173.5,355.5C 176.461,356.183 176.795,357.016 174.5,358C 176.731,359.277 178.398,361.111 179.5,363.5C 180.417,362.873 181.417,362.539 182.5,362.5 Z"/></g>
<g><path style="opacity:0.184" fill="#9fa2a1" d="M 172.5,361.5 C 174.104,362.287 174.771,363.62 174.5,365.5C 173.326,364.486 172.66,363.153 172.5,361.5 Z"/></g>
<g><path style="opacity:0.437" fill="#5b5c5b" d="M 174.5,365.5 C 175.71,365.932 176.71,366.599 177.5,367.5C 176.833,368.833 176.167,370.167 175.5,371.5C 175.483,369.435 175.15,367.435 174.5,365.5 Z"/></g>
<g><path style="opacity:0.982" fill="#0c0d0d" d="M 177.5,367.5 C 179.045,368.23 179.878,369.563 180,371.5C 181.085,370.707 182.252,370.04 183.5,369.5C 183.787,370.2 184.12,370.867 184.5,371.5C 184.953,372.458 185.619,373.292 186.5,374C 185.663,375.011 185.33,376.178 185.5,377.5C 184.209,377.263 183.209,377.596 182.5,378.5C 182.5,378.833 182.5,379.167 182.5,379.5C 182.889,382.553 182.223,385.22 180.5,387.5C 179.585,385.072 178.418,382.739 177,380.5C 176.329,379.748 175.496,379.414 174.5,379.5C 175.369,377.283 175.702,374.95 175.5,372.5C 175.5,372.167 175.5,371.833 175.5,371.5C 176.167,370.167 176.833,368.833 177.5,367.5 Z"/></g>
<g><path style="opacity:0.987" fill="#252626" d="M 184.5,366.5 C 189.549,372.73 194.882,378.896 200.5,385C 200.046,386.622 199.046,387.788 197.5,388.5C 192.921,386.567 188.921,383.9 185.5,380.5C 185.027,379.094 184.027,378.427 182.5,378.5C 183.209,377.596 184.209,377.263 185.5,377.5C 185.33,376.178 185.663,375.011 186.5,374C 185.619,373.292 184.953,372.458 184.5,371.5C 185.239,371.631 185.906,371.464 186.5,371C 185.733,369.53 185.067,368.03 184.5,366.5 Z"/></g>
<g><path style="opacity:0.318" fill="#818282" d="M 314.5,376.5 C 314.573,378.027 313.906,379.027 312.5,379.5C 312.427,377.973 313.094,376.973 314.5,376.5 Z"/></g>
<g><path style="opacity:0.09" fill="#c3c3c3" d="M 182.5,379.5 C 182.5,379.167 182.5,378.833 182.5,378.5C 184.027,378.427 185.027,379.094 185.5,380.5C 184.391,380.443 183.391,380.11 182.5,379.5 Z"/></g>
<g><path style="opacity:1" fill="#191a19" d="M 320.5,382.5 C 320.5,382.833 320.5,383.167 320.5,383.5C 318.554,384.035 317.554,385.368 317.5,387.5C 316.878,389.122 315.878,390.455 314.5,391.5C 314.5,390.5 314.5,389.5 314.5,388.5C 313.325,388.719 312.325,388.386 311.5,387.5C 312.506,386.604 312.506,385.938 311.5,385.5C 309.374,386.37 307.374,387.37 305.5,388.5C 307.482,385.19 309.815,382.19 312.5,379.5C 313.906,379.027 314.573,378.027 314.5,376.5C 316.908,374.105 319.241,374.105 321.5,376.5C 319.771,378.444 319.438,380.444 320.5,382.5 Z"/></g>
<g><path style="opacity:0.325" fill="#6b6d6d" d="M 175.5,372.5 C 175.702,374.95 175.369,377.283 174.5,379.5C 174.737,380.791 174.404,381.791 173.5,382.5C 173.549,378.922 174.215,375.589 175.5,372.5 Z"/></g>
<g><path style="opacity:1" fill="#171818" d="M 314.5,391.5 C 311.882,394.785 308.882,397.785 305.5,400.5C 304.121,403.259 302.787,405.925 301.5,408.5C 301.64,406.876 300.973,405.71 299.5,405C 301.952,403.194 301.619,401.694 298.5,400.5C 301.538,396.736 300.871,395.403 296.5,396.5C 297.873,394.793 299.539,393.46 301.5,392.5C 302.397,391.402 303.23,391.402 304,392.5C 304.41,391.099 304.91,389.766 305.5,388.5C 307.374,387.37 309.374,386.37 311.5,385.5C 312.506,385.938 312.506,386.604 311.5,387.5C 312.325,388.386 313.325,388.719 314.5,388.5C 314.5,389.5 314.5,390.5 314.5,391.5 Z"/></g>
<g><path style="opacity:0.043" fill="#acaeac" d="M 320.5,383.5 C 319.974,385.23 318.974,386.564 317.5,387.5C 317.554,385.368 318.554,384.035 320.5,383.5 Z"/></g>
<g><path style="opacity:0.408" fill="#7b7b7b" d="M 173.5,382.5 C 173.59,385.152 172.924,387.485 171.5,389.5C 171.41,386.848 172.076,384.515 173.5,382.5 Z"/></g>
<g><path style="opacity:0.999" fill="#060807" d="M 174.5,379.5 C 175.496,379.414 176.329,379.748 177,380.5C 178.418,382.739 179.585,385.072 180.5,387.5C 180.5,388.5 180.5,389.5 180.5,390.5C 178.837,392.438 178.171,394.772 178.5,397.5C 177.365,398.103 176.365,398.436 175.5,398.5C 174.778,398.082 174.278,397.416 174,396.5C 173.667,397.833 173.333,399.167 173,400.5C 172.5,399.333 171.667,398.5 170.5,398C 171.444,395.281 171.777,392.448 171.5,389.5C 172.924,387.485 173.59,385.152 173.5,382.5C 174.404,381.791 174.737,380.791 174.5,379.5 Z"/></g>
<g><path style="opacity:0.937" fill="#535454" d="M 305.5,388.5 C 304.91,389.766 304.41,391.099 304,392.5C 303.23,391.402 302.397,391.402 301.5,392.5C 302.167,390.5 303.5,389.167 305.5,388.5 Z"/></g>
<g><path style="opacity:0.22" fill="#8e8e8e" d="M 180.5,390.5 C 180.279,393.067 179.612,395.401 178.5,397.5C 178.171,394.772 178.837,392.438 180.5,390.5 Z"/></g>
<g><path style="opacity:0.694" fill="#787979" d="M 169.5,395.5 C 169.741,397.898 169.074,399.898 167.5,401.5C 167.595,399.214 168.262,397.214 169.5,395.5 Z"/></g>
<g><path style="opacity:1" fill="#626363" d="M 178.5,397.5 C 178.125,399.698 177.458,401.698 176.5,403.5C 176.634,401.708 176.301,400.042 175.5,398.5C 176.365,398.436 177.365,398.103 178.5,397.5 Z"/></g>
<g><path style="opacity:0.175" fill="#c5c6c8" d="M 285.5,402.5 C 285.366,404.292 285.699,405.958 286.5,407.5C 285.351,407.209 284.684,406.376 284.5,405C 284.528,403.93 284.861,403.097 285.5,402.5 Z"/></g>
<g><path style="opacity:0.686" fill="#787a7a" d="M 167.5,401.5 C 167.741,403.898 167.074,405.898 165.5,407.5C 165.595,405.214 166.262,403.214 167.5,401.5 Z"/></g>
<g><path style="opacity:0.958" fill="#202121" d="M 296.5,396.5 C 295.466,399.132 294.466,401.799 293.5,404.5C 295.645,405.682 295.645,407.182 293.5,409C 293.501,410.399 293.835,411.899 294.5,413.5C 292.824,413.436 291.491,414.436 290.5,416.5C 289.193,418.223 289.193,420.057 290.5,422C 288.323,423.186 287.323,425.019 287.5,427.5C 287.167,427.5 286.833,427.5 286.5,427.5C 287.42,421.199 289.087,415.199 291.5,409.5C 292.404,408.791 292.737,407.791 292.5,406.5C 290.5,406.833 288.5,407.167 286.5,407.5C 285.699,405.958 285.366,404.292 285.5,402.5C 289.164,400.505 292.83,398.505 296.5,396.5 Z"/></g>
<g><path style="opacity:0.176" fill="#b0b3b0" d="M 291.5,409.5 C 291.631,408.761 291.464,408.094 291,407.5C 289.384,408.801 287.884,408.801 286.5,407.5C 288.5,407.167 290.5,406.833 292.5,406.5C 292.737,407.791 292.404,408.791 291.5,409.5 Z"/></g>
<g><path style="opacity:0.063" fill="#aeaeae" d="M 165.5,408.5 C 165.167,409.833 164.833,411.167 164.5,412.5C 164.167,412.5 163.833,412.5 163.5,412.5C 163.229,410.62 163.896,409.287 165.5,408.5 Z"/></g>
<g><path style="opacity:1" fill="#161716" d="M 171.5,389.5 C 171.777,392.448 171.444,395.281 170.5,398C 171.667,398.5 172.5,399.333 173,400.5C 173.333,399.167 173.667,397.833 174,396.5C 174.278,397.416 174.778,398.082 175.5,398.5C 176.301,400.042 176.634,401.708 176.5,403.5C 174.786,409.084 172.786,414.418 170.5,419.5C 170.158,418.662 169.492,418.328 168.5,418.5C 167.167,416.5 165.833,414.5 164.5,412.5C 164.833,411.167 165.167,409.833 165.5,408.5C 165.5,408.167 165.5,407.833 165.5,407.5C 167.074,405.898 167.741,403.898 167.5,401.5C 169.074,399.898 169.741,397.898 169.5,395.5C 169.595,393.214 170.262,391.214 171.5,389.5 Z"/></g>
<g><path style="opacity:1" fill="#191b1a" d="M 301.5,408.5 C 299.494,414.894 297.494,421.227 295.5,427.5C 295.702,425.011 295.202,422.677 294,420.5C 293.549,422.929 292.715,423.096 291.5,421C 292.833,419.16 292.666,418.66 291,419.5C 290.517,418.552 290.351,417.552 290.5,416.5C 291.491,414.436 292.824,413.436 294.5,413.5C 293.835,411.899 293.501,410.399 293.5,409C 295.645,407.182 295.645,405.682 293.5,404.5C 294.466,401.799 295.466,399.132 296.5,396.5C 300.871,395.403 301.538,396.736 298.5,400.5C 301.619,401.694 301.952,403.194 299.5,405C 300.973,405.71 301.64,406.876 301.5,408.5 Z"/></g>
<g><path style="opacity:0.086" fill="#a4a9a4" d="M 163.5,413.5 C 163.598,415.553 162.931,417.22 161.5,418.5C 161.402,416.447 162.069,414.78 163.5,413.5 Z"/></g>
<g><path style="opacity:0.992" fill="#484a49" d="M 168.5,418.5 C 169.492,418.328 170.158,418.662 170.5,419.5C 170.097,422.486 169.097,425.152 167.5,427.5C 168.403,424.344 168.736,421.344 168.5,418.5 Z"/></g>
<g><path style="opacity:1" fill="#0e100f" d="M 290.5,416.5 C 290.351,417.552 290.517,418.552 291,419.5C 292.666,418.66 292.833,419.16 291.5,421C 292.715,423.096 293.549,422.929 294,420.5C 295.202,422.677 295.702,425.011 295.5,427.5C 295,431.009 294,434.343 292.5,437.5C 291.178,437.67 290.011,437.337 289,436.5C 288.952,434.456 289.452,432.456 290.5,430.5C 290.154,429.304 289.654,429.304 289,430.5C 288.487,429.473 287.987,428.473 287.5,427.5C 287.323,425.019 288.323,423.186 290.5,422C 289.193,420.057 289.193,418.223 290.5,416.5 Z"/></g>
<g><path style="opacity:1" fill="#090b0a" d="M 163.5,412.5 C 163.833,412.5 164.167,412.5 164.5,412.5C 165.833,414.5 167.167,416.5 168.5,418.5C 168.736,421.344 168.403,424.344 167.5,427.5C 165.712,427.215 164.045,427.548 162.5,428.5C 163.262,428.911 164.262,429.077 165.5,429C 163.833,430 162.167,431 160.5,432C 160.579,435.098 161.246,438.264 162.5,441.5C 160.5,441.167 158.5,440.833 156.5,440.5C 156.5,437.833 156.5,435.167 156.5,432.5C 158.067,431.319 158.901,429.653 159,427.5C 159.333,427.833 159.667,428.167 160,428.5C 161.113,426.408 161.279,424.075 160.5,421.5C 160.557,420.391 160.89,419.391 161.5,418.5C 162.931,417.22 163.598,415.553 163.5,413.5C 163.5,413.167 163.5,412.833 163.5,412.5 Z"/></g>
<g><path style="opacity:0.97" fill="#5e615f" d="M 160.5,421.5 C 161.279,424.075 161.113,426.408 160,428.5C 159.667,428.167 159.333,427.833 159,427.5C 158.901,429.653 158.067,431.319 156.5,432.5C 157.089,428.421 158.422,424.754 160.5,421.5 Z"/></g>
<g><path style="opacity:0.994" fill="#2a2b2a" d="M 167.5,427.5 C 166.433,432.467 164.766,437.134 162.5,441.5C 161.246,438.264 160.579,435.098 160.5,432C 162.167,431 163.833,430 165.5,429C 164.262,429.077 163.262,428.911 162.5,428.5C 164.045,427.548 165.712,427.215 167.5,427.5 Z"/></g>
<g><path style="opacity:1" fill="#262726" d="M 286.5,427.5 C 286.833,427.5 287.167,427.5 287.5,427.5C 287.987,428.473 288.487,429.473 289,430.5C 289.654,429.304 290.154,429.304 290.5,430.5C 289.452,432.456 288.952,434.456 289,436.5C 290.011,437.337 291.178,437.67 292.5,437.5C 292.435,440.428 291.768,443.095 290.5,445.5C 290.631,444.761 290.464,444.094 290,443.5C 288.817,444.731 287.651,444.731 286.5,443.5C 287.59,442.391 287.59,441.391 286.5,440.5C 284.581,441.612 282.914,442.946 281.5,444.5C 282.365,438.48 284.032,432.813 286.5,427.5 Z"/></g>
<g><path style="opacity:1" fill="#212222" d="M 290.5,445.5 C 289.707,449.88 288.707,454.213 287.5,458.5C 285.72,459.99 285.054,461.99 285.5,464.5C 284.688,465.993 283.355,466.66 281.5,466.5C 280.228,466.43 279.062,466.097 278,465.5C 277.322,458.075 278.489,451.075 281.5,444.5C 282.914,442.946 284.581,441.612 286.5,440.5C 287.59,441.391 287.59,442.391 286.5,443.5C 287.651,444.731 288.817,444.731 290,443.5C 290.464,444.094 290.631,444.761 290.5,445.5 Z"/></g>
<g><path style="opacity:1" fill="#242525" d="M 156.5,432.5 C 156.5,435.167 156.5,437.833 156.5,440.5C 158.5,440.833 160.5,441.167 162.5,441.5C 161.354,446.438 159.687,451.105 157.5,455.5C 156.599,456.29 155.932,457.29 155.5,458.5C 153.32,460.744 151.154,460.411 149,457.5C 148.833,456.667 148.667,455.833 148.5,455C 151.099,447.415 153.765,439.915 156.5,432.5 Z"/></g>
<g><path style="opacity:0.008" fill="#b0b1b1" d="M 157.5,455.5 C 157.715,457.179 157.048,458.179 155.5,458.5C 155.932,457.29 156.599,456.29 157.5,455.5 Z"/></g>
<g><path style="opacity:0.404" fill="#a3a4a3" d="M 287.5,458.5 C 287.125,460.698 286.458,462.698 285.5,464.5C 285.054,461.99 285.72,459.99 287.5,458.5 Z"/></g>
</svg>
