<?xml version="1.0" standalone="no"?>
<!DOCTYPE svg PUBLIC "-//W3C//DTD SVG 20010904//EN"
 "http://www.w3.org/TR/2001/REC-SVG-20010904/DTD/svg10.dtd">
<svg version="1.0" xmlns="http://www.w3.org/2000/svg"
 width="500.000000pt" height="500.000000pt" viewBox="0 0 500.000000 500.000000"
 preserveAspectRatio="xMidYMid meet">

<g transform="translate(0.000000,500.000000) scale(0.100000,-0.100000)"
fill="#000000" stroke="none">
<path d="M2452 4695 c-85 -37 -135 -101 -152 -196 -9 -52 -19 -212 -41 -619
-27 -524 -41 -716 -51 -690 -3 8 -10 38 -16 65 -6 28 -31 143 -56 256 -58 262
-96 451 -127 619 -27 147 -44 197 -89 258 -38 52 -118 92 -185 92 -95 0 -191
-76 -220 -174 -26 -85 -25 -94 58 -676 82 -573 86 -611 98 -790 14 -215 8
-297 -31 -398 -17 -44 -38 -86 -46 -93 -25 -21 -110 70 -263 281 -81 112 -192
199 -316 246 -83 31 -225 39 -285 15 -89 -36 -150 -103 -150 -166 0 -47 38
-102 130 -185 117 -108 174 -197 339 -535 95 -193 168 -319 234 -400 52 -64
242 -254 375 -375 61 -55 109 -107 118 -128 11 -28 14 -107 14 -426 0 -429 -1
-419 60 -451 25 -13 125 -15 710 -15 730 0 723 0 750 49 6 13 10 166 10 426 0
440 -3 415 61 500 49 66 129 228 168 340 35 105 70 228 92 330 6 28 15 66 19
85 39 169 47 213 65 355 8 66 21 138 29 161 8 23 105 218 214 435 210 415 242
487 242 546 0 66 -31 144 -77 191 -49 50 -182 68 -241 32 -51 -31 -73 -60
-204 -270 -190 -304 -234 -371 -309 -472 -63 -85 -72 -80 -39 23 41 127 221
835 250 984 6 33 16 76 21 96 16 64 11 163 -12 216 -25 58 -52 89 -101 114
-88 45 -188 33 -262 -32 -46 -41 -64 -79 -109 -224 -68 -220 -117 -375 -204
-640 -52 -159 -98 -301 -102 -314 -4 -14 -13 -27 -20 -29 -11 -4 -13 120 -10
684 2 525 0 699 -9 731 -31 104 -135 183 -241 183 -31 -1 -71 -7 -89 -15z
m150 -172 c17 -16 31 -44 37 -75 7 -32 11 -289 11 -724 0 -668 0 -676 21 -705
28 -40 69 -59 124 -59 103 0 129 34 203 255 96 287 226 689 272 835 26 83 50
142 62 153 30 25 92 22 118 -5 19 -21 21 -31 17 -103 -3 -44 -10 -98 -15 -120
-6 -22 -15 -65 -22 -95 -21 -98 -27 -122 -78 -320 -95 -367 -133 -509 -153
-572 -11 -35 -23 -87 -26 -115 -5 -47 -3 -57 22 -89 36 -47 104 -78 153 -69
33 6 79 32 108 60 20 19 220 316 345 513 147 229 149 232 194 232 46 0 70 -34
62 -89 -3 -23 -90 -208 -207 -443 -111 -221 -213 -430 -225 -463 -13 -34 -30
-118 -40 -190 -18 -148 -62 -373 -101 -520 -14 -55 -29 -113 -34 -130 -4 -16
-17 -57 -29 -90 -13 -33 -26 -71 -30 -85 -12 -36 -68 -147 -108 -210 -52 -82
-109 -136 -170 -161 -61 -24 -76 -54 -51 -98 12 -23 20 -26 64 -25 l49 1 -3
-328 -3 -329 -608 0 c-492 0 -611 3 -620 13 -7 9 -11 122 -13 341 l-3 327 25
-5 c115 -26 180 -11 180 42 0 42 -19 60 -81 76 -94 24 -164 68 -294 187 -22
20 -71 64 -110 99 -61 55 -114 110 -231 241 -62 70 -134 189 -231 384 -181
364 -237 452 -366 576 l-90 86 52 18 c46 15 61 16 114 5 87 -17 193 -72 249
-131 27 -27 80 -93 120 -146 134 -181 267 -293 347 -293 60 0 118 77 183 245
22 57 23 72 22 295 0 228 -5 286 -44 570 -11 74 -37 268 -60 430 -22 162 -45
322 -50 356 -15 91 -13 181 6 209 22 34 69 48 103 30 55 -28 55 -30 112 -310
105 -523 196 -915 221 -956 45 -73 150 -93 211 -39 32 27 35 36 46 118 6 49
11 122 11 163 0 69 5 155 30 509 5 74 14 214 20 310 21 353 25 388 46 411 41
45 90 46 136 2z"/>
<path d="M2006 2564 c-40 -40 -12 -66 129 -119 283 -108 436 -269 500 -530 4
-16 13 -82 19 -145 l11 -115 37 -3 c33 -3 38 0 44 23 10 41 -5 211 -26 298
-73 294 -329 524 -672 601 -17 4 -32 1 -42 -10z"/>
</g>
</svg>
