<?xml version="1.0" encoding="UTF-8"?>
<!DOCTYPE svg PUBLIC "-//W3C//DTD SVG 1.1//EN" "http://www.w3.org/Graphics/SVG/1.1/DTD/svg11.dtd">
<svg xmlns="http://www.w3.org/2000/svg" version="1.1" width="500px" height="500px" style="shape-rendering:geometricPrecision; text-rendering:geometricPrecision; image-rendering:optimizeQuality; fill-rule:evenodd; clip-rule:evenodd" xmlns:xlink="http://www.w3.org/1999/xlink">
<g><path style="opacity:0.989" fill="#121212" d="M 251.5,27.5 C 257.903,26.9704 263.569,28.6371 268.5,32.5C 268.833,33.5 269.5,34.1667 270.5,34.5C 270.856,36.1898 271.856,37.1898 273.5,37.5C 276.357,40.5464 278.19,44.2131 279,48.5C 279.5,61.4957 279.667,74.4957 279.5,87.5C 278.17,121.002 278.17,154.669 279.5,188.5C 280.107,188.376 280.44,188.043 280.5,187.5C 281.521,182.751 282.854,178.084 284.5,173.5C 285.931,172.22 286.598,170.553 286.5,168.5C 287.631,162.134 289.631,156.134 292.5,150.5C 294.074,148.898 294.741,146.898 294.5,144.5C 294.595,142.214 295.262,140.214 296.5,138.5C 298.074,136.898 298.741,134.898 298.5,132.5C 298.595,130.214 299.262,128.214 300.5,126.5C 301.924,124.485 302.59,122.152 302.5,119.5C 305.846,108.149 309.18,96.8157 312.5,85.5C 314.104,84.713 314.771,83.3797 314.5,81.5C 314.5,80.8333 314.5,80.1667 314.5,79.5C 315.906,79.0269 316.573,78.0269 316.5,76.5C 317.367,72.0868 319.7,68.7535 323.5,66.5C 324.5,66.1667 325.167,65.5 325.5,64.5C 339.499,57.5675 350.999,60.5675 360,73.5C 361.473,78.0567 362.306,82.7233 362.5,87.5C 361.331,99.0263 359.331,110.36 356.5,121.5C 354.024,124.288 353.024,127.622 353.5,131.5C 351.777,133.78 351.111,136.447 351.5,139.5C 351.672,140.492 351.338,141.158 350.5,141.5C 349.504,141.586 348.671,141.252 348,140.5C 347.02,142.059 346.187,143.726 345.5,145.5C 344.469,140.39 342.636,140.724 340,146.5C 336.642,143.991 336.809,141.658 340.5,139.5C 339.313,137.79 339.646,136.29 341.5,135C 339.727,132.41 338.727,129.577 338.5,126.5C 338.5,125.833 338.5,125.167 338.5,124.5C 340.28,123.01 340.946,121.01 340.5,118.5C 342.328,109.183 344.162,99.8501 346,90.5C 347.438,81.4378 343.604,77.4378 334.5,78.5C 333.167,78.5 332.5,79.1667 332.5,80.5C 330.952,80.8212 330.285,81.8212 330.5,83.5C 327.072,96.4453 323.072,109.112 318.5,121.5C 316.747,124.146 315.747,127.146 315.5,130.5C 315.5,131.167 315.5,131.833 315.5,132.5C 313.166,134.176 312.166,136.509 312.5,139.5C 308.777,151.941 304.777,164.274 300.5,176.5C 299.463,177.93 298.796,179.597 298.5,181.5C 298.025,185.084 297.025,188.417 295.5,191.5C 293.063,193.433 290.729,195.6 288.5,198C 289.337,199.011 289.67,200.178 289.5,201.5C 289.167,201.5 288.833,201.5 288.5,201.5C 286.973,201.427 285.973,202.094 285.5,203.5C 276.183,206.591 269.016,203.924 264,195.5C 263.809,147.815 263.309,100.149 262.5,52.5C 262.715,50.8212 262.048,49.8212 260.5,49.5C 259.833,48.5 259.167,47.5 258.5,46.5C 258.027,45.0937 257.027,44.427 255.5,44.5C 250.39,44.4687 246.89,46.802 245,51.5C 243.334,73.4917 241.834,95.4917 240.5,117.5C 238.799,123.919 238.133,130.585 238.5,137.5C 238.185,152.85 237.519,168.183 236.5,183.5C 235.205,187.267 234.539,191.267 234.5,195.5C 233.723,198.112 232.056,199.945 229.5,201C 216.344,204.76 208.678,199.926 206.5,186.5C 206.279,183.933 205.612,181.599 204.5,179.5C 197.32,152.087 191.32,124.42 186.5,96.5C 186.664,93.8127 186.497,91.146 186,88.5C 185.722,87.5842 185.222,86.9175 184.5,86.5C 184.932,83.1226 184.265,80.1226 182.5,77.5C 181.77,73.7198 179.77,70.7198 176.5,68.5C 175.866,67.0532 174.699,66.3866 173,66.5C 171.301,66.3866 170.134,67.0532 169.5,68.5C 168.5,69.5 167.5,70.5 166.5,71.5C 165.883,71.6107 165.383,71.944 165,72.5C 164.183,78.0164 164.349,83.3497 165.5,88.5C 169.681,112.594 173.014,136.928 175.5,161.5C 175.942,165.154 176.276,168.821 176.5,172.5C 175.547,177.61 175.214,182.61 175.5,187.5C 175.701,191.424 176.201,191.424 177,187.5C 177.49,188.793 177.657,190.127 177.5,191.5C 173.818,191.665 170.152,191.499 166.5,191C 167.022,190.439 167.355,189.772 167.5,189C 166.683,187.51 165.85,186.01 165,184.5C 164.501,188.152 164.335,191.818 164.5,195.5C 159.547,159.291 154.381,122.957 149,86.5C 147.622,78.3249 148.789,70.6582 152.5,63.5C 153.906,63.0269 154.573,62.0269 154.5,60.5C 156.5,59.1667 158.167,57.5 159.5,55.5C 169.393,48.7212 179.06,49.0545 188.5,56.5C 188.833,57.5 189.5,58.1667 190.5,58.5C 190.833,59.5 191.5,60.1667 192.5,60.5C 196.448,66.1607 198.948,72.4941 200,79.5C 205.597,111.92 212.597,143.92 221,175.5C 223.12,132.461 225.787,89.4612 229,46.5C 230.929,39.946 234.762,34.946 240.5,31.5C 242.027,31.573 243.027,30.9063 243.5,29.5C 246.495,29.7062 249.162,29.0395 251.5,27.5 Z"/></g>
<g><path style="opacity:0.725" fill="#818181" d="M 251.5,27.5 C 249.162,29.0395 246.495,29.7062 243.5,29.5C 245.905,28.2318 248.572,27.5651 251.5,27.5 Z"/></g>
<g><path style="opacity:0.271" fill="#939393" d="M 243.5,29.5 C 243.027,30.9063 242.027,31.573 240.5,31.5C 240.973,30.0937 241.973,29.427 243.5,29.5 Z"/></g>
<g><path style="opacity:0.004" fill="#d1d5d1" d="M 268.5,32.5 C 269.833,32.5 270.5,33.1667 270.5,34.5C 269.5,34.1667 268.833,33.5 268.5,32.5 Z"/></g>
<g><path style="opacity:0.749" fill="#888888" d="M 270.5,34.5 C 272.144,34.8102 273.144,35.8102 273.5,37.5C 271.856,37.1898 270.856,36.1898 270.5,34.5 Z"/></g>
<g><path style="opacity:0.129" fill="#b4b4b4" d="M 255.5,44.5 C 257.027,44.427 258.027,45.0937 258.5,46.5C 256.973,46.573 255.973,45.9063 255.5,44.5 Z"/></g>
<g><path style="opacity:0.439" fill="#949494" d="M 260.5,49.5 C 262.048,49.8212 262.715,50.8212 262.5,52.5C 261.599,51.7095 260.932,50.7095 260.5,49.5 Z"/></g>
<g><path style="opacity:0.004" fill="#d2d2d2" d="M 188.5,56.5 C 189.833,56.5 190.5,57.1667 190.5,58.5C 189.5,58.1667 188.833,57.5 188.5,56.5 Z"/></g>
<g><path style="opacity:0.333" fill="#8c8c8c" d="M 159.5,55.5 C 158.167,57.5 156.5,59.1667 154.5,60.5C 155.167,57.8333 156.833,56.1667 159.5,55.5 Z"/></g>
<g><path style="opacity:0.004" fill="#cfcfcf" d="M 190.5,58.5 C 191.833,58.5 192.5,59.1667 192.5,60.5C 191.5,60.1667 190.833,59.5 190.5,58.5 Z"/></g>
<g><path style="opacity:0.345" fill="#8b8b8b" d="M 154.5,60.5 C 154.573,62.0269 153.906,63.0269 152.5,63.5C 152.427,61.9731 153.094,60.9731 154.5,60.5 Z"/></g>
<g><path style="opacity:0.082" fill="#d2d2d2" d="M 325.5,64.5 C 325.167,65.5 324.5,66.1667 323.5,66.5C 323.5,65.1667 324.167,64.5 325.5,64.5 Z"/></g>
<g><path style="opacity:0.655" fill="#727272" d="M 176.5,68.5 C 174.167,67.1667 171.833,67.1667 169.5,68.5C 170.134,67.0532 171.301,66.3866 173,66.5C 174.699,66.3866 175.866,67.0532 176.5,68.5 Z"/></g>
<g><path style="opacity:0.345" fill="#9c9c9c" d="M 166.5,71.5 C 165.593,77.1064 165.26,82.773 165.5,88.5C 164.349,83.3497 164.183,78.0164 165,72.5C 165.383,71.944 165.883,71.6107 166.5,71.5 Z"/></g>
<g><path style="opacity:0.204" fill="#a8a8a8" d="M 316.5,76.5 C 316.573,78.0269 315.906,79.0269 314.5,79.5C 314.427,77.9731 315.094,76.9731 316.5,76.5 Z"/></g>
<g><path style="opacity:0.067" fill="#b0b0b0" d="M 334.5,78.5 C 334.167,79.5 333.5,80.1667 332.5,80.5C 332.5,79.1667 333.167,78.5 334.5,78.5 Z"/></g>
<g><path style="opacity:0.624" fill="#757575" d="M 182.5,77.5 C 184.265,80.1226 184.932,83.1226 184.5,86.5C 183.525,83.6888 182.858,80.6888 182.5,77.5 Z"/></g>
<g><path style="opacity:0.204" fill="#afafaf" d="M 332.5,80.5 C 332.068,81.7095 331.401,82.7095 330.5,83.5C 330.285,81.8212 330.952,80.8212 332.5,80.5 Z"/></g>
<g><path style="opacity:0.176" fill="#b0b0b0" d="M 314.5,81.5 C 314.771,83.3797 314.104,84.713 312.5,85.5C 312.66,83.847 313.326,82.5137 314.5,81.5 Z"/></g>
<g><path style="opacity:0.733" fill="#666666" d="M 184.5,86.5 C 185.222,86.9175 185.722,87.5842 186,88.5C 186.497,91.146 186.664,93.8127 186.5,96.5C 185.566,93.3443 184.899,90.0109 184.5,86.5 Z"/></g>
<g><path style="opacity:0.459" fill="#8e8e8e" d="M 340.5,118.5 C 340.946,121.01 340.28,123.01 338.5,124.5C 338.875,122.302 339.542,120.302 340.5,118.5 Z"/></g>
<g><path style="opacity:0.416" fill="#6f6f6f" d="M 302.5,119.5 C 302.59,122.152 301.924,124.485 300.5,126.5C 300.41,123.848 301.076,121.515 302.5,119.5 Z"/></g>
<g><path style="opacity:0.455" fill="#686868" d="M 356.5,121.5 C 355.49,124.928 354.49,128.261 353.5,131.5C 353.024,127.622 354.024,124.288 356.5,121.5 Z"/></g>
<g><path style="opacity:0.335" fill="#7f7f7f" d="M 240.5,117.5 C 240.182,124.346 239.515,131.013 238.5,137.5C 238.133,130.585 238.799,123.919 240.5,117.5 Z"/></g>
<g><path style="opacity:0.176" fill="#9d9d9d" d="M 318.5,121.5 C 318.253,124.854 317.253,127.854 315.5,130.5C 315.747,127.146 316.747,124.146 318.5,121.5 Z"/></g>
<g><path style="opacity:0.99" fill="#151515" d="M 338.5,126.5 C 338.727,129.577 339.727,132.41 341.5,135C 339.646,136.29 339.313,137.79 340.5,139.5C 336.809,141.658 336.642,143.991 340,146.5C 342.636,140.724 344.469,140.39 345.5,145.5C 346.187,143.726 347.02,142.059 348,140.5C 348.671,141.252 349.504,141.586 350.5,141.5C 346.346,163.955 340.679,185.955 333.5,207.5C 331.762,209.119 331.262,211.119 332,213.5C 333.417,212.922 334.25,211.922 334.5,210.5C 334.833,209.5 335.5,208.833 336.5,208.5C 337.906,208.027 338.573,207.027 338.5,205.5C 338.5,204.833 338.833,204.5 339.5,204.5C 340.906,204.027 341.573,203.027 341.5,201.5C 348.062,190.16 355.062,179.16 362.5,168.5C 363.906,168.027 364.573,167.027 364.5,165.5C 365.669,162.489 367.336,159.822 369.5,157.5C 370.906,157.027 371.573,156.027 371.5,154.5C 371.75,152.326 372.75,150.659 374.5,149.5C 375.906,149.027 376.573,148.027 376.5,146.5C 376.328,145.508 376.662,144.842 377.5,144.5C 378.906,144.027 379.573,143.027 379.5,141.5C 385.874,131.318 394.874,128.151 406.5,132C 412.322,133.99 416.322,137.823 418.5,143.5C 418.171,146.228 418.837,148.562 420.5,150.5C 421.16,151.964 421.493,153.631 421.5,155.5C 420.976,159.554 420.143,163.554 419,167.5C 412.726,180.384 406.226,193.051 399.5,205.5C 399.167,205.5 398.833,205.5 398.5,205.5C 398.815,203.774 398.981,202.107 399,200.5C 397.602,199.949 396.268,199.616 395,199.5C 395.401,202.061 395.235,204.728 394.5,207.5C 393.127,207.657 391.793,207.49 390.5,207C 393.946,204.15 394.113,201.317 391,198.5C 390.667,199.5 390.333,200.5 390,201.5C 389.667,199.833 389.333,198.167 389,196.5C 387.855,196.619 386.688,196.952 385.5,197.5C 389.601,188.302 393.934,179.302 398.5,170.5C 399.906,170.027 400.573,169.027 400.5,167.5C 402.263,163.38 403.929,159.214 405.5,155C 404.663,153.989 404.33,152.822 404.5,151.5C 404.512,148.858 403.179,147.525 400.5,147.5C 397.821,147.673 395.487,148.673 393.5,150.5C 390.058,156.402 386.392,162.068 382.5,167.5C 381.094,167.973 380.427,168.973 380.5,170.5C 377.996,175.515 374.996,180.181 371.5,184.5C 370.094,184.973 369.427,185.973 369.5,187.5C 363.338,198.672 356.338,209.339 348.5,219.5C 346.01,222.155 343.344,224.655 340.5,227C 339.552,227.483 338.552,227.649 337.5,227.5C 334.873,228.092 332.206,228.425 329.5,228.5C 328.167,228.167 326.833,227.833 325.5,227.5C 325.027,226.094 324.027,225.427 322.5,225.5C 320.233,224.404 318.4,222.737 317,220.5C 316.025,213.945 316.525,207.612 318.5,201.5C 320.163,199.562 320.829,197.228 320.5,194.5C 323.789,180.718 327.456,167.051 331.5,153.5C 332.924,151.485 333.59,149.152 333.5,146.5C 333.565,143.572 334.232,140.905 335.5,138.5C 337.04,136.162 337.706,133.495 337.5,130.5C 337.232,128.901 337.566,127.568 338.5,126.5 Z"/></g>
<g><path style="opacity:0.518" fill="#5f5f5f" d="M 353.5,131.5 C 353.198,134.373 352.531,137.039 351.5,139.5C 351.111,136.447 351.777,133.78 353.5,131.5 Z"/></g>
<g><path style="opacity:0.855" fill="#5a5a5a" d="M 298.5,132.5 C 298.741,134.898 298.074,136.898 296.5,138.5C 296.595,136.214 297.262,134.214 298.5,132.5 Z"/></g>
<g><path style="opacity:0.21" fill="#7e7e7e" d="M 337.5,130.5 C 337.706,133.495 337.04,136.162 335.5,138.5C 335.565,135.572 336.232,132.905 337.5,130.5 Z"/></g>
<g><path style="opacity:0.478" fill="#7c7c7c" d="M 315.5,132.5 C 314.736,135.018 313.736,137.351 312.5,139.5C 312.166,136.509 313.166,134.176 315.5,132.5 Z"/></g>
<g><path style="opacity:0.091" fill="#b2b3b2" d="M 279.5,87.5 C 279.168,121.004 279.502,154.338 280.5,187.5C 280.44,188.043 280.107,188.376 279.5,188.5C 278.17,154.669 278.17,121.002 279.5,87.5 Z"/></g>
<g><path style="opacity:0.161" fill="#adadad" d="M 379.5,141.5 C 379.573,143.027 378.906,144.027 377.5,144.5C 377.427,142.973 378.094,141.973 379.5,141.5 Z"/></g>
<g><path style="opacity:0.773" fill="#616161" d="M 294.5,144.5 C 294.741,146.898 294.074,148.898 292.5,150.5C 292.595,148.214 293.262,146.214 294.5,144.5 Z"/></g>
<g><path style="opacity:0.918" fill="#5e5e5e" d="M 418.5,143.5 C 419.612,145.599 420.279,147.933 420.5,150.5C 418.837,148.562 418.171,146.228 418.5,143.5 Z"/></g>
<g><path style="opacity:0.243" fill="#7f7f7f" d="M 376.5,146.5 C 376.573,148.027 375.906,149.027 374.5,149.5C 374.427,147.973 375.094,146.973 376.5,146.5 Z"/></g>
<g><path style="opacity:0.902" fill="#626262" d="M 400.5,147.5 C 403.179,147.525 404.512,148.858 404.5,151.5C 403.167,150.167 401.833,148.833 400.5,147.5 Z"/></g>
<g><path style="opacity:0.298" fill="#929292" d="M 333.5,146.5 C 333.59,149.152 332.924,151.485 331.5,153.5C 331.41,150.848 332.076,148.515 333.5,146.5 Z"/></g>
<g><path style="opacity:0.302" fill="#8d8d8d" d="M 371.5,154.5 C 371.573,156.027 370.906,157.027 369.5,157.5C 369.427,155.973 370.094,154.973 371.5,154.5 Z"/></g>
<g><path style="opacity:0.02" fill="#c8c8c8" d="M 175.5,161.5 C 177.082,164.876 177.749,168.542 177.5,172.5C 177.167,172.5 176.833,172.5 176.5,172.5C 176.276,168.821 175.942,165.154 175.5,161.5 Z"/></g>
<g><path style="opacity:0.141" fill="#a3a3a3" d="M 364.5,165.5 C 364.573,167.027 363.906,168.027 362.5,168.5C 362.427,166.973 363.094,165.973 364.5,165.5 Z"/></g>
<g><path style="opacity:0.49" fill="#929292" d="M 400.5,167.5 C 400.573,169.027 399.906,170.027 398.5,170.5C 398.427,168.973 399.094,167.973 400.5,167.5 Z"/></g>
<g><path style="opacity:0.047" fill="#adadad" d="M 382.5,167.5 C 382.573,169.027 381.906,170.027 380.5,170.5C 380.427,168.973 381.094,167.973 382.5,167.5 Z"/></g>
<g><path style="opacity:0.071" fill="#bebebe" d="M 286.5,168.5 C 286.598,170.553 285.931,172.22 284.5,173.5C 284.402,171.447 285.069,169.78 286.5,168.5 Z"/></g>
<g><path style="opacity:0.057" fill="#cdcdcd" d="M 300.5,176.5 C 300.88,178.698 300.213,180.365 298.5,181.5C 298.796,179.597 299.463,177.93 300.5,176.5 Z"/></g>
<g><path style="opacity:0.186" fill="#a0a0a0" d="M 204.5,179.5 C 205.612,181.599 206.279,183.933 206.5,186.5C 204.837,184.562 204.171,182.228 204.5,179.5 Z"/></g>
<g><path style="opacity:0.234" fill="#9f9f9f" d="M 236.5,183.5 C 236.656,187.764 235.989,191.764 234.5,195.5C 234.539,191.267 235.205,187.267 236.5,183.5 Z"/></g>
<g><path style="opacity:0.086" fill="#9e9e9e" d="M 371.5,184.5 C 371.573,186.027 370.906,187.027 369.5,187.5C 369.427,185.973 370.094,184.973 371.5,184.5 Z"/></g>
<g><path style="opacity:0.981" fill="#3b3b3b" d="M 295.5,191.5 C 294.717,195.605 292.717,198.939 289.5,201.5C 289.67,200.178 289.337,199.011 288.5,198C 290.729,195.6 293.063,193.433 295.5,191.5 Z"/></g>
<g><path style="opacity:0.612" fill="#919191" d="M 320.5,194.5 C 320.829,197.228 320.163,199.562 318.5,201.5C 318.721,198.933 319.388,196.599 320.5,194.5 Z"/></g>
<g><path style="opacity:0.208" fill="#9a9a9a" d="M 78.5,208.5 C 76.4006,209.612 74.0673,210.279 71.5,210.5C 73.4385,208.837 75.7718,208.171 78.5,208.5 Z"/></g>
<g><path style="opacity:0.992" fill="#111111" d="M 176.5,172.5 C 176.833,172.5 177.167,172.5 177.5,172.5C 182.159,199.074 183.159,225.741 180.5,252.5C 178.837,254.438 178.171,256.772 178.5,259.5C 176.598,266.987 172.931,273.32 167.5,278.5C 165.81,278.856 164.81,279.856 164.5,281.5C 157.811,283.27 152.144,281.603 147.5,276.5C 147.027,275.094 146.027,274.427 144.5,274.5C 144.167,273.5 143.5,272.833 142.5,272.5C 142.167,271.5 141.5,270.833 140.5,270.5C 140.167,269.5 139.5,268.833 138.5,268.5C 136.833,267.5 135.5,266.167 134.5,264.5C 133.527,261.865 131.86,259.865 129.5,258.5C 129.573,256.973 128.906,255.973 127.5,255.5C 121.745,248.345 115.745,241.345 109.5,234.5C 105.37,231.684 101.037,229.35 96.5,227.5C 96.0269,226.094 95.0269,225.427 93.5,225.5C 90.9407,225.802 88.6074,225.468 86.5,224.5C 83.6596,223.083 80.993,223.416 78.5,225.5C 76.6536,225.222 75.3202,225.889 74.5,227.5C 76.5482,230.215 78.8816,232.548 81.5,234.5C 81.5,235.833 82.1667,236.5 83.5,236.5C 87.9111,240.241 91.5778,244.574 94.5,249.5C 94.427,251.027 95.0937,252.027 96.5,252.5C 102.501,260.491 107.501,269.158 111.5,278.5C 111.229,280.38 111.896,281.713 113.5,282.5C 113.229,284.38 113.896,285.713 115.5,286.5C 115.229,288.38 115.896,289.713 117.5,290.5C 120.387,295.605 122.72,300.939 124.5,306.5C 124.833,307.5 125.5,308.167 126.5,308.5C 128.833,312.5 131.167,316.5 133.5,320.5C 133.427,322.027 134.094,323.027 135.5,323.5C 135.427,325.027 136.094,326.027 137.5,326.5C 139.207,327.873 140.54,329.539 141.5,331.5C 141.833,332.5 142.5,333.167 143.5,333.5C 144.5,333.833 145.167,334.5 145.5,335.5C 145.427,337.027 146.094,338.027 147.5,338.5C 147.833,339.5 148.5,340.167 149.5,340.5C 150.5,340.833 151.167,341.5 151.5,342.5C 152.167,345.167 153.833,346.833 156.5,347.5C 162.228,353.233 168.228,358.567 174.5,363.5C 174.5,364.833 175.167,365.5 176.5,365.5C 180.897,369.904 185.564,373.904 190.5,377.5C 190.973,378.906 191.973,379.573 193.5,379.5C 197.301,381.399 201.301,382.732 205.5,383.5C 206.78,384.931 208.447,385.598 210.5,385.5C 210.427,387.027 211.094,388.027 212.5,388.5C 213.919,395.429 210.919,398.762 203.5,398.5C 200.239,398.097 197.072,397.43 194,396.5C 193.5,418.164 193.333,439.831 193.5,461.5C 213.656,462.833 234.156,463.5 255,463.5C 275.669,463.5 296.169,463.167 316.5,462.5C 316.833,441.156 316.5,419.823 315.5,398.5C 311.872,400.08 308.538,399.747 305.5,397.5C 304.908,394.873 304.575,392.206 304.5,389.5C 304.414,388.504 304.748,387.671 305.5,387C 309.167,385.333 312.833,383.667 316.5,382C 321.429,376.912 325.762,371.412 329.5,365.5C 330.906,365.027 331.573,364.027 331.5,362.5C 332.227,360.046 333.227,357.713 334.5,355.5C 336.104,354.713 336.771,353.38 336.5,351.5C 337.835,347.828 339.168,344.162 340.5,340.5C 342.834,338.824 343.834,336.491 343.5,333.5C 343.366,331.708 343.699,330.042 344.5,328.5C 346.074,326.898 346.741,324.898 346.5,322.5C 346.5,322.167 346.5,321.833 346.5,321.5C 348.223,319.22 348.889,316.553 348.5,313.5C 350.265,310.877 350.932,307.877 350.5,304.5C 350.99,301.345 351.656,298.345 352.5,295.5C 353.222,295.082 353.722,294.416 354,293.5C 354.497,290.854 354.664,288.187 354.5,285.5C 354.993,283.194 355.326,280.861 355.5,278.5C 356.768,276.095 357.435,273.428 357.5,270.5C 357.164,261.862 358.497,253.528 361.5,245.5C 363.379,244.105 364.379,242.105 364.5,239.5C 365.674,238.486 366.34,237.153 366.5,235.5C 366.5,235.167 366.5,234.833 366.5,234.5C 367.906,234.027 368.573,233.027 368.5,231.5C 368.5,231.167 368.5,230.833 368.5,230.5C 369.906,230.027 370.573,229.027 370.5,227.5C 371.401,226.71 372.068,225.71 372.5,224.5C 376.012,215.141 380.346,206.141 385.5,197.5C 386.688,196.952 387.855,196.619 389,196.5C 389.333,198.167 389.667,199.833 390,201.5C 390.333,200.5 390.667,199.5 391,198.5C 394.113,201.317 393.946,204.15 390.5,207C 391.793,207.49 393.127,207.657 394.5,207.5C 395.235,204.728 395.401,202.061 395,199.5C 396.268,199.616 397.602,199.949 399,200.5C 398.981,202.107 398.815,203.774 398.5,205.5C 398.167,206.833 397.833,208.167 397.5,209.5C 397.169,211.322 396.502,212.989 395.5,214.5C 394.5,214.833 393.833,215.5 393.5,216.5C 387.624,229.622 381.457,242.622 375,255.5C 373.583,267.585 371.75,279.585 369.5,291.5C 367.837,293.438 367.171,295.772 367.5,298.5C 367.5,299.167 367.5,299.833 367.5,300.5C 365.837,302.438 365.171,304.772 365.5,307.5C 363.744,318.524 361.077,329.19 357.5,339.5C 355.72,340.99 355.054,342.99 355.5,345.5C 351.789,358.976 345.789,371.309 337.5,382.5C 336.5,382.833 335.833,383.5 335.5,384.5C 335.218,385.778 334.551,386.778 333.5,387.5C 332.883,387.611 332.383,387.944 332,388.5C 331.5,416.498 331.333,444.498 331.5,472.5C 330.342,475.822 328.008,477.988 324.5,479C 310.171,479.5 295.837,479.667 281.5,479.5C 249.294,478.819 216.961,478.153 184.5,477.5C 184.167,477.5 183.833,477.5 183.5,477.5C 183.167,476.5 182.5,475.833 181.5,475.5C 179.827,474.657 178.66,473.324 178,471.5C 177.816,444.124 177.316,416.791 176.5,389.5C 176.715,387.821 176.048,386.821 174.5,386.5C 173.662,386.158 173.328,385.492 173.5,384.5C 173.167,383.5 172.5,382.833 171.5,382.5C 171.167,381.5 170.5,380.833 169.5,380.5C 165.821,377.976 162.488,374.976 159.5,371.5C 159.027,370.094 158.027,369.427 156.5,369.5C 147.167,360.833 138.167,351.833 129.5,342.5C 129.573,340.973 128.906,339.973 127.5,339.5C 126.864,337.205 125.531,335.539 123.5,334.5C 121.265,331.709 119.265,328.709 117.5,325.5C 117.727,323.067 116.727,321.401 114.5,320.5C 112.975,318.784 111.975,316.784 111.5,314.5C 111.573,312.973 110.906,311.973 109.5,311.5C 107.085,307.061 105.085,302.395 103.5,297.5C 103.573,295.973 102.906,294.973 101.5,294.5C 101.5,294.167 101.5,293.833 101.5,293.5C 101.34,291.847 100.674,290.514 99.5,289.5C 99.4077,287.152 98.4077,285.486 96.5,284.5C 93.5662,279.632 90.8995,274.632 88.5,269.5C 88.573,267.973 87.9063,266.973 86.5,266.5C 84.2589,262.251 81.5923,258.251 78.5,254.5C 78.5123,251.858 77.179,250.525 74.5,250.5C 68.8333,246.167 63.8333,241.167 59.5,235.5C 59.7709,233.62 59.1042,232.287 57.5,231.5C 56.0855,227.786 56.4188,224.12 58.5,220.5C 59.9063,220.027 60.573,219.027 60.5,217.5C 63.0174,213.405 66.6841,211.072 71.5,210.5C 74.0673,210.279 76.4006,209.612 78.5,208.5C 101.984,207.41 120.318,216.743 133.5,236.5C 133.5,237.833 134.167,238.5 135.5,238.5C 135.5,238.833 135.5,239.167 135.5,239.5C 135.427,241.027 136.094,242.027 137.5,242.5C 138.906,242.973 139.573,243.973 139.5,245.5C 139.833,246.5 140.5,247.167 141.5,247.5C 146.265,253.104 151.265,258.604 156.5,264C 157.577,264.47 158.577,264.303 159.5,263.5C 161.818,261.815 162.818,259.481 162.5,256.5C 165.456,248.645 166.79,240.478 166.5,232C 165.983,219.818 165.316,207.651 164.5,195.5C 164.335,191.818 164.501,188.152 165,184.5C 165.85,186.01 166.683,187.51 167.5,189C 167.355,189.772 167.022,190.439 166.5,191C 170.152,191.499 173.818,191.665 177.5,191.5C 177.657,190.127 177.49,188.793 177,187.5C 176.201,191.424 175.701,191.424 175.5,187.5C 175.214,182.61 175.547,177.61 176.5,172.5 Z"/></g>
<g><path style="opacity:0.549" fill="#878787" d="M 338.5,205.5 C 338.573,207.027 337.906,208.027 336.5,208.5C 336.427,206.973 337.094,205.973 338.5,205.5 Z"/></g>
<g><path style="opacity:0.369" fill="#8b8b8b" d="M 341.5,201.5 C 341.573,203.027 340.906,204.027 339.5,204.5C 339.427,202.973 340.094,201.973 341.5,201.5 Z"/></g>
<g><path style="opacity:0.004" fill="#cdcdcd" d="M 288.5,201.5 C 288.027,202.906 287.027,203.573 285.5,203.5C 285.973,202.094 286.973,201.427 288.5,201.5 Z"/></g>
<g><path style="opacity:0.067" fill="#999999" d="M 398.5,205.5 C 398.833,205.5 399.167,205.5 399.5,205.5C 399.771,207.38 399.104,208.713 397.5,209.5C 397.833,208.167 398.167,206.833 398.5,205.5 Z"/></g>
<g><path style="opacity:0.612" fill="#767676" d="M 333.5,207.5 C 333.263,208.791 333.596,209.791 334.5,210.5C 334.25,211.922 333.417,212.922 332,213.5C 331.262,211.119 331.762,209.119 333.5,207.5 Z"/></g>
<g><path style="opacity:0.004" fill="#d2d2d2" d="M 395.5,214.5 C 395.5,215.833 394.833,216.5 393.5,216.5C 393.833,215.5 394.5,214.833 395.5,214.5 Z"/></g>
<g><path style="opacity:0.157" fill="#ababab" d="M 60.5,217.5 C 60.573,219.027 59.9063,220.027 58.5,220.5C 58.427,218.973 59.0937,217.973 60.5,217.5 Z"/></g>
<g><path style="opacity:0.541" fill="#767676" d="M 86.5,224.5 C 83.7938,224.575 81.1272,224.908 78.5,225.5C 80.993,223.416 83.6596,223.083 86.5,224.5 Z"/></g>
<g><path style="opacity:0.482" fill="#929292" d="M 322.5,225.5 C 324.027,225.427 325.027,226.094 325.5,227.5C 323.973,227.573 322.973,226.906 322.5,225.5 Z"/></g>
<g><path style="opacity:0.098" fill="#b9b9b9" d="M 372.5,224.5 C 372.068,225.71 371.401,226.71 370.5,227.5C 370.285,225.821 370.952,224.821 372.5,224.5 Z"/></g>
<g><path style="opacity:0.161" fill="#afafaf" d="M 93.5,225.5 C 95.0269,225.427 96.0269,226.094 96.5,227.5C 94.9731,227.573 93.9731,226.906 93.5,225.5 Z"/></g>
<g><path style="opacity:0.082" fill="#c3c3c3" d="M 337.5,227.5 C 335.007,229.584 332.34,229.917 329.5,228.5C 332.206,228.425 334.873,228.092 337.5,227.5 Z"/></g>
<g><path style="opacity:0.09" fill="#b6b6b6" d="M 370.5,227.5 C 370.573,229.027 369.906,230.027 368.5,230.5C 368.427,228.973 369.094,227.973 370.5,227.5 Z"/></g>
<g><path style="opacity:0.239" fill="#828282" d="M 57.5,231.5 C 59.1042,232.287 59.7709,233.62 59.5,235.5C 58.3263,234.486 57.6596,233.153 57.5,231.5 Z"/></g>
<g><path style="opacity:0.078" fill="#bcbcbc" d="M 368.5,231.5 C 368.573,233.027 367.906,234.027 366.5,234.5C 366.427,232.973 367.094,231.973 368.5,231.5 Z"/></g>
<g><path style="opacity:0.447" fill="#c0c0c0" d="M 81.5,234.5 C 82.5,234.833 83.1667,235.5 83.5,236.5C 82.1667,236.5 81.5,235.833 81.5,234.5 Z"/></g>
<g><path style="opacity:0.145" fill="#dedede" d="M 133.5,236.5 C 134.5,236.833 135.167,237.5 135.5,238.5C 134.167,238.5 133.5,237.833 133.5,236.5 Z"/></g>
<g><path style="opacity:0.055" fill="#b4b4b4" d="M 366.5,235.5 C 366.34,237.153 365.674,238.486 364.5,239.5C 364.229,237.62 364.896,236.287 366.5,235.5 Z"/></g>
<g><path style="opacity:0.357" fill="#868686" d="M 135.5,239.5 C 136.906,239.973 137.573,240.973 137.5,242.5C 136.094,242.027 135.427,241.027 135.5,239.5 Z"/></g>
<g><path style="opacity:0.986" fill="#191919" d="M 239.5,256.5 C 240.539,258.531 242.205,259.864 244.5,260.5C 244.833,260.5 245.167,260.5 245.5,260.5C 245.5,262.5 246.5,263.5 248.5,263.5C 254.256,267.92 258.922,273.253 262.5,279.5C 262.427,281.027 263.094,282.027 264.5,282.5C 264.5,282.833 264.5,283.167 264.5,283.5C 264.427,285.027 265.094,286.027 266.5,286.5C 270.052,293.349 272.385,300.683 273.5,308.5C 273.731,316.505 274.065,324.505 274.5,332.5C 274.5,333.5 274.5,334.5 274.5,335.5C 270.97,336.011 267.804,335.344 265,333.5C 264.388,322.351 262.888,311.351 260.5,300.5C 260.771,298.62 260.104,297.287 258.5,296.5C 251.469,279.967 239.802,267.801 223.5,260C 215.822,256.997 208.156,253.997 200.5,251C 199.177,250.184 198.511,249.017 198.5,247.5C 198.629,245.784 198.962,244.117 199.5,242.5C 204.862,241.068 210.195,241.568 215.5,244C 224.119,247.139 232.119,251.305 239.5,256.5 Z"/></g>
<g><path style="opacity:0.129" fill="#a0a0a0" d="M 199.5,242.5 C 198.962,244.117 198.629,245.784 198.5,247.5C 197.07,245.545 197.403,243.879 199.5,242.5 Z"/></g>
<g><path style="opacity:0.898" fill="#6d6d6d" d="M 364.5,239.5 C 364.379,242.105 363.379,244.105 361.5,245.5C 361.755,243.033 362.755,241.033 364.5,239.5 Z"/></g>
<g><path style="opacity:0.004" fill="#dadada" d="M 139.5,245.5 C 140.833,245.5 141.5,246.167 141.5,247.5C 140.5,247.167 139.833,246.5 139.5,245.5 Z"/></g>
<g><path style="opacity:0.533" fill="#828282" d="M 94.5,249.5 C 95.9063,249.973 96.573,250.973 96.5,252.5C 95.0937,252.027 94.427,251.027 94.5,249.5 Z"/></g>
<g><path style="opacity:0.953" fill="#656565" d="M 74.5,250.5 C 77.179,250.525 78.5123,251.858 78.5,254.5C 76.8333,253.5 75.5,252.167 74.5,250.5 Z"/></g>
<g><path style="opacity:0.329" fill="#8f8f8f" d="M 180.5,252.5 C 180.279,255.067 179.612,257.401 178.5,259.5C 178.171,256.772 178.837,254.438 180.5,252.5 Z"/></g>
<g><path style="opacity:0.059" fill="#b8b8b8" d="M 127.5,255.5 C 128.906,255.973 129.573,256.973 129.5,258.5C 128.094,258.027 127.427,257.027 127.5,255.5 Z"/></g>
<g><path style="opacity:0.847" fill="#696969" d="M 239.5,256.5 C 241.754,257.124 243.421,258.457 244.5,260.5C 242.205,259.864 240.539,258.531 239.5,256.5 Z"/></g>
<g><path style="opacity:0.624" fill="#8e8e8e" d="M 129.5,258.5 C 131.86,259.865 133.527,261.865 134.5,264.5C 132.11,263.109 130.443,261.109 129.5,258.5 Z"/></g>
<g><path style="opacity:0.859" fill="#717171" d="M 162.5,256.5 C 162.818,259.481 161.818,261.815 159.5,263.5C 160.088,260.937 161.088,258.604 162.5,256.5 Z"/></g>
<g><path style="opacity:0.447" fill="#8e8e8e" d="M 245.5,260.5 C 246.833,261.167 247.833,262.167 248.5,263.5C 246.5,263.5 245.5,262.5 245.5,260.5 Z"/></g>
<g><path style="opacity:0.071" fill="#bebebe" d="M 86.5,266.5 C 87.9063,266.973 88.573,267.973 88.5,269.5C 87.0937,269.027 86.427,268.027 86.5,266.5 Z"/></g>
<g><path style="opacity:0.004" fill="#c9c9c9" d="M 138.5,268.5 C 139.5,268.833 140.167,269.5 140.5,270.5C 139.167,270.5 138.5,269.833 138.5,268.5 Z"/></g>
<g><path style="opacity:0.008" fill="#cccccc" d="M 140.5,270.5 C 141.5,270.833 142.167,271.5 142.5,272.5C 141.167,272.5 140.5,271.833 140.5,270.5 Z"/></g>
<g><path style="opacity:0.004" fill="#cbcbcb" d="M 142.5,272.5 C 143.5,272.833 144.167,273.5 144.5,274.5C 143.167,274.5 142.5,273.833 142.5,272.5 Z"/></g>
<g><path style="opacity:0.529" fill="#929292" d="M 144.5,274.5 C 146.027,274.427 147.027,275.094 147.5,276.5C 145.973,276.573 144.973,275.906 144.5,274.5 Z"/></g>
<g><path style="opacity:0.122" fill="#a4a4a4" d="M 357.5,270.5 C 357.435,273.428 356.768,276.095 355.5,278.5C 355.294,275.505 355.96,272.838 357.5,270.5 Z"/></g>
<g><path style="opacity:0.004" fill="#b0b0b0" d="M 167.5,278.5 C 167.19,280.144 166.19,281.144 164.5,281.5C 164.81,279.856 165.81,278.856 167.5,278.5 Z"/></g>
<g><path style="opacity:0.188" fill="#afafaf" d="M 111.5,278.5 C 112.674,279.514 113.34,280.847 113.5,282.5C 111.896,281.713 111.229,280.38 111.5,278.5 Z"/></g>
<g><path style="opacity:0.184" fill="#bababa" d="M 262.5,279.5 C 263.906,279.973 264.573,280.973 264.5,282.5C 263.094,282.027 262.427,281.027 262.5,279.5 Z"/></g>
<g><path style="opacity:0.89" fill="#606060" d="M 96.5,284.5 C 98.4077,285.486 99.4077,287.152 99.5,289.5C 97.953,288.232 96.953,286.565 96.5,284.5 Z"/></g>
<g><path style="opacity:0.596" fill="#818181" d="M 264.5,283.5 C 265.906,283.973 266.573,284.973 266.5,286.5C 265.094,286.027 264.427,285.027 264.5,283.5 Z"/></g>
<g><path style="opacity:0.153" fill="#b6b6b6" d="M 113.5,282.5 C 114.674,283.514 115.34,284.847 115.5,286.5C 113.896,285.713 113.229,284.38 113.5,282.5 Z"/></g>
<g><path style="opacity:0.122" fill="#bcbcbc" d="M 115.5,286.5 C 116.674,287.514 117.34,288.847 117.5,290.5C 115.896,289.713 115.229,288.38 115.5,286.5 Z"/></g>
<g><path style="opacity:0.404" fill="#5e5e5e" d="M 354.5,285.5 C 354.664,288.187 354.497,290.854 354,293.5C 353.722,294.416 353.222,295.082 352.5,295.5C 352.899,291.989 353.566,288.656 354.5,285.5 Z"/></g>
<g><path style="opacity:0.2" fill="#898989" d="M 99.5,289.5 C 100.674,290.514 101.34,291.847 101.5,293.5C 99.8958,292.713 99.2291,291.38 99.5,289.5 Z"/></g>
<g><path style="opacity:0.285" fill="#949494" d="M 369.5,291.5 C 369.279,294.067 368.612,296.401 367.5,298.5C 367.171,295.772 367.837,293.438 369.5,291.5 Z"/></g>
<g><path style="opacity:0.212" fill="#ababab" d="M 101.5,294.5 C 102.906,294.973 103.573,295.973 103.5,297.5C 102.094,297.027 101.427,296.027 101.5,294.5 Z"/></g>
<g><path style="opacity:0.278" fill="#8d8d8d" d="M 258.5,296.5 C 260.104,297.287 260.771,298.62 260.5,300.5C 259.326,299.486 258.66,298.153 258.5,296.5 Z"/></g>
<g><path style="opacity:0.475" fill="#838383" d="M 367.5,300.5 C 367.279,303.067 366.612,305.401 365.5,307.5C 365.171,304.772 365.837,302.438 367.5,300.5 Z"/></g>
<g><path style="opacity:0.004" fill="#cccccc" d="M 124.5,306.5 C 125.833,306.5 126.5,307.167 126.5,308.5C 125.5,308.167 124.833,307.5 124.5,306.5 Z"/></g>
<g><path style="opacity:0.467" fill="#7a7a7a" d="M 350.5,304.5 C 350.932,307.877 350.265,310.877 348.5,313.5C 348.858,310.311 349.525,307.311 350.5,304.5 Z"/></g>
<g><path style="opacity:0.004" fill="#d2d2d2" d="M 109.5,311.5 C 110.906,311.973 111.573,312.973 111.5,314.5C 110.094,314.027 109.427,313.027 109.5,311.5 Z"/></g>
<g><path style="opacity:0.31" fill="#767676" d="M 348.5,313.5 C 348.889,316.553 348.223,319.22 346.5,321.5C 346.802,318.627 347.469,315.961 348.5,313.5 Z"/></g>
<g><path style="opacity:0.18" fill="#979797" d="M 133.5,320.5 C 134.906,320.973 135.573,321.973 135.5,323.5C 134.094,323.027 133.427,322.027 133.5,320.5 Z"/></g>
<g><path style="opacity:0.016" fill="#b8b8b8" d="M 114.5,320.5 C 116.727,321.401 117.727,323.067 117.5,325.5C 116.11,324.101 115.11,322.434 114.5,320.5 Z"/></g>
<g><path style="opacity:0.349" fill="#7f7f7f" d="M 346.5,322.5 C 346.741,324.898 346.074,326.898 344.5,328.5C 344.595,326.214 345.262,324.214 346.5,322.5 Z"/></g>
<g><path style="opacity:0.357" fill="#919191" d="M 135.5,323.5 C 136.906,323.973 137.573,324.973 137.5,326.5C 136.094,326.027 135.427,325.027 135.5,323.5 Z"/></g>
<g><path style="opacity:0.278" fill="#848484" d="M 273.5,308.5 C 275.166,316.472 275.499,324.472 274.5,332.5C 274.065,324.505 273.731,316.505 273.5,308.5 Z"/></g>
<g><path style="opacity:0.004" fill="#d9d9d9" d="M 141.5,331.5 C 142.833,331.5 143.5,332.167 143.5,333.5C 142.5,333.167 141.833,332.5 141.5,331.5 Z"/></g>
<g><path style="opacity:0.78" fill="#7f7f7f" d="M 123.5,334.5 C 125.531,335.539 126.864,337.205 127.5,339.5C 125.457,338.421 124.124,336.754 123.5,334.5 Z"/></g>
<g><path style="opacity:0.918" fill="#5a5a5a" d="M 343.5,333.5 C 343.834,336.491 342.834,338.824 340.5,340.5C 341.264,337.982 342.264,335.649 343.5,333.5 Z"/></g>
<g><path style="opacity:0.349" fill="#878787" d="M 145.5,335.5 C 146.906,335.973 147.573,336.973 147.5,338.5C 146.094,338.027 145.427,337.027 145.5,335.5 Z"/></g>
<g><path style="opacity:0.008" fill="#c4c4c4" d="M 147.5,338.5 C 148.833,338.5 149.5,339.167 149.5,340.5C 148.5,340.167 147.833,339.5 147.5,338.5 Z"/></g>
<g><path style="opacity:0.012" fill="#adadad" d="M 127.5,339.5 C 128.906,339.973 129.573,340.973 129.5,342.5C 128.094,342.027 127.427,341.027 127.5,339.5 Z"/></g>
<g><path style="opacity:0.592" fill="#737373" d="M 357.5,339.5 C 357.125,341.698 356.458,343.698 355.5,345.5C 355.054,342.99 355.72,340.99 357.5,339.5 Z"/></g>
<g><path style="opacity:0.725" fill="#7b7b7b" d="M 151.5,342.5 C 153.5,343.833 155.167,345.5 156.5,347.5C 153.833,346.833 152.167,345.167 151.5,342.5 Z"/></g>
<g><path style="opacity:0.039" fill="#d3d3d3" d="M 336.5,351.5 C 336.771,353.38 336.104,354.713 334.5,355.5C 334.66,353.847 335.326,352.514 336.5,351.5 Z"/></g>
<g><path style="opacity:0.188" fill="#dedede" d="M 174.5,363.5 C 175.5,363.833 176.167,364.5 176.5,365.5C 175.167,365.5 174.5,364.833 174.5,363.5 Z"/></g>
<g><path style="opacity:0.125" fill="#9e9e9e" d="M 331.5,362.5 C 331.573,364.027 330.906,365.027 329.5,365.5C 329.427,363.973 330.094,362.973 331.5,362.5 Z"/></g>
<g><path style="opacity:0.286" fill="#a9a9a9" d="M 156.5,369.5 C 158.027,369.427 159.027,370.094 159.5,371.5C 157.973,371.573 156.973,370.906 156.5,369.5 Z"/></g>
<g><path style="opacity:0.11" fill="#a2a2a2" d="M 190.5,377.5 C 192.027,377.427 193.027,378.094 193.5,379.5C 191.973,379.573 190.973,378.906 190.5,377.5 Z"/></g>
<g><path style="opacity:0.012" fill="#d5d5d5" d="M 169.5,380.5 C 170.5,380.833 171.167,381.5 171.5,382.5C 170.167,382.5 169.5,381.833 169.5,380.5 Z"/></g>
<g><path style="opacity:0.004" fill="#cfcfcf" d="M 171.5,382.5 C 172.5,382.833 173.167,383.5 173.5,384.5C 172.167,384.5 171.5,383.833 171.5,382.5 Z"/></g>
<g><path style="opacity:0.004" fill="#cccccc" d="M 337.5,382.5 C 337.5,383.833 336.833,384.5 335.5,384.5C 335.833,383.5 336.5,382.833 337.5,382.5 Z"/></g>
<g><path style="opacity:0.353" fill="#939393" d="M 205.5,383.5 C 207.553,383.402 209.22,384.069 210.5,385.5C 208.447,385.598 206.78,384.931 205.5,383.5 Z"/></g>
<g><path style="opacity:0.631" fill="#8c8c8c" d="M 174.5,386.5 C 176.048,386.821 176.715,387.821 176.5,389.5C 175.599,388.71 174.932,387.71 174.5,386.5 Z"/></g>
<g><path style="opacity:0.271" fill="#8a8a8a" d="M 210.5,385.5 C 211.906,385.973 212.573,386.973 212.5,388.5C 211.094,388.027 210.427,387.027 210.5,385.5 Z"/></g>
<g><path style="opacity:0.282" fill="#adadad" d="M 304.5,389.5 C 304.575,392.206 304.908,394.873 305.5,397.5C 303.416,395.007 303.083,392.34 304.5,389.5 Z"/></g>
<g><path style="opacity:0.055" fill="#5b5b5b" d="M 333.5,387.5 C 332.849,415.961 332.183,444.294 331.5,472.5C 331.333,444.498 331.5,416.498 332,388.5C 332.383,387.944 332.883,387.611 333.5,387.5 Z"/></g>
<g><path style="opacity:0.22" fill="#898989" d="M 193.5,461.5 C 234.428,462.494 275.428,462.827 316.5,462.5C 296.169,463.167 275.669,463.5 255,463.5C 234.156,463.5 213.656,462.833 193.5,461.5 Z"/></g>
<g><path style="opacity:0.004" fill="#c0c0c0" d="M 181.5,475.5 C 182.5,475.833 183.167,476.5 183.5,477.5C 182.167,477.5 181.5,476.833 181.5,475.5 Z"/></g>
<g><path style="opacity:0.163" fill="#cecfcf" d="M 184.5,477.5 C 216.961,478.153 249.294,478.819 281.5,479.5C 249.498,479.667 217.498,479.5 185.5,479C 184.944,478.617 184.611,478.117 184.5,477.5 Z"/></g>
</svg>
