<?xml version="1.0" encoding="UTF-8"?>
<!DOCTYPE svg PUBLIC "-//W3C//DTD SVG 1.1//EN" "http://www.w3.org/Graphics/SVG/1.1/DTD/svg11.dtd">
<svg xmlns="http://www.w3.org/2000/svg" version="1.1" width="500px" height="500px" style="shape-rendering:geometricPrecision; text-rendering:geometricPrecision; image-rendering:optimizeQuality; fill-rule:evenodd; clip-rule:evenodd" xmlns:xlink="http://www.w3.org/1999/xlink">
<g><path style="opacity:0.983" fill="#141414" d="M 332.5,45.5 C 332.738,47.4044 333.738,48.7377 335.5,49.5C 336.906,49.9731 337.573,50.9731 337.5,52.5C 337.66,54.153 338.326,55.4863 339.5,56.5C 339.5,56.8333 339.5,57.1667 339.5,57.5C 339.802,60.3725 340.469,63.0392 341.5,65.5C 341.333,140.167 341.5,214.834 342,289.5C 342.414,289.957 342.914,290.291 343.5,290.5C 351.205,287.359 359.205,285.359 367.5,284.5C 371.04,284.247 374.373,283.581 377.5,282.5C 398.821,279.624 419.821,281.124 440.5,287C 443.999,288.916 447.332,291.083 450.5,293.5C 451.08,295.749 452.413,297.415 454.5,298.5C 459.825,304.113 462.159,310.946 461.5,319C 461.456,322.57 460.956,326.07 460,329.5C 459.097,330.701 457.931,331.535 456.5,332C 442.816,335.501 429.149,339.001 415.5,342.5C 412.612,341.99 410.279,342.656 408.5,344.5C 391.931,348.386 375.598,353.886 359.5,361C 354.228,363.941 349.228,367.274 344.5,371C 327.561,386.276 309.228,399.609 289.5,411C 284.924,413.124 280.257,414.957 275.5,416.5C 274.206,418.048 273.539,420.048 273.5,422.5C 273.505,424.696 273.838,426.696 274.5,428.5C 274.667,439.172 274.5,449.839 274,460.5C 273.535,461.931 272.701,463.097 271.5,464C 221.5,464.667 171.5,464.667 121.5,464C 120.619,463.292 119.953,462.458 119.5,461.5C 119.83,441.66 119.497,421.993 118.5,402.5C 112.539,397.296 108.206,390.963 105.5,383.5C 105.715,381.821 105.048,380.821 103.5,380.5C 99.1999,367.878 96.6999,354.545 96,340.5C 94.6985,301.376 98.0318,262.709 106,224.5C 108.65,220.025 111.817,216.025 115.5,212.5C 117.027,212.573 118.027,211.906 118.5,210.5C 124.672,205.517 131.838,203.184 140,203.5C 146.819,203.466 153.152,205.133 159,208.5C 159.366,206.548 160.199,204.882 161.5,203.5C 162.906,203.027 163.573,202.027 163.5,200.5C 164.5,200.167 165.167,199.5 165.5,198.5C 167.288,195.883 169.622,193.716 172.5,192C 187.162,185.459 201.328,186.293 215,194.5C 221.643,183.371 231.476,178.038 244.5,178.5C 249.152,178.998 253.819,179.331 258.5,179.5C 261.327,179.584 263.994,180.25 266.5,181.5C 266.833,182.5 267.5,183.167 268.5,183.5C 271.195,183.933 273.362,185.266 275,187.5C 278.052,145.138 281.386,102.804 285,60.5C 286.573,55.0127 289.406,50.3461 293.5,46.5C 296.117,45.2141 298.45,43.5475 300.5,41.5C 309.761,37.4551 319.094,37.6218 328.5,42C 330.093,42.9487 331.426,44.1154 332.5,45.5 Z M 324.5,56.5 C 324.932,57.7095 325.599,58.7095 326.5,59.5C 327.33,140.097 327.83,220.763 328,301.5C 329.44,304.666 331.94,306.333 335.5,306.5C 352.143,301.12 369.143,297.287 386.5,295C 402.421,293.547 418.088,294.881 433.5,299C 442.755,302.663 447.755,309.496 448.5,319.5C 431.57,323.593 414.904,328.259 398.5,333.5C 396.102,333.259 394.102,333.926 392.5,335.5C 370.789,339.365 351.456,348.031 334.5,361.5C 333.29,361.932 332.29,362.599 331.5,363.5C 312.033,381.889 290.033,396.222 265.5,406.5C 263.973,406.427 262.973,407.094 262.5,408.5C 262.013,409.473 261.513,410.473 261,411.5C 260.824,424.742 260.324,437.908 259.5,451C 224.835,451.5 190.168,451.667 155.5,451.5C 147.833,451.5 140.167,451.5 132.5,451.5C 132.83,433.659 132.497,415.992 131.5,398.5C 131.291,397.078 130.791,395.745 130,394.5C 119.391,383.278 113.057,369.945 111,354.5C 107.585,328.456 107.918,302.456 112,276.5C 112.228,280.917 112.728,285.25 113.5,289.5C 113.721,292.067 114.388,294.401 115.5,296.5C 120.326,310.088 129.992,317.088 144.5,317.5C 153.514,317.754 160.848,314.421 166.5,307.5C 184.914,319.389 201.581,317.389 216.5,301.5C 227.754,309.948 240.087,311.781 253.5,307C 262.615,301.944 268.782,294.444 272,284.5C 275.271,263.594 277.937,242.594 280,221.5C 281.045,220.627 281.878,219.627 282.5,218.5C 283.833,218.5 284.5,217.833 284.5,216.5C 285.268,215.737 285.768,214.737 286,213.5C 287.22,201.188 288.054,188.855 288.5,176.5C 289.755,169.7 290.422,162.7 290.5,155.5C 292.963,124.14 295.796,92.8069 299,61.5C 303.376,53.0691 310.209,50.2358 319.5,53C 321.196,54.1764 322.862,55.343 324.5,56.5 Z M 260.5,193.5 C 261.899,194.89 263.566,195.89 265.5,196.5C 267.186,199.733 268.186,203.233 268.5,207C 266.087,225.123 264.087,243.29 262.5,261.5C 261.383,265.295 260.717,269.295 260.5,273.5C 260.5,274.167 260.5,274.833 260.5,275.5C 259.542,277.302 258.875,279.302 258.5,281.5C 258.5,281.833 258.5,282.167 258.5,282.5C 257.326,283.514 256.66,284.847 256.5,286.5C 255.599,287.29 254.932,288.29 254.5,289.5C 252.5,290.833 250.833,292.5 249.5,294.5C 248.041,294.433 246.708,294.766 245.5,295.5C 242.236,296.324 238.902,296.658 235.5,296.5C 233.321,295.323 230.987,294.323 228.5,293.5C 228.167,292.5 227.5,291.833 226.5,291.5C 223.658,289.156 221.825,286.156 221,282.5C 221.076,255.741 222.742,229.074 226,202.5C 227.697,199.98 229.53,197.647 231.5,195.5C 232.71,195.068 233.71,194.401 234.5,193.5C 238.917,192.316 243.417,191.316 248,190.5C 252.224,191.431 256.391,192.431 260.5,193.5 Z M 198.5,201.5 C 199.93,202.537 201.597,203.204 203.5,203.5C 204.391,204.11 205.391,204.443 206.5,204.5C 206.5,205.833 207.167,206.5 208.5,206.5C 208.328,207.492 208.662,208.158 209.5,208.5C 209.932,209.71 210.599,210.71 211.5,211.5C 209.503,232.463 207.836,253.463 206.5,274.5C 211.187,287.627 206.854,296.46 193.5,301C 190.854,301.497 188.187,301.664 185.5,301.5C 184.07,300.463 182.403,299.796 180.5,299.5C 180.167,299.5 179.833,299.5 179.5,299.5C 179.027,298.094 178.027,297.427 176.5,297.5C 176.167,296.5 175.5,295.833 174.5,295.5C 173.833,294.167 172.833,293.167 171.5,292.5C 170.249,289.868 169.249,287.201 168.5,284.5C 168.954,260.466 170.12,236.466 172,212.5C 173.268,210.519 174.434,208.519 175.5,206.5C 176.833,206.5 177.5,205.833 177.5,204.5C 184.209,201.85 191.209,200.85 198.5,201.5 Z M 157.5,294.5 C 156.494,294.938 156.494,295.604 157.5,296.5C 152.933,303.173 146.599,305.339 138.5,303C 132.163,300.164 128.33,295.331 127,288.5C 125.463,277.188 124.13,265.855 123,254.5C 121.51,252.442 119.51,251.109 117,250.5C 115.633,251.524 114.8,251.024 114.5,249C 114.366,238.222 118.032,229.055 125.5,221.5C 133.129,216.443 141.129,215.61 149.5,219C 154.472,220.791 157.139,224.291 157.5,229.5C 156.167,246.372 155.167,263.205 154.5,280C 154.994,284.961 155.994,289.795 157.5,294.5 Z"/></g>
<g><path style="opacity:0.663" fill="#5b5b5b" d="M 300.5,41.5 C 298.45,43.5475 296.117,45.2141 293.5,46.5C 294.992,43.6769 297.326,42.0102 300.5,41.5 Z"/></g>
<g><path style="opacity:0.451" fill="#868686" d="M 332.5,45.5 C 334.262,46.2623 335.262,47.5956 335.5,49.5C 333.738,48.7377 332.738,47.4044 332.5,45.5 Z"/></g>
<g><path style="opacity:0.075" fill="#ababab" d="M 337.5,52.5 C 339.104,53.287 339.771,54.6203 339.5,56.5C 338.326,55.4863 337.66,54.153 337.5,52.5 Z"/></g>
<g><path style="opacity:0.027" fill="#9f9f9f" d="M 324.5,56.5 C 326.048,56.8212 326.715,57.8212 326.5,59.5C 325.599,58.7095 324.932,57.7095 324.5,56.5 Z"/></g>
<g><path style="opacity:0.086" fill="#c6c6c6" d="M 339.5,57.5 C 341.223,59.78 341.889,62.4467 341.5,65.5C 340.469,63.0392 339.802,60.3725 339.5,57.5 Z"/></g>
<g><path style="opacity:0.071" fill="#7e7e7e" d="M 290.5,155.5 C 290.422,162.7 289.755,169.7 288.5,176.5C 288.35,169.279 289.017,162.279 290.5,155.5 Z"/></g>
<g><path style="opacity:0.941" fill="#424242" d="M 244.5,178.5 C 249.213,177.503 253.88,177.837 258.5,179.5C 253.819,179.331 249.152,178.998 244.5,178.5 Z"/></g>
<g><path style="opacity:0.004" fill="#d6d6d6" d="M 266.5,181.5 C 267.833,181.5 268.5,182.167 268.5,183.5C 267.5,183.167 266.833,182.5 266.5,181.5 Z"/></g>
<g><path style="opacity:0.165" fill="#818181" d="M 234.5,193.5 C 233.71,194.401 232.71,195.068 231.5,195.5C 231.821,193.952 232.821,193.285 234.5,193.5 Z"/></g>
<g><path style="opacity:0.478" fill="#6f6f6f" d="M 260.5,193.5 C 262.989,193.241 264.656,194.241 265.5,196.5C 263.566,195.89 261.899,194.89 260.5,193.5 Z"/></g>
<g><path style="opacity:0.137" fill="#b1b1b1" d="M 165.5,198.5 C 165.167,199.5 164.5,200.167 163.5,200.5C 163.5,199.167 164.167,198.5 165.5,198.5 Z"/></g>
<g><path style="opacity:0.11" fill="#8a8a8a" d="M 198.5,201.5 C 200.698,201.12 202.365,201.787 203.5,203.5C 201.597,203.204 199.93,202.537 198.5,201.5 Z"/></g>
<g><path style="opacity:0.129" fill="#8e8e8e" d="M 163.5,200.5 C 163.573,202.027 162.906,203.027 161.5,203.5C 161.427,201.973 162.094,200.973 163.5,200.5 Z"/></g>
<g><path style="opacity:0.004" fill="#dbdbdb" d="M 177.5,204.5 C 177.5,205.833 176.833,206.5 175.5,206.5C 175.833,205.5 176.5,204.833 177.5,204.5 Z"/></g>
<g><path style="opacity:0.004" fill="#cecece" d="M 206.5,204.5 C 207.5,204.833 208.167,205.5 208.5,206.5C 207.167,206.5 206.5,205.833 206.5,204.5 Z"/></g>
<g><path style="opacity:0.086" fill="#848484" d="M 209.5,208.5 C 211.048,208.821 211.715,209.821 211.5,211.5C 210.599,210.71 209.932,209.71 209.5,208.5 Z"/></g>
<g><path style="opacity:0.318" fill="#8b8b8b" d="M 118.5,210.5 C 118.027,211.906 117.027,212.573 115.5,212.5C 115.973,211.094 116.973,210.427 118.5,210.5 Z"/></g>
<g><path style="opacity:0.004" fill="#cecece" d="M 284.5,216.5 C 284.5,217.833 283.833,218.5 282.5,218.5C 282.833,217.5 283.5,216.833 284.5,216.5 Z"/></g>
<g><path style="opacity:0.506" fill="#6d6d6d" d="M 262.5,261.5 C 262.802,265.79 262.136,269.79 260.5,273.5C 260.717,269.295 261.383,265.295 262.5,261.5 Z"/></g>
<g><path style="opacity:0.384" fill="#7d7d7d" d="M 260.5,275.5 C 260.946,278.01 260.28,280.01 258.5,281.5C 258.875,279.302 259.542,277.302 260.5,275.5 Z"/></g>
<g><path style="opacity:0.082" fill="#9a9a9a" d="M 377.5,282.5 C 374.373,283.581 371.04,284.247 367.5,284.5C 370.507,282.825 373.84,282.159 377.5,282.5 Z"/></g>
<g><path style="opacity:0.129" fill="#919191" d="M 258.5,282.5 C 258.771,284.38 258.104,285.713 256.5,286.5C 256.66,284.847 257.326,283.514 258.5,282.5 Z"/></g>
<g><path style="opacity:0.743" fill="#5f5f5f" d="M 168.5,284.5 C 169.249,287.201 170.249,289.868 171.5,292.5C 168.828,290.609 167.828,287.942 168.5,284.5 Z"/></g>
<g><path style="opacity:0.508" fill="#676767" d="M 113.5,289.5 C 115.163,291.438 115.829,293.772 115.5,296.5C 114.388,294.401 113.721,292.067 113.5,289.5 Z"/></g>
<g><path style="opacity:0.4" fill="#afafaf" d="M 226.5,291.5 C 227.5,291.833 228.167,292.5 228.5,293.5C 227.167,293.5 226.5,292.833 226.5,291.5 Z"/></g>
<g><path style="opacity:0.451" fill="#737373" d="M 254.5,289.5 C 253.833,292.167 252.167,293.833 249.5,294.5C 250.833,292.5 252.5,290.833 254.5,289.5 Z"/></g>
<g><path style="opacity:0.106" fill="#b9b9b9" d="M 157.5,294.5 C 158.833,295.167 158.833,295.833 157.5,296.5C 156.494,295.604 156.494,294.938 157.5,294.5 Z"/></g>
<g><path style="opacity:0.325" fill="#919191" d="M 171.5,292.5 C 172.833,293.167 173.833,294.167 174.5,295.5C 172.5,295.5 171.5,294.5 171.5,292.5 Z"/></g>
<g><path style="opacity:0.333" fill="#a5a5a5" d="M 450.5,293.5 C 452.587,294.585 453.92,296.251 454.5,298.5C 452.413,297.415 451.08,295.749 450.5,293.5 Z"/></g>
<g><path style="opacity:0.367" fill="#949494" d="M 245.5,295.5 C 245.389,296.117 245.056,296.617 244.5,297C 241.304,297.805 238.304,297.638 235.5,296.5C 238.902,296.658 242.236,296.324 245.5,295.5 Z"/></g>
<g><path style="opacity:0.118" fill="#909090" d="M 176.5,297.5 C 178.027,297.427 179.027,298.094 179.5,299.5C 177.973,299.573 176.973,298.906 176.5,297.5 Z"/></g>
<g><path style="opacity:0.29" fill="#7f7f7f" d="M 180.5,299.5 C 182.403,299.796 184.07,300.463 185.5,301.5C 183.302,301.88 181.635,301.213 180.5,299.5 Z"/></g>
<g><path style="opacity:0.314" fill="#929292" d="M 398.5,333.5 C 396.786,334.738 394.786,335.405 392.5,335.5C 394.102,333.926 396.102,333.259 398.5,333.5 Z"/></g>
<g><path style="opacity:0.8" fill="#606060" d="M 415.5,342.5 C 413.343,343.407 411.01,344.073 408.5,344.5C 410.279,342.656 412.612,341.99 415.5,342.5 Z"/></g>
<g><path style="opacity:0.518" fill="#818181" d="M 334.5,361.5 C 334.179,363.048 333.179,363.715 331.5,363.5C 332.29,362.599 333.29,361.932 334.5,361.5 Z"/></g>
<g><path style="opacity:0.008" fill="#e0e0e0" d="M 103.5,380.5 C 105.048,380.821 105.715,381.821 105.5,383.5C 104.599,382.71 103.932,381.71 103.5,380.5 Z"/></g>
<g><path style="opacity:0.329" fill="#949494" d="M 265.5,406.5 C 265.027,407.906 264.027,408.573 262.5,408.5C 262.973,407.094 263.973,406.427 265.5,406.5 Z"/></g>
<g><path style="opacity:0.166" fill="#c3c3c3" d="M 118.5,402.5 C 119.497,421.993 119.83,441.66 119.5,461.5C 118.816,442.473 118.149,423.307 117.5,404C 117.57,403.235 117.903,402.735 118.5,402.5 Z"/></g>
<g><path style="opacity:0.086" fill="#b7b7b7" d="M 275.5,416.5 C 274.57,420.4 274.237,424.4 274.5,428.5C 273.838,426.696 273.505,424.696 273.5,422.5C 273.539,420.048 274.206,418.048 275.5,416.5 Z"/></g>
<g><path style="opacity:0.522" fill="#9a9a9a" d="M 131.5,398.5 C 132.497,415.992 132.83,433.659 132.5,451.5C 140.167,451.5 147.833,451.5 155.5,451.5C 147.684,452.492 139.684,452.826 131.5,452.5C 131.5,434.5 131.5,416.5 131.5,398.5 Z"/></g>
</svg>
