<?xml version="1.0" standalone="no"?>
<!DOCTYPE svg PUBLIC "-//W3C//DTD SVG 20010904//EN"
 "http://www.w3.org/TR/2001/REC-SVG-20010904/DTD/svg10.dtd">
<svg version="1.0" xmlns="http://www.w3.org/2000/svg"
 width="500.000000pt" height="500.000000pt" viewBox="0 0 500.000000 500.000000"
 preserveAspectRatio="xMidYMid meet">

<g transform="translate(0.000000,500.000000) scale(0.100000,-0.100000)"
fill="#000000" stroke="none">
<path d="M3015 4574 c-69 -35 -91 -59 -125 -129 -31 -66 -31 -60 -80 -705 -11
-146 -23 -291 -41 -497 l-12 -132 -41 27 c-76 51 -146 72 -238 72 -125 0 -237
-52 -297 -137 l-22 -33 -49 25 c-104 53 -255 57 -356 9 -52 -25 -119 -93 -135
-138 -10 -27 -17 -35 -29 -30 -93 39 -128 46 -205 42 -140 -8 -248 -80 -306
-203 -34 -72 -46 -154 -99 -667 -13 -128 -13 -473 1 -573 29 -215 93 -390 178
-487 l41 -46 0 -289 c1 -241 3 -291 16 -308 15 -20 27 -20 754 -20 727 0 739
0 754 20 13 16 15 59 16 236 l0 215 78 34 c85 37 246 131 332 194 30 22 111
87 180 144 245 204 291 227 655 331 213 61 454 125 530 141 86 18 95 32 95
135 0 138 -65 238 -194 299 -83 39 -142 51 -326 67 -197 17 -379 -7 -657 -87
l-23 -6 0 1150 c0 1123 0 1153 -20 1204 -11 29 -36 70 -55 90 -53 54 -98 72
-190 75 -70 3 -86 0 -130 -23z m206 -113 c17 -10 40 -33 50 -50 18 -30 19 -70
19 -1222 0 -878 3 -1196 11 -1212 23 -44 54 -47 138 -17 146 51 414 100 550
100 67 0 247 -22 311 -38 98 -24 162 -79 185 -156 8 -27 15 -55 15 -62 0 -6
-21 -17 -47 -24 -27 -7 -77 -20 -113 -30 -36 -10 -103 -28 -150 -40 -266 -70
-565 -167 -636 -205 -54 -30 -183 -116 -217 -145 -243 -204 -341 -275 -472
-343 -68 -36 -184 -87 -195 -87 -4 0 -18 -12 -29 -26 -20 -25 -21 -39 -21
-230 l0 -204 -650 0 -650 0 0 259 c0 152 -4 271 -10 286 -6 15 -29 49 -53 76
-41 46 -82 119 -106 184 -39 108 -70 327 -71 490 0 144 34 534 46 523 2 -2 8
-49 13 -103 14 -145 34 -199 101 -267 59 -60 92 -75 191 -85 75 -7 149 18 204
68 36 33 44 37 54 25 18 -22 90 -52 153 -66 106 -21 216 16 292 100 l36 40 23
-21 c77 -74 232 -96 338 -47 138 63 186 161 219 443 46 408 47 414 81 448 23
23 29 37 29 72 0 24 4 88 9 142 9 92 17 186 41 483 5 69 17 208 25 310 9 102
20 246 25 320 5 74 12 153 16 175 8 53 48 121 82 139 39 22 125 20 163 -3z
m-601 -1402 c64 -35 83 -75 75 -164 -3 -38 -10 -97 -15 -130 -5 -33 -14 -103
-20 -155 -49 -422 -51 -432 -101 -506 -75 -111 -244 -109 -324 5 -29 42 -30
45 -30 164 0 67 6 187 12 267 7 80 17 203 23 274 14 168 35 219 104 251 48 22
66 24 151 21 64 -2 90 -7 125 -27z m-574 -92 c16 -8 40 -27 53 -41 23 -24 23
-29 19 -138 -3 -62 -14 -216 -24 -341 -13 -170 -15 -241 -7 -278 13 -67 -12
-120 -76 -160 -87 -56 -226 -33 -287 46 -42 56 -47 104 -34 342 6 120 14 272
17 338 3 66 12 134 19 150 16 40 54 74 101 91 47 18 177 13 219 -9z m-540
-156 c23 -10 50 -32 61 -47 19 -27 19 -38 12 -169 -15 -264 -15 -487 0 -526
13 -33 12 -39 -5 -62 -27 -36 -49 -47 -105 -54 -34 -4 -62 -1 -94 11 -82 32
-106 92 -130 319 -8 82 -20 157 -25 168 -10 19 -26 23 -64 19 -16 -1 -18 3
-13 32 3 18 9 56 12 83 19 153 113 245 249 245 38 0 77 -8 102 -19z"/>
</g>
</svg>
